<?xml version="1.0" encoding="utf-8"?>
<!-- Generator: Adobe Illustrator 22.1.0, SVG Export Plug-In . SVG Version: 6.00 Build 0)  -->
<svg version="1.1" id="Layer_1" xmlns="http://www.w3.org/2000/svg" xmlns:xlink="http://www.w3.org/1999/xlink" x="0px" y="0px"
	 viewBox="0 0 141.7 141.7" style="enable-background:new 0 0 141.7 141.7;" xml:space="preserve">
<style type="text/css">
	.st0{fill:#00A993;}
	.st1{fill:#FFFFFF;}
	.st2{fill:#696664;}
</style>
<g>
	<path class="st0" d="M129.9,68c0,32.6-26.4,59-59,59s-59-26.4-59-59s26.4-59,59-59C103.5,9.1,129.9,35.5,129.9,68"/>
	<path class="st1" d="M54.6,67.3c2.9,1.3,6.2,0,7.4-2.8c1.2-2.8-0.1-6.2-2.9-7.4c-2.9-1.3-6.2,0-7.5,2.8
		C50.4,62.7,51.8,66.1,54.6,67.3z M53.4,60.6c0.8-1.9,3.1-2.8,5-1.9c1.9,0.9,2.8,3.1,2,5c-0.8,1.9-3.1,2.8-5,1.9
		C53.4,64.8,52.5,62.5,53.4,60.6z"/>
	<path class="st1" d="M56.1,64c1,0.5,2.2,0,2.6-1c0.4-1,0-2.2-1.1-2.6c-1-0.4-2.2,0-2.6,1C54.6,62.4,55.1,63.5,56.1,64z"/>
	<path class="st1" d="M85.1,51.3c-4.1,0-7.4,3.3-7.4,7.3s3.3,7.3,7.4,7.3s7.4-3.3,7.4-7.3S89.2,51.3,85.1,51.3z M85.1,63.5
		c-2.8,0-5-2.2-5-4.9s2.2-4.9,5-4.9s5,2.2,5,4.9S87.9,63.5,85.1,63.5z"/>
	<path class="st1" d="M85.1,56.1c-1.5,0-2.6,1.1-2.6,2.6c0,1.4,1.2,2.5,2.6,2.5s2.6-1.1,2.6-2.5C87.7,57.2,86.6,56.1,85.1,56.1z"/>
	<path class="st1" d="M46.3,68.6l1.8-0.7c0.5,0.7,1.1,1.4,1.8,2H64c0.5-0.5,1-1,1.4-1.6l1.7,0.8l1.8-4l-1.7-0.8
		c0.3-1.3,0.3-2.6,0.1-3.9l1.8-0.7l-1.6-4.1l-1.8,0.7c-0.7-1.1-1.6-2.1-2.7-2.8l0.7-1.5l-4-1.8L59,51.9c-1.3-0.3-2.5-0.3-3.8-0.1
		l-0.8-1.9l-4.1,1.6l0.7,1.9c-1.1,0.7-2,1.6-2.8,2.7l-1.8-0.8l-1.8,4l1.8,0.8c-0.3,1.3-0.3,2.5-0.1,3.8l-1.8,0.7L46.3,68.6
		L46.3,68.6z M50.1,59.2c1.7-3.7,6.1-5.4,9.8-3.8c3.8,1.7,5.5,6.1,3.9,9.8c-1.7,3.7-6.1,5.4-9.9,3.8C50.2,67.3,48.4,62.9,50.1,59.2z
		"/>
	<path class="st1" d="M98.6,55.9c-0.4-1.7-1-3.3-2-4.7l1.8-1.8l-4-4l-1.8,1.8c-1.4-0.9-3-1.6-4.7-1.9v-2.1h-5.7v2.2
		c-1.6,0.4-3.1,1-4.5,1.9l-1.9-1.9l-4,4l1.9,1.9c-0.9,1.4-1.6,3-1.9,4.7h-2.6v5.7h2.6c0.4,1.6,1,3.2,1.9,4.5L71.9,68l2.1,2.1h22
		l2.2-2.2l-1.7-1.7c0.9-1.4,1.6-2.9,2-4.6h2.5v-5.7C101,55.9,98.6,55.9,98.6,55.9z M85.2,68.3c-5.4,0-9.7-4.3-9.7-9.7
		c0-5.3,4.4-9.7,9.7-9.7c5.4,0,9.7,4.3,9.7,9.7C94.9,63.9,90.6,68.3,85.2,68.3z"/>
	<path class="st2" d="M45.5,78.9H87V81H49.7v16c0,2.2,1.8,4,4,4h36.7c2.2,0,4-1.8,4-4V78.9h4.1v-7.8h-53V78.9z M70.8,94.5
		c-2.3,0-4.2-1.9-4.2-4.2c0-2.3,1.9-4.2,4.2-4.2c2.3,0,4.2,1.9,4.2,4.2C75,92.6,73.1,94.5,70.8,94.5z"/>
	<path class="st1" d="M60.2,48.3l1-0.4c0.4,0.6,0.9,1.1,1.4,1.5l-0.4,0.9l2.2,1l0.4-0.9c0.7,0.2,1.5,0.2,2.2,0.1l0.4,1l2.3-0.9
		l-0.4-1c0.6-0.4,1.1-0.9,1.6-1.5l1,0.4l1-2.2L72,45.9c0.2-0.7,0.2-1.5,0-2.2l1-0.4L72.1,41l-1,0.4c-0.4-0.6-0.9-1.2-1.5-1.6L70,39
		l-2.2-1l-0.4,0.9c-0.7-0.1-1.4-0.1-2.1,0l-0.4-1.1l-2.3,0.9l0.4,1.1c-0.6,0.4-1.1,0.9-1.6,1.5l-1-0.4l-1,2.2l1,0.5
		c-0.1,0.7-0.1,1.4,0,2.1l-1,0.4C59.4,46.1,60.2,48.3,60.2,48.3z M62.3,43c0.9-2.1,3.4-3,5.5-2.1c2.1,0.9,3.1,3.4,2.2,5.5
		s-3.4,3-5.5,2.1C62.3,47.5,61.3,45.1,62.3,43z"/>
	<path class="st1" d="M64.8,47.5c1.6,0.7,3.5,0,4.2-1.6s0-3.4-1.6-4.2c-1.6-0.7-3.5,0-4.2,1.6C62.5,45,63.2,46.8,64.8,47.5z
		 M64.1,43.8c0.5-1.1,1.7-1.5,2.8-1.1c1.1,0.5,1.6,1.7,1.1,2.8s-1.7,1.6-2.8,1.1C64.1,46.1,63.6,44.9,64.1,43.8z"/>
	<path class="st1" d="M65.6,45.7c0.6,0.3,1.2,0,1.5-0.5c0.2-0.6,0-1.2-0.6-1.5s-1.2,0-1.5,0.6C64.8,44.8,65.1,45.4,65.6,45.7z"/>
</g>
</svg>
