<?xml version="1.0" encoding="utf-8"?>
<!-- Generator: Adobe Illustrator 22.1.0, SVG Export Plug-In . SVG Version: 6.00 Build 0)  -->
<svg version="1.1" id="Layer_1" xmlns="http://www.w3.org/2000/svg" xmlns:xlink="http://www.w3.org/1999/xlink" x="0px" y="0px"
	 viewBox="0 0 160 149.2" style="enable-background:new 0 0 160 149.2;" xml:space="preserve">
<style type="text/css">
	.st0{clip-path:url(#SVGID_2_);fill:#00A993;}
	.st1{fill:#464C56;}
	.st2{clip-path:url(#SVGID_4_);fill:#464C56;}
	.st3{clip-path:url(#SVGID_6_);fill:#464C56;}
	.st4{clip-path:url(#SVGID_8_);fill:#FFFFFF;}
	.st5{clip-path:url(#SVGID_10_);fill:#FFFFFF;}
	.st6{clip-path:url(#SVGID_12_);fill:#FFFFFF;}
</style>
<g>
	<g>
		<defs>
			<rect id="SVGID_1_" x="25.5" y="16.2" width="120.7" height="120.7"/>
		</defs>
		<clipPath id="SVGID_2_">
			<use xlink:href="#SVGID_1_"  style="overflow:visible;"/>
		</clipPath>
		<path class="st0" d="M146.2,76.4c0,33.4-27.1,60.5-60.5,60.5s-60.5-27.1-60.5-60.5s27.1-60.5,60.5-60.5
			C119.1,16.2,146.2,43.2,146.2,76.4"/>
	</g>
	<path class="st1" d="M97,106.3v4.6H75.1v-4.6H97z"/>
	<g>
		<defs>
			<rect id="SVGID_3_" x="25.5" y="16.2" width="120.7" height="120.7"/>
		</defs>
		<clipPath id="SVGID_4_">
			<use xlink:href="#SVGID_3_"  style="overflow:visible;"/>
		</clipPath>
		<path class="st2" d="M102.4,111.7H69.9c-0.9,0-1.5,0.7-1.5,1.5v0.7h35.5v-0.7C103.7,112.4,103.1,111.7,102.4,111.7"/>
	</g>
	<g>
		<defs>
			<rect id="SVGID_5_" x="25.5" y="16.2" width="120.7" height="120.7"/>
		</defs>
		<clipPath id="SVGID_6_">
			<use xlink:href="#SVGID_5_"  style="overflow:visible;"/>
		</clipPath>
		<path class="st3" d="M125.6,44.5h-7.8c-0.7,0.9-1.5,2-2.4,3l-1.7,2h8.9v42.3H49.8V49.5h44.9l7.2-5h-55c-1.1,0-2.2,0.9-2.2,2.2
			v56.1c0,1.1,0.9,2.2,2.2,2.2h78.9c1.1,0,2.2-0.9,2.2-2.2V46.7C127.6,45.4,126.7,44.5,125.6,44.5"/>
	</g>
	<g>
		<defs>
			<rect id="SVGID_7_" x="25.5" y="16.2" width="120.7" height="120.7"/>
		</defs>
		<clipPath id="SVGID_8_">
			<use xlink:href="#SVGID_7_"  style="overflow:visible;"/>
		</clipPath>
		<path class="st4" d="M67.3,76c-3.3,4.8-0.7,9.8-6.1,10.2c0,0,0.9,0.2,2,0.4c2.2,0.2,3.7-0.7,4.1-3.5c0,0,0.4,2-1.1,3.9
			c2.2,0.2,5.9-0.7,7.8-2.2c4.6-3.3,5.4-6.9,5.4-6.9l-5.2-5.9C74.9,72.3,69.5,72.9,67.3,76"/>
	</g>
	<g>
		<defs>
			<rect id="SVGID_9_" x="25.5" y="16.2" width="120.7" height="120.7"/>
		</defs>
		<clipPath id="SVGID_10_">
			<use xlink:href="#SVGID_9_"  style="overflow:visible;"/>
		</clipPath>
		<path class="st5" d="M110.4,42.8c-6.3,4.3-16.3,11.3-22.5,15.6c-6.3,4.3-10.2,8.9-8.9,10.4c1.3,1.3,3.3,3.7,4.6,5
			c1.3,1.3,6.3-2.2,11.3-7.8c5-5.6,13-15,18-20.6C117.8,39.6,116.7,38.5,110.4,42.8"/>
	</g>
	<g>
		<defs>
			<rect id="SVGID_11_" x="25.5" y="16.2" width="120.7" height="120.7"/>
		</defs>
		<clipPath id="SVGID_12_">
			<use xlink:href="#SVGID_11_"  style="overflow:visible;"/>
		</clipPath>
		<path class="st6" d="M78.2,68.8c-0.4-0.4-1.1-0.4-1.7,0C76,69.2,76,69.7,76,69.9c0,0-0.2,0-0.2,0.2c-0.4,0.4-0.7,1.1-0.2,1.5
			l4.6,5.2c0.4,0.4,1.1,0.4,1.5,0l0.2-0.2c0.4,0,0.9,0,1.3-0.4c0.4-0.4,0.7-1.3,0.2-1.7L78.2,68.8L78.2,68.8z"/>
	</g>
</g>
</svg>
