<?xml version="1.0" encoding="utf-8"?>
<!-- Generator: Adobe Illustrator 22.1.0, SVG Export Plug-In . SVG Version: 6.00 Build 0)  -->
<svg version="1.1" id="Layer_1" xmlns="http://www.w3.org/2000/svg" xmlns:xlink="http://www.w3.org/1999/xlink" x="0px" y="0px"
	 viewBox="0 0 141.7 141.7" style="enable-background:new 0 0 141.7 141.7;" xml:space="preserve">
<style type="text/css">
	.st0{fill:#00A79D;}
	.st1{fill:#606060;}
	.st2{fill:#FFFFFF;}
</style>
<path class="st0" d="M129.9,68c0,32.6-26.4,59-59,59s-59-26.4-59-59s26.4-59,59-59C103.5,9.1,129.9,35.5,129.9,68"/>
<path class="st1" d="M36.3,85.9h69.1c1,0,1.8-0.8,1.8-1.8V42c0-1-0.8-1.8-1.8-1.8H36.3c-1,0-1.8,0.8-1.8,1.8v42.1
	C34.5,85.1,35.3,85.9,36.3,85.9z M39,44.5h63.7v36.9H39V44.5z"/>
<path class="st1" d="M114,87.8H84.1c-0.1,0.6-0.6,1.1-1.2,1.1H58.8c-0.6,0-1.1-0.5-1.2-1.1H27.8v1.7c0,2.2,1.8,3.9,3.9,3.9h78.4
	c2.2,0,3.9-1.8,3.9-3.9V87.8z"/>
<path class="st2" d="M89.8,55.5c-1.3-0.6-2.9,0-3.5,1.3s0,2.9,1.3,3.5s2.9,0,3.5-1.3C91.7,57.6,91.1,56.1,89.8,55.5z"/>
<path class="st2" d="M41.7,47.1v31.7h8l-1-2l-0.4-0.9l2.9-1.9c-0.2-0.7-0.3-1.5-0.3-2.3L47.8,71l0.1-1l0.2-2.4l0.1-1l3.4-0.2
	c0.2-0.7,0.5-1.5,0.9-2.2L50.1,62l0.5-0.8l1.4-2l0.5-0.8l3,1.5c0.6-0.5,1.2-1,1.9-1.4l-0.9-3l0.9-0.4l2.2-1.1l0.9-0.4l1.9,2.9
	c0.7-0.2,1.5-0.2,2.3-0.3l0.7-3.1l1,0.1l2.4,0.2l1,0.1l0.3,3.5c0.7,0.2,1.4,0.5,2.1,0.9l2.2-2.4l0.8,0.5l2,1.4l0.8,0.5l-1.5,3.2
	c0.5,0.6,1,1.1,1.4,1.8L81,62l0.4,0.9l1.1,2.2l0.4,0.9L80,68c0.2,0.7,0.3,1.5,0.3,2.3l3.1,0.7l-0.1,1l-0.2,2.4l-0.1,1l-3.4,0.2
	c-0.2,0.7-0.5,1.5-0.9,2.2L80,79h20.1V47.1H41.7z M95.8,58.7L94,58.9c-0.1,0.4-0.2,0.8-0.4,1.2c-0.1,0.3-0.3,0.5-0.4,0.8h0.1
	l1.1,1.5c0.2,0.2,0.1,0.6-0.1,0.8l-1.9,1.4c-0.3,0.2-0.6,0.1-0.8-0.1l-1-1.4c-0.7,0.2-1.4,0.3-2.1,0.3v0.1l-0.8,1.7
	c-0.1,0.3-0.5,0.4-0.7,0.3l-2.2-1c-0.3-0.1-0.4-0.5-0.3-0.7l0.7-1.6c-0.6-0.5-1-1.1-1.3-1.7h-0.1L82,60.7c-0.3,0-0.6-0.2-0.6-0.5
	l-0.2-2.4c0-0.3,0.2-0.6,0.5-0.6l1.8-0.2c0.1-0.4,0.2-0.8,0.4-1.2c0.1-0.3,0.3-0.5,0.4-0.8c0,0-0.1,0-0.1-0.1L83,53.3
	c-0.2-0.2-0.1-0.6,0.1-0.8l1.9-1.4c0.3-0.2,0.6-0.1,0.8,0.1l1,1.4c0.7-0.2,1.4-0.3,2.1-0.3v-0.1l0.8-1.7c0.1-0.3,0.5-0.4,0.7-0.3
	l2.2,1c0.3,0.1,0.4,0.5,0.3,0.7l-0.7,1.6c0.6,0.5,1,1.1,1.3,1.7c0,0,0.1,0,0.1-0.1l1.8-0.2c0.3,0,0.6,0.2,0.6,0.5l0.2,2.4
	C96.3,58.4,96.1,58.6,95.8,58.7z"/>
<path class="st2" d="M74.1,76.8c3.2-4.7,2-11.1-2.7-14.4C66.6,59.2,60.2,60.3,57,65c-3,4.4-2.1,10.4,2.1,13.8h13.2
	C72.9,78.2,73.6,77.5,74.1,76.8z M70.7,74.4c-2,2.8-5.8,3.6-8.7,1.6c-2.8-1.9-3.6-5.8-1.6-8.7c2-2.8,5.8-3.6,8.7-1.6
	C71.9,67.7,72.6,71.6,70.7,74.4z"/>
</svg>
