<?xml version="1.0" encoding="utf-8"?>
<!-- Generator: Adobe Illustrator 22.1.0, SVG Export Plug-In . SVG Version: 6.00 Build 0)  -->
<svg version="1.1" id="Layer_1" xmlns="http://www.w3.org/2000/svg" xmlns:xlink="http://www.w3.org/1999/xlink" x="0px" y="0px"
	 viewBox="0 0 141.7 141.7" style="enable-background:new 0 0 141.7 141.7;" xml:space="preserve">
<style type="text/css">
	.st0{clip-path:url(#SVGID_2_);fill:#00A993;}
	.st1{clip-path:url(#SVGID_4_);fill:#464C56;}
	.st2{clip-path:url(#SVGID_6_);fill:#FFFFFF;}
	.st3{clip-path:url(#SVGID_8_);fill:#FFFFFF;}
</style>
<g>
	<g>
		<g>
			<defs>
				<rect id="SVGID_1_" x="12" y="9.1" width="117.9" height="117.9"/>
			</defs>
			<clipPath id="SVGID_2_">
				<use xlink:href="#SVGID_1_"  style="overflow:visible;"/>
			</clipPath>
			<path class="st0" d="M129.9,68c0,32.6-26.4,59-59,59s-59-26.4-59-59s26.4-59,59-59C103.5,9.1,129.9,35.5,129.9,68"/>
		</g>
	</g>
	<g>
		<g>
			<defs>
				<rect id="SVGID_3_" x="12" y="9.1" width="117.9" height="117.9"/>
			</defs>
			<clipPath id="SVGID_4_">
				<use xlink:href="#SVGID_3_"  style="overflow:visible;"/>
			</clipPath>
			<path class="st1" d="M95.9,67L94,67.3c-0.1,0.8-0.4,1.5-0.8,2.2c0,0,0.1,0,0.1,0.1l1.2,1.6c0.2,0.3,0.2,0.7-0.1,0.9l-2.1,1.6
				c-0.3,0.2-0.7,0.2-0.9-0.1l-1.2-1.5c-0.4,0.2-0.9,0.3-1.4,0.4h-0.9v0.1l-0.8,1.8c-0.1,0.3-0.5,0.5-0.8,0.3l-2.4-1
				c-0.3-0.1-0.5-0.5-0.3-0.8l0.7-1.8c-0.6-0.5-1.1-1.1-1.5-1.8h-0.1l-2,0.3c-0.3,0-0.6-0.2-0.7-0.5l-0.3-2.6c0-0.3,0.2-0.6,0.5-0.7
				l1.9-0.3c0.1-0.8,0.4-1.5,0.8-2.2c0,0-0.1,0-0.1-0.1l-1.2-1.6c-0.2-0.3-0.2-0.7,0.1-0.9l2.1-1.6c0.3-0.2,0.7-0.2,0.9,0.1l1.2,1.5
				c0.4-0.2,0.9-0.3,1.4-0.4h0.9v-0.1l0.8-1.8c0.1-0.3,0.5-0.5,0.8-0.3l2.4,1c0.3,0.1,0.5,0.5,0.3,0.8l-0.7,1.8
				c0.6,0.5,1.1,1.1,1.5,1.8h0.1l2-0.3c0.3,0,0.6,0.2,0.7,0.5l0.3,2.6C96.5,66.6,96.2,66.9,95.9,67 M77.9,63l-0.7,0.5l-2.3-2.2
				c-0.6,0.3-1.3,0.5-1.9,0.7l-0.1,3L72,65.1l-2.2,0.3l-0.9,0.1L68,62.4c-0.7-0.1-1.4-0.2-2-0.4l-1.5,2.5l-0.8-0.3l-2.1-0.9L60.8,63
				l0.8-3.1C61,59.5,60.5,59,60,58.5L57.2,60l-0.5-0.7l-1.4-1.8l-0.5-0.7l2.2-2.3c-0.3-0.7-0.5-1.3-0.7-2l-2.9-0.1l-0.1-0.9L53,49.3
				l-0.1-0.9l3-0.9c0.1-0.7,0.2-1.4,0.4-2.1l-2.5-1.5l0.3-0.8L55,41l0.3-0.8l3.1,0.7c0.4-0.6,0.9-1.1,1.4-1.6l-1.4-2.6l0.7-0.5
				l1.8-1.4l0.7-0.5l2.3,2.2c0.6-0.3,1.3-0.5,2-0.7l0.1-3l0.9-0.1l2.2-0.3l0.9-0.1l0.9,3.1c0.7,0.1,1.4,0.2,2,0.4l1.5-2.6l0.8,0.3
				l2.1,0.9l0.8,0.3l-0.8,3.1c0.6,0.4,1.1,0.9,1.6,1.4l2.6-1.4l0.5,0.7l1.4,1.8l0.5,0.7l-2.1,2.3c0.3,0.7,0.5,1.3,0.7,2l2.9,0.1
				l0.1,0.9l0.3,2.2l0.1,0.9l-3,0.9c-0.1,0.7-0.2,1.4-0.4,2.1l2.5,1.5l-0.3,0.8l-0.9,2.1l-0.3,0.8l-3.1-0.8
				c-0.4,0.6-0.9,1.1-1.4,1.6l1.4,2.6l-0.7,0.5C79.7,61.5,77.9,63,77.9,63z M87.9,30.3c-11.2-5.1-20.7-5.5-30.8,1.2
				c-7.7,5.2-10.5,18-10.4,19.5c0.1,1.5,1.8,3.9-3.2,7.2s-5.6,2.5-5.2,4.8c0.3,1.6,2,2.5,2.7,3.4c0.7,0.8,1.3,1.9,0.3,3
				c-0.6,0.7-1.9,0.9-1.1,2.8c0.7,1.7,3.1,1.8,3.9,2c0.3,0.1-2.2-0.4-3.2,0.1c-0.7,0.3-1.6,1.6-1.1,2.4s1.8,1.2,2.1,1.4
				c0.4,0.2,0.3,1.7,0.3,2.1c0.1,1.7-1,3.2-1.6,4.7c-0.7,1.7,0.4,5.1,4.1,5.9c3.7,0.8,5.1,0.7,7.8,1c4.8,0.4,8.5,7.6,8.9,13.5
				c2.1,0.3,8.2,0.3,10.3,0.3c7,0,13.7-1.7,19.6-4.9c-3-17.1,6.3-18.7,11.2-35.2C104.6,58.9,107.5,39.2,87.9,30.3"/>
		</g>
	</g>
	<g>
		<g>
			<defs>
				<rect id="SVGID_5_" x="12" y="9.1" width="117.9" height="117.9"/>
			</defs>
			<clipPath id="SVGID_6_">
				<use xlink:href="#SVGID_5_"  style="overflow:visible;"/>
			</clipPath>
			<path class="st2" d="M85.2,66.7c-0.2-1.6,0.9-3,2.4-3.2c1.6-0.2,3,0.9,3.2,2.4c0.2,1.6-0.9,3-2.5,3.2
				C86.9,69.4,85.4,68.3,85.2,66.7"/>
		</g>
	</g>
	<g>
		<g>
			<defs>
				<rect id="SVGID_7_" x="12" y="9.1" width="117.9" height="117.9"/>
			</defs>
			<clipPath id="SVGID_8_">
				<use xlink:href="#SVGID_7_"  style="overflow:visible;"/>
			</clipPath>
			<path class="st3" d="M69.3,53.9c-2.8,0-5-2.2-5-5s2.2-5,5-5s5,2.2,5,5S72.1,53.9,69.3,53.9 M69.3,37.8c-6.1,0-11.1,5-11.1,11.1
				S63.2,60,69.3,60s11.1-5,11.1-11.1S75.5,37.8,69.3,37.8"/>
		</g>
	</g>
</g>
</svg>
