<?xml version="1.0" encoding="utf-8"?>
<!-- Generator: Adobe Illustrator 22.1.0, SVG Export Plug-In . SVG Version: 6.00 Build 0)  -->
<svg version="1.1" id="Layer_1" xmlns="http://www.w3.org/2000/svg" xmlns:xlink="http://www.w3.org/1999/xlink" x="0px" y="0px"
	 viewBox="0 0 141.7 141.7" style="enable-background:new 0 0 141.7 141.7;" xml:space="preserve">
<style type="text/css">
	.st0{fill:#00A993;}
	.st1{fill:#FFFFFF;}
	.st2{fill:#696664;}
	.st3{fill:#00A79D;}
</style>
<g>
	<path class="st0" d="M129.9,68c0,32.6-26.4,59-59,59s-59-26.4-59-59s26.4-59,59-59C103.5,9.1,129.9,35.5,129.9,68"/>
	<path class="st1" d="M56.4,33.7l10.8,17.1v8.3h8.6v-8.4l10.4-17C86.2,33.7,56.4,33.7,56.4,33.7z M71.5,57.5h-2.8v-7.2l-9.5-15.1H62
		l9.5,15.1C71.5,50.3,71.5,57.5,71.5,57.5z"/>
	<path class="st2" d="M101,78.8c-1.4-1.5-3.5-3.2-4.3-5.1c-1.2-2.8,0.2-5.5,0.1-8.4c0-2.3-0.7-5.1-1.5-7.2c-1.3-3.6-3.6-6.4-6.4-8.7
		c-2.2-2-4.7-3.6-7.6-4.8l-4,6.5v9.6c0,0,2,1.5,3,2.6c4.1,4.6,3.6,11.7-1,15.8c-4.6,4.1-11.7,3.6-15.8-1s-3.6-11.7,1-15.8
		c0.7-0.6,1-1.6,1-1.6v-9.4l-4.3-6.9c-9.1,3.5-15.6,11.7-15.6,21.4c0,0.9,0.1,1.7,0.2,2.5c0.1,5.5,1.8,12.2,6.8,19.6
		c0,0,7,13.9-7,21.1h30.7c0,0,2.3-9.2,6.1-9.2c3.1,0,6.4,0.2,9.5,0.1c0.6,0.1,1.1,0.1,1.5-0.1h0.1c2.2-1.1,0.7-6.1,0.7-6.1
		c1.2-0.5,2-1.4,2-2.1v-0.1c0-0.8-1.2-1.5-3-1.8H94c1.3,0,2.4-0.7,2.4-1.6V88c0-0.2-0.1-0.5-0.2-0.7c0.2-1,1.2-5.6,1.4-5.6
		C104.9,81.4,101,78.8,101,78.8z"/>
	<path class="st1" d="M56.6,32.9h30c1.1,0,2.1-0.9,2.1-2.1V27c0-1.1-0.9-2.1-2.1-2.1h-30c-1.1,0-2.1,0.9-2.1,2.1v3.8
		C54.6,32,55.5,32.9,56.6,32.9z M56.2,27.1c0-0.3,0.2-0.5,0.5-0.5H59c-0.3,0-0.5,0.2-0.5,0.5v3.8c0,0.3,0.2,0.5,0.5,0.5h-2.4
		c-0.3,0-0.5-0.2-0.5-0.5L56.2,27.1L56.2,27.1z"/>
	<path class="st1" d="M70,78.5c1.1,0,1.9-0.9,1.9-1.9c0-1.1-0.9-1.9-1.9-1.9s-1.9,0.9-1.9,1.9S69,78.5,70,78.5z"/>
	<path class="st1" d="M73.9,72.5c1.1,0,1.9-0.9,1.9-1.9c0-1.1-0.9-1.9-1.9-1.9c-1.1,0-1.9,0.9-1.9,1.9S72.8,72.5,73.9,72.5z"/>
	<path class="st3" d="M70.7,69.6c0-1.1-0.9-1.9-1.9-1.9c-1.1,0-1.9,0.9-1.9,1.9c0,1.1,0.9,1.9,1.9,1.9
		C69.8,71.6,70.7,70.7,70.7,69.6z"/>
	<path class="st1" d="M74.6,64.6c0-1.1-0.9-1.9-1.9-1.9c-1.1,0-1.9,0.9-1.9,1.9c0,1.1,0.9,1.9,1.9,1.9S74.6,65.7,74.6,64.6z"/>
	<path class="st1" d="M76.5,79.1c1.1,0,1.9-0.9,1.9-1.9c0-1.1-0.9-1.9-1.9-1.9c-1.1,0-1.9,0.9-1.9,1.9S75.4,79.1,76.5,79.1z"/>
</g>
</svg>
