<?xml version="1.0" encoding="utf-8"?>
<!-- Generator: Adobe Illustrator 22.1.0, SVG Export Plug-In . SVG Version: 6.00 Build 0)  -->
<svg version="1.1" id="Layer_1" xmlns="http://www.w3.org/2000/svg" xmlns:xlink="http://www.w3.org/1999/xlink" x="0px" y="0px"
	 viewBox="0 0 150 150" style="enable-background:new 0 0 150 150;" xml:space="preserve">
<style type="text/css">
	.st0{clip-path:url(#SVGID_2_);fill:#00A993;}
	.st1{clip-path:url(#SVGID_4_);fill:#FFFFFF;}
	.st2{clip-path:url(#SVGID_6_);fill:#FFFFFF;}
	.st3{fill:#FFFFFF;}
	.st4{clip-path:url(#SVGID_8_);fill:#464C56;}
</style>
<g>
	<g>
		<g>
			<defs>
				<rect id="SVGID_1_" x="12.4" y="15" width="120" height="120"/>
			</defs>
			<clipPath id="SVGID_2_">
				<use xlink:href="#SVGID_1_"  style="overflow:visible;"/>
			</clipPath>
			<path class="st0" d="M132.4,74.9c0,33.2-26.9,60.1-60.1,60.1s-60.1-26.9-60.1-60.1s26.9-60.1,60.1-60.1
				C105.4,15.1,132.4,42,132.4,74.9"/>
		</g>
	</g>
	<g>
		<g>
			<defs>
				<rect id="SVGID_3_" x="12.4" y="15" width="120" height="120"/>
			</defs>
			<clipPath id="SVGID_4_">
				<use xlink:href="#SVGID_3_"  style="overflow:visible;"/>
			</clipPath>
			<path class="st1" d="M68.1,79.3c-0.4,0-0.9-0.2-1.3-0.2c-4.1,0-7.5,3.4-7.5,7.5s3.4,7.5,7.5,7.5s7.5-3.4,7.5-7.5
				c0-0.6-0.2-1.5-0.2-2.2l-9,4.1L68.1,79.3L68.1,79.3z"/>
		</g>
	</g>
	<g>
		<g>
			<defs>
				<rect id="SVGID_5_" x="12.4" y="15" width="120" height="120"/>
			</defs>
			<clipPath id="SVGID_6_">
				<use xlink:href="#SVGID_5_"  style="overflow:visible;"/>
			</clipPath>
			<path class="st2" d="M86.2,72.1c3,4.1,4.7,9,4.7,14.4c0,13.4-10.8,24.1-24.1,24.1s-24.1-10.7-24.1-24s10.8-24.1,24.1-24.1
				c4.5,0,8.8,1.3,12.5,3.4l3.9-4.3c-4.7-3-10.3-4.7-16.2-4.7c-16.4,0-29.7,13.4-29.7,29.7c0,16.4,13.4,29.7,29.7,29.7
				c16.4,0,29.7-13.4,29.7-29.7c0-7.1-2.4-13.6-6.5-18.5L86.2,72.1L86.2,72.1z"/>
		</g>
	</g>
	<path class="st3" d="M78.1,79.5l-5.4-4.7l-2.8,3l-3,8.8l8.4-3.9L78.1,79.5z"/>
	<path class="st3" d="M93.1,52.3L73.8,73.4l5.4,5l19.2-21.1L93,57.9L93.1,52.3L93.1,52.3z"/>
	<path class="st3" d="M96.2,54.3l0.2-5.8l-2.2-1.9L94,56.8l9.9-1.3l-1.9-1.9L96.2,54.3L96.2,54.3z"/>
	<path class="st3" d="M100.5,49.7l0.2-5.8L98.5,42l-0.2,10.1l9.9-1.3l-2.2-1.9L100.5,49.7z"/>
	<g>
		<g>
			<defs>
				<rect id="SVGID_7_" x="12.4" y="15" width="120" height="120"/>
			</defs>
			<clipPath id="SVGID_8_">
				<use xlink:href="#SVGID_7_"  style="overflow:visible;"/>
			</clipPath>
			<path class="st4" d="M66.9,67.8c-10.3,0-18.7,8.4-18.7,18.7s8.4,18.7,18.7,18.7s18.7-8.4,18.7-18.7c0-3.7-1.1-7.3-3-10.1
				l-3.2,3.4l-0.9,0.9c0.9,1.7,1.3,3.7,1.3,5.8c0,7.1-5.8,13.1-13.1,13.1c-7.1,0-13.1-5.8-13.1-13.1c0-7.1,5.8-13.1,13.1-13.1
				c1.5,0,3.2,0.2,4.5,0.9l0.9-0.9l3.2-3.4C72.7,68.7,69.9,67.8,66.9,67.8"/>
		</g>
	</g>
	<path class="st3" d="M110.6,44.1l-5.8,0.9l0.2-5.8l-2.2-1.9l-0.2,10.1l9.9-1.3L110.6,44.1z"/>
</g>
</svg>
