<?xml version="1.0" encoding="utf-8"?>
<!-- Generator: Adobe Illustrator 22.1.0, SVG Export Plug-In . SVG Version: 6.00 Build 0)  -->
<svg version="1.1" id="Layer_1" xmlns="http://www.w3.org/2000/svg" xmlns:xlink="http://www.w3.org/1999/xlink" x="0px" y="0px"
	 viewBox="0 0 141.7 141.7" style="enable-background:new 0 0 141.7 141.7;" xml:space="preserve">
<style type="text/css">
	.st0{fill:#00A993;}
	.st1{fill:#696664;}
	.st2{fill:#FFFFFF;}
</style>
<g>
	<path class="st0" d="M129.9,68c0,32.6-26.4,59-59,59s-59-26.4-59-59s26.4-59,59-59C103.5,9.1,129.9,35.5,129.9,68"/>
	<path class="st1" d="M102.1,42.6H40.3c-2.4,0-4.4,2-4.4,4.4v48.7c0,2.4,2,4.4,4.4,4.4h61.8c2.4,0,4.4-2,4.4-4.4V47
		C106.5,44.6,104.5,42.6,102.1,42.6z M92.3,48.6h7.1v6.8h-7.1V48.6z M82.1,48.6h7.1v6.8h-7.1V48.6z M72.3,48.6h7.1v6.8h-7.1V48.6z
		 M101,94.5H41.4V62.1H101V94.5z"/>
	<path class="st2" d="M72.1,91.7c7.6,0,13.7-6.2,13.7-13.7c0-7.6-6.2-13.7-13.7-13.7c-7.6,0-13.7,6.2-13.7,13.7S64.5,91.7,72.1,91.7
		z M66.5,69.6L82.8,78l-16.3,8.4V69.6z"/>
</g>
</svg>
