<?xml version="1.0" encoding="utf-8"?>
<!-- Generator: Adobe Illustrator 22.1.0, SVG Export Plug-In . SVG Version: 6.00 Build 0)  -->
<svg version="1.1" id="Layer_1" xmlns="http://www.w3.org/2000/svg" xmlns:xlink="http://www.w3.org/1999/xlink" x="0px" y="0px"
	 viewBox="0 0 612 792" style="enable-background:new 0 0 612 792;" xml:space="preserve">
<style type="text/css">
	.st0{clip-path:url(#SVGID_2_);fill:#00B396;}
	.st1{clip-path:url(#SVGID_4_);fill:#464C56;}
	.st2{clip-path:url(#SVGID_6_);fill:#464C56;}
	.st3{clip-path:url(#SVGID_8_);fill:#464C56;}
	.st4{clip-path:url(#SVGID_10_);fill:#464C56;}
	.st5{clip-path:url(#SVGID_12_);fill:#464C56;}
	.st6{clip-path:url(#SVGID_14_);fill:#FFFFFF;}
	.st7{clip-path:url(#SVGID_16_);fill:#464C56;}
</style>
<g>
	<g>
		<defs>
			<rect id="SVGID_1_" x="278" y="367.2" width="56.8" height="56.8"/>
		</defs>
		<clipPath id="SVGID_2_">
			<use xlink:href="#SVGID_1_"  style="overflow:visible;"/>
		</clipPath>
		<path class="st0" d="M334.8,395.6c0,15.7-12.7,28.4-28.4,28.4S278,411.3,278,395.6s12.7-28.4,28.4-28.4S334.8,379.9,334.8,395.6"
			/>
	</g>
	<g>
		<defs>
			<rect id="SVGID_3_" x="278" y="367.2" width="56.8" height="56.8"/>
		</defs>
		<clipPath id="SVGID_4_">
			<use xlink:href="#SVGID_3_"  style="overflow:visible;"/>
		</clipPath>
		<path class="st1" d="M291.4,384.9h29.3v17h-29.3V384.9z M306.1,383.4c0.3,0,0.5,0.2,0.5,0.5s-0.2,0.5-0.5,0.5s-0.5-0.2-0.5-0.5
			S305.8,383.4,306.1,383.4 M290.2,403.9H322c0.5,0,0.8-0.4,0.8-0.8v-19.4c0-0.5-0.4-0.8-0.8-0.8h-31.8c-0.5,0-0.8,0.4-0.8,0.8v19.4
			C289.4,403.5,289.7,403.9,290.2,403.9"/>
	</g>
	<g>
		<defs>
			<rect id="SVGID_5_" x="278" y="367.2" width="56.8" height="56.8"/>
		</defs>
		<clipPath id="SVGID_6_">
			<use xlink:href="#SVGID_5_"  style="overflow:visible;"/>
		</clipPath>
		<path class="st2" d="M325.9,404.8h-13.7c0,0.3-0.3,0.5-0.5,0.5h-11.1c-0.3,0-0.5-0.2-0.5-0.5h-13.7v0.8c0,1,0.8,1.8,1.8,1.8h36
			c1,0,1.8-0.8,1.8-1.8V405C325.9,404.9,325.9,404.9,325.9,404.8"/>
	</g>
	<g>
		<defs>
			<rect id="SVGID_7_" x="278" y="367.2" width="56.8" height="56.8"/>
		</defs>
		<clipPath id="SVGID_8_">
			<use xlink:href="#SVGID_7_"  style="overflow:visible;"/>
		</clipPath>
		<path class="st3" d="M303,390.9c-0.5,0-0.8,0.4-0.8,0.8c0,0.5,0.4,0.8,0.8,0.8c0.5,0,0.8-0.4,0.8-0.8S303.4,391,303,390.9"/>
	</g>
	<g>
		<defs>
			<rect id="SVGID_9_" x="278" y="367.2" width="56.8" height="56.8"/>
		</defs>
		<clipPath id="SVGID_10_">
			<use xlink:href="#SVGID_9_"  style="overflow:visible;"/>
		</clipPath>
		<path class="st4" d="M309.4,394.4c-0.5,0-0.8,0.4-0.8,0.8c0,0.5,0.4,0.8,0.8,0.8c0.5,0,0.8-0.4,0.8-0.8S309.8,394.4,309.4,394.4"
			/>
	</g>
	<g>
		<defs>
			<rect id="SVGID_11_" x="278" y="367.2" width="56.8" height="56.8"/>
		</defs>
		<clipPath id="SVGID_12_">
			<use xlink:href="#SVGID_11_"  style="overflow:visible;"/>
		</clipPath>
		<path class="st5" d="M296.5,396.2c-0.5,0-0.8,0.4-0.8,0.8c0,0.5,0.4,0.8,0.8,0.8c0.5,0,0.8-0.4,0.8-0.8S297,396.2,296.5,396.2"/>
	</g>
	<g>
		<defs>
			<rect id="SVGID_13_" x="278" y="367.2" width="56.8" height="56.8"/>
		</defs>
		<clipPath id="SVGID_14_">
			<use xlink:href="#SVGID_13_"  style="overflow:visible;"/>
		</clipPath>
		<path class="st6" d="M315.6,391.8c-0.4,0-0.8-0.1-1.1-0.3l-2.9,2.7c0.1,0.3,0.2,0.7,0.2,1c0,1.4-1.2,2.5-2.5,2.4
			c-1.4,0-2.5-1.2-2.4-2.5v-0.3l-2.3-1.3c-0.5,0.4-1.1,0.7-1.8,0.7c-0.5,0-0.9-0.2-1.3-0.4l-2.8,2.3c0.1,0.3,0.2,0.6,0.1,0.9
			c0,1.4-1.2,2.5-2.5,2.4c-1.4,0-2.5-1.2-2.4-2.5c0-1.4,1.2-2.5,2.5-2.4c0.5,0,0.9,0.1,1.2,0.4l2.8-2.4c-0.1-0.3-0.1-0.5-0.1-0.8
			c0-1.4,1.2-2.5,2.5-2.4c1.4,0,2.5,1.2,2.4,2.5v0.3l2.3,1.3c0.4-0.4,1-0.6,1.7-0.6c0.4,0,0.8,0.1,1.1,0.3l2.9-2.7
			c-0.1-0.3-0.2-0.7-0.2-1c0-1.4,1.2-2.5,2.5-2.4c1.4,0,2.5,1.2,2.4,2.5C318.1,390.7,317,391.8,315.6,391.8 M292.7,400.6h26.9V386
			h-26.9V400.6L292.7,400.6z"/>
	</g>
	<g>
		<defs>
			<rect id="SVGID_15_" x="278" y="367.2" width="56.8" height="56.8"/>
		</defs>
		<clipPath id="SVGID_16_">
			<use xlink:href="#SVGID_15_"  style="overflow:visible;"/>
		</clipPath>
		<path class="st7" d="M315.7,388.5c-0.5,0-0.8,0.4-0.8,0.8c0,0.5,0.4,0.8,0.8,0.8c0.5,0,0.8-0.4,0.8-0.8S316.2,388.5,315.7,388.5"
			/>
	</g>
</g>
</svg>
