<?xml version="1.0" encoding="utf-8"?>
<!-- Generator: Adobe Illustrator 22.1.0, SVG Export Plug-In . SVG Version: 6.00 Build 0)  -->
<svg version="1.1" id="Layer_1" xmlns="http://www.w3.org/2000/svg" xmlns:xlink="http://www.w3.org/1999/xlink" x="0px" y="0px"
	 viewBox="0 0 141.7 141.7" style="enable-background:new 0 0 141.7 141.7;" xml:space="preserve">
<style type="text/css">
	.st0{fill:#00A993;}
	.st1{fill:#696664;}
	.st2{fill:#FFFFFF;}
</style>
<g>
	<path class="st0" d="M129.9,68c0,32.6-26.4,59-59,59s-59-26.4-59-59s26.4-59,59-59C103.5,9.1,129.9,35.5,129.9,68"/>
	<path class="st1" d="M37.1,50h53.2v9.5h4.9v-23c0-2.2-1.7-3.9-3.9-3.9H36.1c-2.2,0-3.9,1.7-3.9,3.9V80c0,2.2,1.7,3.9,3.9,3.9h46.2
		V79H37.1V50z M82.5,38h6.3v6.1h-6.3V38z M73.5,38h6.3v6.1h-6.3V38z M64.7,38H71v6.1h-6.3V38z"/>
	<path class="st1" d="M110,75.9V61H87.7v14.9h-3.9v12.3c0,9.3,6.8,16.9,15.2,16.9s15.2-7.6,15.2-16.9V75.9H110z M97.6,83.5h-7.8v-4
		h7.8V83.5z M92.9,75.9v-9.6h11.8v9.6H92.9z M107.6,83.5h-7.7v-4h7.7V83.5z"/>
	<path class="st2" d="M58,62v-1.6l-7.5,3.4v1.4l7.5,3.4V67l-5.7-2.5L58,62z"/>
	<path class="st2" d="M63.8,69.2L67.1,58h-1.5l-3.3,11.2H63.8z"/>
	<path class="st2" d="M71.2,67v1.6l7.4-3.4v-1.4l-7.4-3.4V62l5.7,2.5L71.2,67z"/>
</g>
</svg>
