<?xml version="1.0" encoding="utf-8"?>
<!-- Generator: Adobe Illustrator 22.1.0, SVG Export Plug-In . SVG Version: 6.00 Build 0)  -->
<svg version="1.1" id="Layer_1" xmlns="http://www.w3.org/2000/svg" xmlns:xlink="http://www.w3.org/1999/xlink" x="0px" y="0px"
	 viewBox="0 0 148 155" style="enable-background:new 0 0 148 155;" xml:space="preserve">
<style type="text/css">
	.st0{clip-path:url(#SVGID_2_);fill:#00A993;}
	.st1{clip-path:url(#SVGID_4_);fill:#464C56;}
	.st2{clip-path:url(#SVGID_6_);fill:#464C56;}
	.st3{clip-path:url(#SVGID_8_);fill:#464C56;}
	.st4{fill:#FFFFFF;}
	.st5{clip-path:url(#SVGID_10_);fill:#464C56;}
</style>
<g>
	<g>
		<g>
			<defs>
				<rect id="SVGID_1_" x="16.2" y="19.8" width="118" height="118"/>
			</defs>
			<clipPath id="SVGID_2_">
				<use xlink:href="#SVGID_1_"  style="overflow:visible;"/>
			</clipPath>
			<path class="st0" d="M134.2,78.8c0,32.6-26.4,59-59,59s-59-26.4-59-59s26.4-59,59-59S134.2,46.2,134.2,78.8"/>
		</g>
	</g>
	<g>
		<g>
			<defs>
				<rect id="SVGID_3_" x="16.2" y="19.8" width="118" height="118"/>
			</defs>
			<clipPath id="SVGID_4_">
				<use xlink:href="#SVGID_3_"  style="overflow:visible;"/>
			</clipPath>
			<path class="st1" d="M96.1,54.3v44.6c0,2.1,1.7,3.6,3.6,3.6h4.2V50.8h-4.2C97.6,50.6,96.1,52.2,96.1,54.3"/>
		</g>
	</g>
	<g>
		<g>
			<defs>
				<rect id="SVGID_5_" x="16.2" y="19.8" width="118" height="118"/>
			</defs>
			<clipPath id="SVGID_6_">
				<use xlink:href="#SVGID_5_"  style="overflow:visible;"/>
			</clipPath>
			<path class="st2" d="M109.7,72.5c-1.3-1.5-2.9-2.1-4.6-2.1v12.3c1.5,0,2.9-0.4,4-1.5C111.6,78.8,112,75,109.7,72.5"/>
		</g>
	</g>
	<g>
		<g>
			<defs>
				<rect id="SVGID_7_" x="16.2" y="19.8" width="118" height="118"/>
			</defs>
			<clipPath id="SVGID_8_">
				<use xlink:href="#SVGID_7_"  style="overflow:visible;"/>
			</clipPath>
			<path class="st3" d="M42.1,76.1c0,5.4,4,9.8,8.8,9.8V66.2C46.1,66.2,42.1,70.6,42.1,76.1"/>
		</g>
	</g>
	<path class="st4" d="M55.7,69l36.2-6.9v4.4l-36.2,6.7V69L55.7,69z M52.4,85.9l42.7,8.2V57.9L52.4,66V85.9z"/>
	<g>
		<g>
			<defs>
				<rect id="SVGID_9_" x="16.2" y="19.8" width="118" height="118"/>
			</defs>
			<clipPath id="SVGID_10_">
				<use xlink:href="#SVGID_9_"  style="overflow:visible;"/>
			</clipPath>
			<path class="st5" d="M73.9,96.2c0,0.4-0.4,0.6-0.8,0.6l-14-2.7c-0.4,0-0.6-0.4-0.6-0.8l0.8-4.8l-3.1-0.6l-1,5.2
				c-0.4,2.1,1,4.2,3.1,4.6l14,2.7c2.1,0.4,4.2-1,4.6-3.1l0.8-4.8l-3.1-0.6L73.9,96.2L73.9,96.2z"/>
		</g>
	</g>
</g>
</svg>
