<?xml version="1.0" encoding="utf-8"?>
<!-- Generator: Adobe Illustrator 22.1.0, SVG Export Plug-In . SVG Version: 6.00 Build 0)  -->
<svg version="1.1" id="Layer_1" xmlns="http://www.w3.org/2000/svg" xmlns:xlink="http://www.w3.org/1999/xlink" x="0px" y="0px"
	 viewBox="0 0 135 140" style="enable-background:new 0 0 135 140;" xml:space="preserve">
<style type="text/css">
	.st0{clip-path:url(#SVGID_2_);fill:#00A993;}
	.st1{clip-path:url(#SVGID_4_);fill:#464C56;}
	.st2{clip-path:url(#SVGID_6_);fill:#464C56;}
	.st3{clip-path:url(#SVGID_8_);fill:#464C56;}
	.st4{fill:#FFFFFF;}
	.st5{clip-path:url(#SVGID_10_);fill:#FFFFFF;}
	.st6{clip-path:url(#SVGID_12_);fill:#464C56;}
</style>
<g>
	<g>
		<g>
			<g>
				<defs>
					<rect id="SVGID_1_" x="6.5" y="9" width="122" height="122"/>
				</defs>
				<clipPath id="SVGID_2_">
					<use xlink:href="#SVGID_1_"  style="overflow:visible;"/>
				</clipPath>
				<path class="st0" d="M128.5,70c0,33.7-27.3,61.1-61.1,61.1S6.3,103.8,6.3,70S33.6,8.9,67.4,8.9C101.1,9.1,128.5,36.4,128.5,70"
					/>
			</g>
		</g>
	</g>
	<g>
		<g>
			<g>
				<defs>
					<rect id="SVGID_3_" x="6.5" y="9" width="122" height="122"/>
				</defs>
				<clipPath id="SVGID_4_">
					<use xlink:href="#SVGID_3_"  style="overflow:visible;"/>
				</clipPath>
				<path class="st1" d="M58,85c-1.3,0-2.4,0.5-3.5,1.3c-1.1,0.9-1.3,2.2-1.3,3.5c0,2.7,2.2,4.8,4.8,4.8c1.3,0,2.4-0.5,3.5-1.6
					c0.9-0.9,1.3-2.2,1.3-3.5C62.7,87.2,60.5,85,58,85 M58,100.1c-5.7,0-10.1-4.6-10.1-10.1c0-2.7,1.1-5.2,3.1-7.2s4.4-3,7.2-3
					c5.7,0,10.1,4.6,10.1,10.1c0,2.7-1.1,5.2-3.1,7.2S60.5,100.1,58,100.1"/>
			</g>
		</g>
	</g>
	<g>
		<g>
			<g>
				<defs>
					<rect id="SVGID_5_" x="6.5" y="9" width="122" height="122"/>
				</defs>
				<clipPath id="SVGID_6_">
					<use xlink:href="#SVGID_5_"  style="overflow:visible;"/>
				</clipPath>
				<path class="st2" d="M60.3,82l-5.2-0.6c0-0.2,3.3-25.1,31.7-29.2l0.6,5.2C63,61,60.3,81.8,60.3,82"/>
			</g>
		</g>
	</g>
	<g>
		<g>
			<g>
				<defs>
					<rect id="SVGID_7_" x="6.5" y="9" width="122" height="122"/>
				</defs>
				<clipPath id="SVGID_8_">
					<use xlink:href="#SVGID_7_"  style="overflow:visible;"/>
				</clipPath>
				<path class="st3" d="M75.9,70.9c-0.6,0-1.3-0.2-1.7-0.6c-1.1-0.9-1.1-2.7-0.2-3.8L83.1,56l-12.4-4.1c-1.3-0.5-2.2-2-1.7-3.3
					s2-2.2,3.3-1.7l16.5,5.2c0.9,0.2,1.6,0.9,1.7,1.7c0.2,0.9,0,1.7-0.6,2.4L77.7,69.8C77.4,70.4,76.8,70.9,75.9,70.9"/>
			</g>
		</g>
	</g>
	<path class="st4" d="M75.2,75.1l15.2,15.6l-3.8,3.7L71.4,78.9L75.2,75.1z"/>
	<path class="st4" d="M86.9,75.4l3.7,3.8L74.9,94.4l-3.7-3.8L86.9,75.4z"/>
	<path class="st4" d="M44.1,49.9l15.2,15.6l-3.8,3.7L40.4,53.5L44.1,49.9z"/>
	<path class="st4" d="M56,49.9l3.7,3.8L44.1,68.9l-3.7-3.8L56,49.9L56,49.9z"/>
	<g>
		<g>
			<g>
				<defs>
					<rect id="SVGID_9_" x="6.5" y="9" width="122" height="122"/>
				</defs>
				<clipPath id="SVGID_10_">
					<use xlink:href="#SVGID_9_"  style="overflow:visible;"/>
				</clipPath>
				<path class="st5" d="M107.4,56.8c-1.3,1.6-3.3,2.4-5.5,2.4c-0.5,0-0.9,0-1.3-0.2c1.1,3.5,1.7,7.2,1.7,11.2
					c0,19.5-16,35.5-35.5,35.5S31.4,89.6,31.4,70.1s16-35.5,35.5-35.5c11.3,0,21.5,5.5,28.1,13.8c1.1-2.2,3-3.9,5.7-4.4
					C92.8,33.9,80.8,27.5,67,27.5c-23.4,0-42.5,19-42.5,42.5s19,42.5,42.5,42.5s42.5-19,42.5-42.5C109.6,65.6,109,61,107.4,56.8"/>
			</g>
		</g>
	</g>
	<g>
		<g>
			<g>
				<defs>
					<rect id="SVGID_11_" x="6.5" y="9" width="122" height="122"/>
				</defs>
				<clipPath id="SVGID_12_">
					<use xlink:href="#SVGID_11_"  style="overflow:visible;"/>
				</clipPath>
				<path class="st6" d="M101.9,46.7c-1.3,0-2.7,0.5-3.5,1.3c-0.9,0.9-1.3,2.2-1.3,3.5s0.5,2.7,1.3,3.5c1.7,1.7,5,1.7,6.8,0
					c0.9-0.9,1.3-2.2,1.3-3.5C106.8,48.9,104.6,46.7,101.9,46.7 M101.9,61.8c-2.7,0-5.2-1.1-7.2-3c-2-2-3-4.4-3-7.2
					c0-2.7,1.1-5.2,3-7.2c2-2,4.4-3,7.2-3c5.7,0,10.1,4.6,10.1,10.1c0,2.7-1.1,5.2-3,7.2C107.3,60.7,104.6,61.8,101.9,61.8"/>
			</g>
		</g>
	</g>
</g>
</svg>
