<?xml version="1.0" encoding="UTF-8"?>
<svg viewBox="0 0 612 792" xmlns:xlink="http://www.w3.org/1999/xlink" xmlns="http://www.w3.org/2000/svg" data-type="color">
    <g>
        <defs>
            <path id="b3782c03-5b7a-4596-9cc2-6053c51e0953" d="M334.7 377.3V433H279v-55.7h55.7z" fill="#000000" data-color="1"/>
        </defs>
        <clipPath id="cdf94007-9873-4f46-8ea6-436fc2b626c2">
            <use xlink:href="#b3782c03-5b7a-4596-9cc2-6053c51e0953" overflow="visible"/>
        </clipPath>
        <path d="M334.7 405.1c0 15.4-12.5 27.9-27.9 27.9-15.4 0-27.9-12.5-27.9-27.9 0-15.4 12.5-27.9 27.9-27.9 15.4.1 27.9 12.6 27.9 27.9" clip-path="url(#cdf94007-9873-4f46-8ea6-436fc2b626c2)" fill="#ffffff" data-color="2"/>
        <path fill="#464c56" d="M312 418.9v2.1h-10.1v-2.1H312z" data-color="3"/>
        <defs>
            <path id="86aa91b7-800d-4a8b-b926-e11e680296fe" d="M334.7 377.3V433H279v-55.7h55.7z" fill="#000000" data-color="1"/>
        </defs>
        <clipPath id="0d320a15-92ea-4536-a1b4-ca3c6264f00a">
            <use xlink:href="#86aa91b7-800d-4a8b-b926-e11e680296fe" overflow="visible"/>
        </clipPath>
        <path d="M314.5 421.4h-15c-.4 0-.7.3-.7.7v.3h16.4v-.3c-.1-.4-.4-.7-.7-.7" clip-path="url(#0d320a15-92ea-4536-a1b4-ca3c6264f00a)" fill="#464c56" data-color="3"/>
        <path d="M325.2 390.4h-3.6c-.3.4-.7.9-1.1 1.4l-.8.9h4.1v19.5h-33.6v-19.5h20.7l3.3-2.3h-25.4c-.5 0-1 .4-1 1v25.9c0 .5.4 1 1 1h36.4c.5 0 1-.4 1-1v-25.9c-.1-.6-.5-1-1-1" clip-path="url(#0d320a15-92ea-4536-a1b4-ca3c6264f00a)" fill="#464c56" data-color="3"/>
        <path d="M298.3 404.9c-1.5 2.2-.3 4.5-2.8 4.7 0 0 .4.1.9.2 1 .1 1.7-.3 1.9-1.6 0 0 .2.9-.5 1.8 1 .1 2.7-.3 3.6-1 2.1-1.5 2.5-3.2 2.5-3.2l-2.4-2.7c.3.1-2.2.4-3.2 1.8" fill="#00b396" clip-path="url(#0d320a15-92ea-4536-a1b4-ca3c6264f00a)" data-color="4"/>
        <path d="M318.2 389.6c-2.9 2-7.5 5.2-10.4 7.2-2.9 2-4.7 4.1-4.1 4.8.6.6 1.5 1.7 2.1 2.3.6.6 2.9-1 5.2-3.6 2.3-2.6 6-6.9 8.3-9.5 2.3-2.7 1.8-3.2-1.1-1.2" fill="#00b396" clip-path="url(#0d320a15-92ea-4536-a1b4-ca3c6264f00a)" data-color="4"/>
        <path d="M303.3 401.6c-.2-.2-.5-.2-.8 0-.2.2-.2.4-.2.5 0 0-.1 0-.1.1-.2.2-.3.5-.1.7l2.1 2.4c.2.2.5.2.7 0l.1-.1c.2 0 .4 0 .6-.2.2-.2.3-.6.1-.8l-2.4-2.6z" fill="#00b396" clip-path="url(#0d320a15-92ea-4536-a1b4-ca3c6264f00a)" data-color="4"/>
    </g>
</svg>
