<?xml version="1.0" encoding="utf-8"?>
<!-- Generator: Adobe Illustrator 22.1.0, SVG Export Plug-In . SVG Version: 6.00 Build 0)  -->
<svg version="1.1" id="Layer_1" xmlns="http://www.w3.org/2000/svg" xmlns:xlink="http://www.w3.org/1999/xlink" x="0px" y="0px"
	 viewBox="0 0 90.7 90.7" style="enable-background:new 0 0 90.7 90.7;" xml:space="preserve">
<style type="text/css">
	.st0{fill:#00A79D;}
	.st1{fill:#696664;}
	.st2{fill:#FFFFFF;}
</style>
<path class="st0" d="M80.4,42.5c0,19.3-15.7,35-35,35s-35-15.7-35-35s15.7-35,35-35C64.7,7.6,80.4,23.2,80.4,42.5"/>
<path class="st1" d="M50.7,47v1.8h-21V47H50.7z"/>
<path class="st1" d="M50.7,52.5v1.8h-21v-1.8H50.7z"/>
<path class="st2" d="M69.2,25.3l-3.7-1.9c-0.5-0.2-1.1-0.1-1.4,0.5l-1.4,2.8l5.6,2.8l1.4-2.8C69.9,26.2,69.7,25.5,69.2,25.3z"/>
<path class="st2" d="M54,43.6l0.8,0.4l7.1-13.8c0.2-0.4,0.7-0.5,1.1-0.4c0.4,0.2,0.5,0.7,0.4,1.1l-7.1,13.7l1,0.5l7.1-13.8
	c0.2-0.4,0.7-0.5,1.1-0.4c0.4,0.2,0.5,0.7,0.4,1.1l-7.1,13.8l0.9,0.5L68,30l-5.6-2.8L54,43.6z"/>
<path class="st2" d="M53.9,50.9c-0.5-0.3-1.1-0.3-1.7-0.1l-0.1,3.4l2.7-2.1C54.8,51.6,54.4,51.1,53.9,50.9z"/>
<path class="st1" d="M56,52.3l-0.5,0.4v5.6H26.2v-16h27.3l4.3-8.4c-0.4-0.7-1.1-1.1-1.9-1.1H25.7c-1.2,0-2.1,0.9-2.1,2.1v23.9
	c0,1.2,0.9,2.1,2.1,2.1H56c1.2,0,2.1-0.9,2.1-2.1v-8.2C58.2,50.7,56,52.3,56,52.3z M51.2,35.9h3.4v3.3h-3.4V35.9z M46.2,35.9h3.5
	v3.3h-3.5V35.9z M41.4,35.9h3.4v3.3h-3.5L41.4,35.9L41.4,35.9z"/>
<path class="st2" d="M52.3,47v3.3c0.6-0.2,1.2-0.1,1.8,0.2s0.9,0.8,1.2,1.3l2.6-1.9l1.4-2.7l-5.6-2.8L52.3,47z"/>
</svg>
