<?xml version="1.0" encoding="utf-8"?>
<!-- Generator: Adobe Illustrator 22.1.0, SVG Export Plug-In . SVG Version: 6.00 Build 0)  -->
<svg version="1.1" id="Layer_1" xmlns="http://www.w3.org/2000/svg" xmlns:xlink="http://www.w3.org/1999/xlink" x="0px" y="0px"
	 viewBox="0 0 120.7 120.7" style="enable-background:new 0 0 120.7 120.7;" xml:space="preserve">
<style type="text/css">
	.st0{fill:#FFFFFF;}
	.st1{fill:#424953;}
	.st2{fill:#00A79D;}
</style>
<g>
	<path class="st0" d="M115.4,57.5c0,30.4-24.6,55-55,55s-55-24.6-55-55s24.6-55,55-55C90.8,2.6,115.4,27.2,115.4,57.5"/>
	<path class="st1" d="M71.4,45.7c-1.7,0-3-1.7-3-3.7c0-2.1,1.4-3.7,3-3.7c1.7,0,3,1.7,3,3.7C74.5,44,73.1,45.7,71.4,45.7z"/>
	<path class="st1" d="M47.1,45.7c-1.7,0-3-1.7-3-3.7c0-2.1,1.4-3.7,3-3.7c1.7,0,3,1.7,3,3.7C50.1,44,48.7,45.7,47.1,45.7z"/>
	<path class="st1" d="M67.7,64.3l1-0.1l-1.3-16.4c0-0.5-0.2-0.8-0.4-1.2c0.1,0,0.2-0.1,0.3-0.1h0.1c0.5-0.1,1-0.1,1.5-0.1l-1.3,1.1
		l1.6,0.7l-0.7,1.2l2,4.4l0.3-6.2l-0.3-0.3l0.4-1.2H72l0.4,1.2l-0.3,0.3l0.3,6.2l2-4.4l-0.7-1.2l1.6-0.7l-1.3-1.1
		c0.5,0,1,0.1,1.5,0.1h0.1c0.5,0,0.9,0.3,1.3,0.7l5,5.5c0.5,4.4,0.1,1.2,0.3,2.1v0.1L81.9,55l-0.1,0.2l-0.2,0.4l-0.4,0.8l-0.8,1.7
		l-1.7,3.4c-0.7-0.4-1.5-0.7-2.3-1.2v2.2h-0.4l-0.5,14.4h-3.9c-0.1-4.2-0.1-11.6,0-14.4h-0.4L70.7,77h-4.1c-0.1-3.4-0.1-9,0-12.6
		C66.9,64.4,67.3,64.4,67.7,64.3z M76.5,57.1l0.5-0.8l0.9-1.6l0.3-0.5l-1.9-2.3C76.4,53.7,76.4,55.4,76.5,57.1z"/>
	<path class="st1" d="M38.6,55.3l0.1-0.3l2.6-7.1c0.3-0.7,0.9-1.2,1.6-1.3H43c0.5-0.1,1-0.1,1.5-0.1l-1.3,1.1l1.6,0.7L44,49.6l2,4.4
		l0.3-6.2L46,47.5l0.4-1.1h1.2l0.4,1.1l-0.3,0.3l0.3,6.2l2-4.4l-0.6-1.3l1.6-0.7l-1.3-1.1c0.5,0,1,0.1,1.5,0.1h0.1
		c0.4,0,0.7,0.2,1.1,0.5c-0.1,0.3-0.2,0.6-0.2,0.8l-1.3,16.4l0.9,0.1l-0.4,12.6h-4.1c-0.1-4.2-0.1-11.6,0-14.4h-0.4l-0.5,14.4h-4.1
		c-0.1-4-0.1-10.8,0-14c-0.3,0.1-0.5,0.2-0.7,0.3L40,59.8l-0.7-1.8l-0.4-0.8l-0.2-0.5l-0.1-0.1C38.6,56,38.8,58.1,38.6,55.3z"/>
	<path class="st1" d="M59.7,45c-1.9,0-3.3-1.9-3.3-4.1c0-2.2,1.5-4.1,3.3-4.1c1.9,0,3.3,1.9,3.3,4.1C63.1,43.2,61.6,45,59.7,45z"/>
	<path class="st1" d="M55.3,46L55.3,46c0.7-0.1,1.2-0.1,1.7-0.2v0.1l-1.4,1.2l1.7,0.8l-0.7,1.3l2.1,4.8l0.4-6.7l-0.3-0.3l0.4-1.3
		h1.3l0.4,1.3l-0.3,0.3l0.4,6.7l2.1-4.8L62.3,48l1.7-0.8l-1.4-1.2c0.6,0,1,0.1,1.6,0.2h0.1c0.9,0,1.8,0.7,1.9,1.8l1.4,15.4
		c-0.7,0.1-1.4,0.1-2.1,0.2H65l-0.5,15.8H60c-0.1-4.6-0.1-12.7,0-15.8h-0.5l-0.5,15.8h-4.5c-0.1-4.6-0.1-12.6,0-15.8h-0.5
		c-0.7-0.1-1.5-0.1-2.2-0.2l1.5-15.4C53.5,46.8,54.3,46,55.3,46z"/>
	<path class="st1" d="M60.2,95.6c-21.3,0-38.7-17.3-38.7-38.7h9.6C31.1,73,44.2,86,60.2,86c12.6,0,23.7-8,27.6-19.9l9.1,3.1
		C91.6,85,76.9,95.6,60.2,95.6z"/>
	<path class="st1" d="M37.3,58.9l-11-11l-11,11H37.3z"/>
	<path class="st2" d="M99,56.9h-9.6c0-16-13.1-29.1-29.1-29.1c-12.6,0-23.7,8-27.6,19.9l-9.1-3.1c5.3-15.8,20-26.5,36.7-26.5
		C81.7,18.2,99,35.6,99,56.9z"/>
	<path class="st2" d="M83.2,54.8l11,11.1l11-11.1H83.2z"/>
</g>
</svg>
