<?xml version="1.0" encoding="utf-8"?>
<!-- Generator: Adobe Illustrator 22.1.0, SVG Export Plug-In . SVG Version: 6.00 Build 0)  -->
<svg version="1.1" id="Layer_1" xmlns="http://www.w3.org/2000/svg" xmlns:xlink="http://www.w3.org/1999/xlink" x="0px" y="0px"
	 viewBox="0 0 72 72" style="enable-background:new 0 0 72 72;" xml:space="preserve">
<style type="text/css">
	.st0{fill:#FFFFFF;}
	.st1{fill:#696664;}
	.st2{fill:#00A79D;}
</style>
<g>
	<path class="st0" d="M71,33.2c0,19.3-15.7,35-35,35S1,52.5,1,33.2s15.7-35,35-35C55.4-1.8,71,13.9,71,33.2"/>
	<path class="st1" d="M54.6,18.1H17.9c-1.4,0-2.6,1.2-2.6,2.6v28.9c0,1.4,1.2,2.6,2.6,2.6h36.7c1.4,0,2.6-1.2,2.6-2.6V20.7
		C57.2,19.3,56,18.1,54.6,18.1z M48.7,21.6H53v4h-4.2V21.6z M42.7,21.6h4.2v4h-4.2V21.6z M36.9,21.6h4.2v4h-4.2V21.6z M53.9,48.9
		H18.5V29.7h35.4V48.9z"/>
	<path class="st2" d="M36.8,47.2c4.5,0,8.1-3.7,8.1-8.1c0-4.5-3.7-8.1-8.1-8.1c-4.5,0-8.1,3.7-8.1,8.1S32.3,47.2,36.8,47.2z
		 M33.4,34.1l9.7,5l-9.7,5V34.1z"/>
</g>
</svg>
