<?xml version="1.0" encoding="utf-8"?>
<!-- Generator: Adobe Illustrator 22.1.0, SVG Export Plug-In . SVG Version: 6.00 Build 0)  -->
<svg version="1.1" id="Layer_1" xmlns="http://www.w3.org/2000/svg" xmlns:xlink="http://www.w3.org/1999/xlink" x="0px" y="0px"
	 viewBox="0 0 90 116.5" style="enable-background:new 0 0 90 116.5;" xml:space="preserve">
<style type="text/css">
	.st0{clip-path:url(#SVGID_2_);fill:#FFFFFF;}
	.st1{clip-path:url(#SVGID_4_);fill:#464C56;}
	.st2{clip-path:url(#SVGID_6_);fill:#464C56;}
	.st3{clip-path:url(#SVGID_8_);fill:#464C56;}
	.st4{clip-path:url(#SVGID_10_);fill:#464C56;}
	.st5{clip-path:url(#SVGID_12_);fill:#464C56;}
	.st6{clip-path:url(#SVGID_14_);fill:#00B396;}
	.st7{clip-path:url(#SVGID_16_);fill:#464C56;}
</style>
<g>
	<g>
		<defs>
			<rect id="SVGID_1_" x="2.5" y="14.9" width="85.8" height="85.8"/>
		</defs>
		<clipPath id="SVGID_2_">
			<use xlink:href="#SVGID_1_"  style="overflow:visible;"/>
		</clipPath>
		<path class="st0" d="M88.3,57.8c0,23.7-19.2,42.9-42.9,42.9S2.5,81.6,2.5,57.8s19.2-42.9,42.9-42.9S88.3,34.1,88.3,57.8"/>
	</g>
	<g>
		<defs>
			<rect id="SVGID_3_" x="2.5" y="14.9" width="85.8" height="85.8"/>
		</defs>
		<clipPath id="SVGID_4_">
			<use xlink:href="#SVGID_3_"  style="overflow:visible;"/>
		</clipPath>
		<path class="st1" d="M22.7,41.7H67v25.7H22.7V41.7z M44.9,39.4c0.5,0,0.8,0.3,0.8,0.8s-0.3,0.8-0.8,0.8c-0.5,0-0.8-0.3-0.8-0.8
			S44.5,39.4,44.9,39.4 M20.9,70.4h48c0.8,0,1.2-0.6,1.2-1.2V39.9c0-0.8-0.6-1.2-1.2-1.2h-48c-0.8,0-1.2,0.6-1.2,1.2v29.3
			C19.7,69.8,20.2,70.4,20.9,70.4"/>
	</g>
	<g>
		<defs>
			<rect id="SVGID_5_" x="2.5" y="14.9" width="85.8" height="85.8"/>
		</defs>
		<clipPath id="SVGID_6_">
			<use xlink:href="#SVGID_5_"  style="overflow:visible;"/>
		</clipPath>
		<path class="st2" d="M74.9,71.7H54.2c0,0.5-0.5,0.8-0.8,0.8H36.6c-0.5,0-0.8-0.3-0.8-0.8H15.2v1.2c0,1.5,1.2,2.7,2.7,2.7h54.4
			c1.5,0,2.7-1.2,2.7-2.7V72C74.9,71.9,74.9,71.9,74.9,71.7"/>
	</g>
	<g>
		<defs>
			<rect id="SVGID_7_" x="2.5" y="14.9" width="85.8" height="85.8"/>
		</defs>
		<clipPath id="SVGID_8_">
			<use xlink:href="#SVGID_7_"  style="overflow:visible;"/>
		</clipPath>
		<path class="st3" d="M40.3,50.7c-0.8,0-1.2,0.6-1.2,1.2c0,0.8,0.6,1.2,1.2,1.2c0.8,0,1.2-0.6,1.2-1.2S40.9,50.9,40.3,50.7"/>
	</g>
	<g>
		<defs>
			<rect id="SVGID_9_" x="2.5" y="14.9" width="85.8" height="85.8"/>
		</defs>
		<clipPath id="SVGID_10_">
			<use xlink:href="#SVGID_9_"  style="overflow:visible;"/>
		</clipPath>
		<path class="st4" d="M49.9,56c-0.8,0-1.2,0.6-1.2,1.2c0,0.8,0.6,1.2,1.2,1.2c0.8,0,1.2-0.6,1.2-1.2C51.1,56.6,50.5,56,49.9,56"/>
	</g>
	<g>
		<defs>
			<rect id="SVGID_11_" x="2.5" y="14.9" width="85.8" height="85.8"/>
		</defs>
		<clipPath id="SVGID_12_">
			<use xlink:href="#SVGID_11_"  style="overflow:visible;"/>
		</clipPath>
		<path class="st5" d="M30.4,58.7c-0.8,0-1.2,0.6-1.2,1.2c0,0.8,0.6,1.2,1.2,1.2c0.8,0,1.2-0.6,1.2-1.2
			C31.7,59.3,31.2,58.7,30.4,58.7"/>
	</g>
	<g>
		<defs>
			<rect id="SVGID_13_" x="2.5" y="14.9" width="85.8" height="85.8"/>
		</defs>
		<clipPath id="SVGID_14_">
			<use xlink:href="#SVGID_13_"  style="overflow:visible;"/>
		</clipPath>
		<path class="st6" d="M59.3,52.1c-0.6,0-1.2-0.2-1.7-0.5l-4.4,4.1c0.2,0.5,0.3,1.1,0.3,1.5c0,2.1-1.8,3.8-3.8,3.6
			c-2.1,0-3.8-1.8-3.6-3.8v-0.5l-3.5-2c-0.8,0.6-1.7,1.1-2.7,1.1c-0.8,0-1.4-0.3-2-0.6l-4.2,3.5c0.2,0.5,0.3,0.9,0.2,1.4
			c0,2.1-1.8,3.8-3.8,3.6c-2.1,0-3.8-1.8-3.6-3.8c0-2.1,1.8-3.8,3.8-3.6c0.8,0,1.4,0.2,1.8,0.6l4.2-3.6c-0.2-0.5-0.2-0.8-0.2-1.2
			c0-2.1,1.8-3.8,3.8-3.6c2.1,0,3.8,1.8,3.6,3.8v0.5l3.5,2c0.6-0.6,1.5-0.9,2.6-0.9c0.6,0,1.2,0.2,1.7,0.5l4.4-4.1
			c-0.2-0.5-0.3-1.1-0.3-1.5c0-2.1,1.8-3.8,3.8-3.6c2.1,0,3.8,1.8,3.6,3.8C63.1,50.4,61.4,52.1,59.3,52.1 M24.7,65.4h40.6V43.3H24.7
			V65.4L24.7,65.4z"/>
	</g>
	<g>
		<defs>
			<rect id="SVGID_15_" x="2.5" y="14.9" width="85.8" height="85.8"/>
		</defs>
		<clipPath id="SVGID_16_">
			<use xlink:href="#SVGID_15_"  style="overflow:visible;"/>
		</clipPath>
		<path class="st7" d="M59.4,47.1c-0.8,0-1.2,0.6-1.2,1.2c0,0.8,0.6,1.2,1.2,1.2c0.8,0,1.2-0.6,1.2-1.2S60.2,47.1,59.4,47.1"/>
	</g>
</g>
</svg>
