<?xml version="1.0" encoding="utf-8"?>
<!-- Generator: Adobe Illustrator 22.1.0, SVG Export Plug-In . SVG Version: 6.00 Build 0)  -->
<svg version="1.1" id="Layer_1" xmlns="http://www.w3.org/2000/svg" xmlns:xlink="http://www.w3.org/1999/xlink" x="0px" y="0px"
	 viewBox="0 0 100.2 92.5" style="enable-background:new 0 0 100.2 92.5;" xml:space="preserve">
<style type="text/css">
	.st0{clip-path:url(#SVGID_2_);fill:#00B396;}
	.st1{clip-path:url(#SVGID_4_);fill:#464C56;}
	.st2{clip-path:url(#SVGID_6_);fill:#464C56;}
	.st3{clip-path:url(#SVGID_8_);fill:#464C56;}
	.st4{clip-path:url(#SVGID_10_);fill:#464C56;}
	.st5{clip-path:url(#SVGID_12_);fill:#464C56;}
	.st6{clip-path:url(#SVGID_14_);fill:#FFFFFF;}
	.st7{clip-path:url(#SVGID_16_);fill:#464C56;}
</style>
<g>
	<g>
		<defs>
			<rect id="SVGID_1_" x="21.8" y="21.3" width="56.8" height="56.8"/>
		</defs>
		<clipPath id="SVGID_2_">
			<use xlink:href="#SVGID_1_"  style="overflow:visible;"/>
		</clipPath>
		<path class="st0" d="M78.5,49.7c0,15.7-12.7,28.4-28.4,28.4S21.8,65.4,21.8,49.7s12.7-28.4,28.4-28.4S78.5,34,78.5,49.7"/>
	</g>
	<g>
		<defs>
			<rect id="SVGID_3_" x="21.8" y="21.3" width="56.8" height="56.8"/>
		</defs>
		<clipPath id="SVGID_4_">
			<use xlink:href="#SVGID_3_"  style="overflow:visible;"/>
		</clipPath>
		<path class="st1" d="M35.1,39h29.3v17H35.1V39z M49.9,37.5c0.3,0,0.5,0.2,0.5,0.5s-0.2,0.5-0.5,0.5s-0.5-0.2-0.5-0.5
			S49.6,37.5,49.9,37.5 M34,58h31.8c0.5,0,0.8-0.4,0.8-0.8V37.8c0-0.5-0.4-0.8-0.8-0.8H34c-0.5,0-0.8,0.4-0.8,0.8v19.4
			C33.2,57.6,33.5,58,34,58"/>
	</g>
	<g>
		<defs>
			<rect id="SVGID_5_" x="21.8" y="21.3" width="56.8" height="56.8"/>
		</defs>
		<clipPath id="SVGID_6_">
			<use xlink:href="#SVGID_5_"  style="overflow:visible;"/>
		</clipPath>
		<path class="st2" d="M69.6,58.9H55.9c0,0.3-0.3,0.5-0.5,0.5H44.3c-0.3,0-0.5-0.2-0.5-0.5H30.1v0.8c0,1,0.8,1.8,1.8,1.8h36
			c1,0,1.8-0.8,1.8-1.8v-0.6C69.6,59,69.6,59,69.6,58.9"/>
	</g>
	<g>
		<defs>
			<rect id="SVGID_7_" x="21.8" y="21.3" width="56.8" height="56.8"/>
		</defs>
		<clipPath id="SVGID_8_">
			<use xlink:href="#SVGID_7_"  style="overflow:visible;"/>
		</clipPath>
		<path class="st3" d="M46.8,45c-0.5,0-0.8,0.4-0.8,0.8c0,0.5,0.4,0.8,0.8,0.8c0.5,0,0.8-0.4,0.8-0.8S47.1,45.1,46.8,45"/>
	</g>
	<g>
		<defs>
			<rect id="SVGID_9_" x="21.8" y="21.3" width="56.8" height="56.8"/>
		</defs>
		<clipPath id="SVGID_10_">
			<use xlink:href="#SVGID_9_"  style="overflow:visible;"/>
		</clipPath>
		<path class="st4" d="M53.1,48.5c-0.5,0-0.8,0.4-0.8,0.8c0,0.5,0.4,0.8,0.8,0.8c0.5,0,0.8-0.4,0.8-0.8S53.5,48.5,53.1,48.5"/>
	</g>
	<g>
		<defs>
			<rect id="SVGID_11_" x="21.8" y="21.3" width="56.8" height="56.8"/>
		</defs>
		<clipPath id="SVGID_12_">
			<use xlink:href="#SVGID_11_"  style="overflow:visible;"/>
		</clipPath>
		<path class="st5" d="M40.2,50.3c-0.5,0-0.8,0.4-0.8,0.8c0,0.5,0.4,0.8,0.8,0.8c0.5,0,0.8-0.4,0.8-0.8S40.8,50.3,40.2,50.3"/>
	</g>
	<g>
		<defs>
			<rect id="SVGID_13_" x="21.8" y="21.3" width="56.8" height="56.8"/>
		</defs>
		<clipPath id="SVGID_14_">
			<use xlink:href="#SVGID_13_"  style="overflow:visible;"/>
		</clipPath>
		<path class="st6" d="M59.4,45.9c-0.4,0-0.8-0.1-1.1-0.3l-2.9,2.7c0.1,0.3,0.2,0.7,0.2,1c0,1.4-1.2,2.5-2.5,2.4
			c-1.4,0-2.5-1.2-2.4-2.5v-0.3l-2.3-1.3c-0.5,0.4-1.1,0.7-1.8,0.7c-0.5,0-0.9-0.2-1.3-0.4l-2.8,2.3c0.1,0.3,0.2,0.6,0.1,0.9
			c0,1.4-1.2,2.5-2.5,2.4c-1.4,0-2.5-1.2-2.4-2.5c0-1.4,1.2-2.5,2.5-2.4c0.5,0,0.9,0.1,1.2,0.4l2.8-2.4c-0.1-0.3-0.1-0.5-0.1-0.8
			c0-1.4,1.2-2.5,2.5-2.4c1.4,0,2.5,1.2,2.4,2.5v0.3l2.3,1.3c0.4-0.4,1-0.6,1.7-0.6c0.4,0,0.8,0.1,1.1,0.3l2.9-2.7
			c-0.1-0.3-0.2-0.7-0.2-1c0-1.4,1.2-2.5,2.5-2.4c1.4,0,2.5,1.2,2.4,2.5C61.9,44.8,60.8,45.9,59.4,45.9 M36.5,54.7h26.9V40.1H36.5
			V54.7L36.5,54.7z"/>
	</g>
	<g>
		<defs>
			<rect id="SVGID_15_" x="21.8" y="21.3" width="56.8" height="56.8"/>
		</defs>
		<clipPath id="SVGID_16_">
			<use xlink:href="#SVGID_15_"  style="overflow:visible;"/>
		</clipPath>
		<path class="st7" d="M59.5,42.6c-0.5,0-0.8,0.4-0.8,0.8c0,0.5,0.4,0.8,0.8,0.8c0.5,0,0.8-0.4,0.8-0.8S60,42.6,59.5,42.6"/>
	</g>
</g>
</svg>
