<?xml version="1.0" encoding="utf-8"?>
<!-- Generator: Adobe Illustrator 22.1.0, SVG Export Plug-In . SVG Version: 6.00 Build 0)  -->
<svg version="1.1" id="Layer_1" xmlns="http://www.w3.org/2000/svg" xmlns:xlink="http://www.w3.org/1999/xlink" x="0px" y="0px"
	 viewBox="0 0 500 500" style="enable-background:new 0 0 500 500;" xml:space="preserve">
<style type="text/css">
	.st0{fill:none;stroke:#FFFFFF;stroke-width:4;stroke-miterlimit:10;}
	.st1{fill:#FFFFFF;}
</style>
<polygon class="st0" points="446.1,135.7 249.6,22.2 53.1,135.7 53.1,362.6 249.6,476 446.1,362.6 "/>
<g>
	<g>
		<g>
			<path class="st1" d="M278.4,200.9l-74,45.6c-4.2,2.6-6.2,7.7-4.8,12.4l8,28.1c0.7,2.4,2.8,4,5.3,4c0.1,0,0.3,0,0.4,0
				c2.6-0.2,4.7-2.1,5.1-4.8l2.1-15.4c0.3-2.1,1.3-4,2.8-5.4l61.1-56.8c1.8-1.7,2.1-4.5,0.6-6.5
				C283.4,200.1,280.6,199.5,278.4,200.9z M218.3,260.1c-2.7,2.6-4.5,6-5,9.7l-1,7.5l-5.8-20.4c-0.5-1.7,0.2-3.4,1.7-4.3l54.2-33.4
				L218.3,260.1z"/>
			<path class="st1" d="M320.1,171.1c-2.3-2-5.5-2.5-8.3-1.4l-163.4,63c-3.2,1.2-5.3,4.3-5.3,7.8c0,3.5,2.1,6.5,5.4,7.7l38.2,14.2
				l14.9,47.9c0.8,2.6,2.9,4.7,5.5,5.5c2.6,0.8,5.5,0.2,7.6-1.5l22.2-18.1c1.1-0.9,2.6-0.9,3.7-0.1l40,29.1c1.4,1,3.1,1.6,4.9,1.6
				c1,0,2-0.2,3-0.6c2.6-1,4.5-3.3,5.1-6l29.3-141.1C323.4,176.2,322.4,173.1,320.1,171.1z M315.8,177.7l-29.3,141.1
				c-0.1,0.5-0.5,0.7-0.7,0.8c-0.2,0.1-0.6,0.2-1.1-0.1l-40-29.1c-1.8-1.3-3.9-1.9-6-1.9c-2.3,0-4.6,0.8-6.5,2.3l-22.2,18.1
				c-0.4,0.3-0.8,0.3-1,0.2c-0.2-0.1-0.6-0.2-0.7-0.7l-15.4-49.6c-0.3-1.1-1.1-1.9-2.2-2.3l-39.8-14.9c-0.6-0.2-0.7-0.7-0.7-1
				c0-0.3,0.1-0.8,0.7-1l163.4-63c0,0,0,0,0,0c0.5-0.2,0.9,0,1.1,0.2C315.6,176.8,315.9,177.1,315.8,177.7z"/>
		</g>
	</g>
</g>
</svg>
