<?xml version="1.0" encoding="UTF-8"?>
<svg viewBox="0 0 172.7 53.8" xmlns="http://www.w3.org/2000/svg" data-type="ugc">
    <g>
        <path d="M56 26.1h-2.3v-.4h5v.4h-2.3V32H56v-5.9z" fill="#9d9d9c"/>
        <path d="M65 25.7V32h-.5v-3h-4.2v3h-.5v-6.3h.5v2.9h4.2v-2.9h.5z" fill="#9d9d9c"/>
        <path d="M71.6 31.5v.5h-4.3v-6.3h4.2v.4h-3.8v2.5H71v.4h-3.4v2.6h4z" fill="#9d9d9c"/>
        <path d="M79.9 32l-1.5-2.1H76V32h-.5v-6.3h2.3c1.6 0 2.5.8 2.5 2.1 0 1-.5 1.7-1.5 2l1.6 2.2h-.5zm-2.1-2.5c1.4 0 2.1-.6 2.1-1.7s-.7-1.7-2.1-1.7H76v3.4h1.8z" fill="#ffffff"/>
        <path d="M86.4 31.5v.5H82v-6.3h4.2v.4h-3.8v2.5h3.4v.4h-3.4v2.6h4z" fill="#ffffff"/>
        <path d="M88 25.7h.5v5.9h3.6v.4H88v-6.3z" fill="#ffffff"/>
        <path d="M97.7 31.5v.5h-4.3v-6.3h4.2v.4h-3.8v2.5h3.4v.4h-3.4v2.6h3.9z" fill="#ffffff"/>
        <path d="M104.3 25.7l-2.8 6.3h-.5l-2.8-6.3h.5l2.5 5.7 2.5-5.7h.6z" fill="#ffffff"/>
        <path d="M109 30.2h-3.7l-.8 1.8h-.5l2.9-6.3h.5l2.9 6.3h-.5l-.8-1.8zm-.2-.4l-1.7-3.6-1.6 3.6h3.3z" fill="#ffffff"/>
        <path d="M116.6 25.7V32h-.4l-4.3-5.5V32h-.5v-6.3h.4l4.3 5.5v-5.5h.5z" fill="#ffffff"/>
        <path d="M118.2 28.8c0-1.8 1.4-3.2 3.3-3.2.9 0 1.7.3 2.2.9l-.3.3c-.5-.5-1.2-.7-1.9-.7-1.6 0-2.8 1.2-2.8 2.8s1.2 2.8 2.8 2.8c.7 0 1.4-.2 1.9-.8l.3.3c-.5.6-1.4.9-2.2.9-1.9-.1-3.3-1.5-3.3-3.3z" fill="#ffffff"/>
        <path d="M129.6 31.5v.5h-4.3v-6.3h4.2v.4h-3.8v2.5h3.4v.4h-3.4v2.6h3.9z" fill="#ffffff"/>
        <path d="M138.7 25.7V32h-.5v-3H134v3h-.5v-6.3h.5v2.9h4.2v-2.9h.5z" fill="#9d9d9c"/>
        <path d="M140.3 28.8c0-1.8 1.4-3.2 3.3-3.2s3.3 1.4 3.3 3.2-1.4 3.2-3.3 3.2-3.3-1.4-3.3-3.2zm6.1 0c0-1.6-1.2-2.8-2.8-2.8-1.6 0-2.8 1.2-2.8 2.8 0 1.6 1.2 2.8 2.8 2.8 1.6 0 2.8-1.2 2.8-2.8z" fill="#9d9d9c"/>
        <path d="M148.4 29.3v-3.6h.5v3.6c0 1.6.8 2.3 2.1 2.3s2.1-.7 2.1-2.3v-3.6h.5v3.6c0 1.8-1 2.7-2.5 2.7s-2.7-.9-2.7-2.7z" fill="#9d9d9c"/>
        <path d="M154.9 31.1l.2-.3c.4.5 1.2.8 2.1.8 1.3 0 1.8-.5 1.8-1.2 0-1.9-3.9-.8-3.9-3.1 0-.9.7-1.7 2.2-1.7.7 0 1.4.2 1.9.6l-.2.4c-.5-.4-1.2-.5-1.7-.5-1.2 0-1.8.6-1.8 1.3 0 1.9 3.9.8 3.9 3.1 0 .9-.7 1.7-2.3 1.7-.8-.2-1.7-.5-2.2-1.1z" fill="#9d9d9c"/>
        <path d="M165.4 31.5v.5H161v-6.3h4.2v.4h-3.8v2.5h3.4v.4h-3.4v2.6h4z" fill="#9d9d9c"/>
        <path d="M166.6 31.6c0-.2.2-.4.4-.4s.4.2.4.4-.2.4-.4.4-.4-.2-.4-.4z" fill="#9d9d9c"/>
        <path fill="none" stroke="#00b497" d="M53.8 39.1h113.7"/>
        <path d="M54.7 45.4c0 .2 0 .3-.1.4s-.2.1-.4.1c-.3 0-.5-.1-.5-.4 0-.2.1-.3.2-.4.1-.1.2-.2.4-.2.3 0 .4.2.4.5z" fill="#ffffff"/>
        <path d="M61.2 43.7s0 .1-.1.2l-1.2 2.6c-.1.3-.2.4-.2.6 0 .2.1.2.2.2.2 0 .5-.2.7-.5 0-.1.1-.1.1-.1 0 .1-.1.2-.2.3-.3.3-.6.4-.9.4-.2 0-.3 0-.4-.1-.1-.1-.2-.2-.2-.3 0-.1 0-.2.1-.3-.4.5-.8.8-1.3.8-.3 0-.6-.1-.7-.3-.2-.2-.3-.4-.3-.8 0-.3.1-.7.3-1.1s.5-.8.9-1.1c.5-.4 1-.7 1.4-.7.4 0 .7.2.7.6l.2-.5c0-.1.1-.1.1-.1h.5c.2.1.2.1.3.2 0-.1 0-.1 0 0zm-1.1.7c0-.2-.1-.3-.2-.4-.1-.1-.2-.2-.4-.2-.3 0-.6.2-.8.5-.3.4-.6.8-.7 1.2-.2.4-.3.8-.3 1.1 0 .4.2.6.5.6.2 0 .4-.1.6-.3.2-.2.4-.5.6-.8l.7-1.5c-.1 0 0-.2 0-.2z" fill="#ffffff"/>
        <path d="M65.3 43.9c0 .2-.1.3-.3.3-.2 0-.2-.1-.2-.2v-.2h-.1c-.1 0-.1.1-.3.2-.1.1-.2.2-.2.3v.1c.1.2.1.3.1.5 0 .4-.1.8-.4 1.1-.3.3-.7.4-1.1.4-.3 0-.6-.1-.9-.3-.5.2-.7.3-.7.5 0 .1.1.2.3.2.3.1.5.1.6.1h.7c.3 0 .6 0 .7.1.4.1.7.4.7 1 0 .5-.2.9-.5 1.2-.4.4-.9.5-1.5.5-.5 0-.9-.1-1.2-.3-.4-.3-.6-.6-.6-.9 0-.2.1-.4.3-.6.1-.1.3-.2.7-.3-.3-.1-.5-.3-.5-.6 0-.4.3-.8 1-1-.2-.2-.3-.5-.3-.8 0-.5.2-.8.5-1.2.3-.3.7-.5 1.2-.5.4 0 .7.2.9.5.2-.3.4-.5.7-.5.3.1.4.2.4.4zm-1.2 4.4c0-.1 0-.3-.1-.4-.1-.1-.2-.2-.4-.2s-.5-.1-.9-.1h-1c-.4.2-.5.5-.5.9 0 .3.1.6.3.8.2.2.5.3.9.3.5 0 .8-.1 1.2-.4.3-.3.5-.6.5-.9zm-.2-3.9c0-.4-.2-.6-.5-.6s-.5.2-.8.7c-.2.4-.3.8-.3 1.2 0 .4.2.6.6.6.3 0 .5-.2.7-.7.2-.5.3-.9.3-1.2z" fill="#ffffff"/>
        <path d="M68.5 44.2c0 .3-.2.6-.5.8-.3.2-.8.3-1.3.3h-.6c-.2.5-.3.9-.3 1.3 0 .5.2.8.7.8.4 0 .7-.2 1-.6.1-.1.1-.1.2-.1 0 .1-.1.3-.4.5-.3.2-.6.3-1 .3s-.7-.1-.9-.3c-.2-.2-.4-.5-.4-.8 0-.7.4-1.3 1.1-1.9.6-.5 1.2-.8 1.7-.8.5-.1.7.1.7.5zm-.6-.2c0-.2-.1-.3-.3-.3-.2 0-.4.1-.6.2-.3.3-.6.6-.9 1.2h.2c.3 0 .6-.1 1-.3.4-.2.6-.4.6-.8z" fill="#ffffff"/>
        <path d="M72.3 44.3c0 .1-.1.4-.2.7l-.7 1.6c-.1.2-.1.3-.1.4 0 .1.1.2.2.2.2 0 .4-.1.7-.4h.2c0 .1-.1.2-.3.3-.3.2-.6.3-.9.3-.2 0-.3 0-.5-.1-.1-.1-.2-.2-.2-.3 0-.1.1-.3.2-.5l.7-1.6c.2-.4.3-.6.3-.8 0-.2-.1-.3-.3-.3-.3 0-.6.2-1 .6-.3.3-.5.7-.8 1.2l-.7 1.7c0 .1-.1.1-.1.1h-.7v-.1l.1-.1 1.3-3.2v-.1s-.1-.1-.2-.1c-.2 0-.3 0-.3-.1 0 0 0-.1.1-.1h.4c.3 0 .5 0 .6-.1h.1s.1 0 .1.1l-.3.8c0-.1.1-.1.2-.2.4-.5.9-.7 1.3-.7.2 0 .4.1.6.2.2.2.2.4.2.6z" fill="#ffffff"/>
        <path d="M76.1 44.3c0 .3-.1.4-.4.4-.1 0-.2 0-.2-.1-.1-.1-.1-.1-.1-.2s.1-.2.2-.2h.2s.1 0 .1-.1-.1-.2-.2-.3c-.1-.1-.2-.1-.4-.1-.4 0-.9.3-1.3 1s-.6 1.3-.6 1.9c0 .5.2.7.7.7.3 0 .7-.2 1-.6l.1-.1v.1c0 .1-.1.2-.2.3-.3.3-.7.5-1.1.5-.4 0-.7-.1-.9-.3-.2-.2-.3-.5-.3-.9 0-.6.3-1.2 1-1.9.5-.5 1.1-.8 1.7-.8.2 0 .4.1.5.2.1.1.2.3.2.5z" fill="#ffffff"/>
        <path d="M80.5 43.9c0 .2-.1.3-.3.3-.1 0-.2-.1-.2-.2-.1 0-.2.2-.4.5l-.9 1.5c0 .1-.5.7-1.2 1.9-.4.6-.8 1.1-1.3 1.5-.3.2-.5.3-.8.3-.3 0-.4-.1-.4-.3 0-.1 0-.2.1-.2.1-.1.2-.1.3-.1h.1v.2c0 .1 0 .1.1.1s.3-.1.5-.3c.2-.2.4-.4.6-.7.3-.4.4-.7.4-1v-2.9c0-.4-.1-.6-.3-.6-.2 0-.4.2-.6.7-.1.2-.1.2-.2.2 0 0-.1 0-.1-.1s.1-.3.3-.6c.3-.4.6-.6.9-.6.3 0 .4.1.5.3.1.1.1.4.1.7V47l.1-.2c.1-.1.2-.3.3-.5l.3-.4.8-1.3c.3-.5.5-.8.6-.9.1-.1.2-.1.3-.1.3 0 .4.1.4.3z" fill="#ffffff"/>
        <path d="M86.1 41.7c0 .2-.1.3-.3.3-.1 0-.1 0-.2-.1s-.1-.1-.1-.2c0 0 0-.1.1-.2v-.1c0-.1-.1-.2-.4-.2-.3 0-.5.1-.6.3-.2.2-.4.7-.6 1.3l-.2.7h1c.1 0 .1 0 .1.1s0 .1-.1.1h-1l-.8 2.2c-.6 1.5-1.1 2.6-1.6 3.2-.2.2-.4.4-.6.5-.2.1-.4.1-.6.1-.5 0-.8-.2-.8-.5 0-.2.1-.4.4-.4.2 0 .3.1.3.2 0 0 0 .1-.1.2l-.1.1c0 .1.1.2.3.2.3 0 .6-.1.8-.4.2-.2.4-.7.7-1.5l1.3-3.8h-.8c-.1 0-.1 0-.1-.1s.1-.1.2-.2h.7c.4-.8.6-1.4.9-1.7.4-.5.8-.7 1.4-.7.2 0 .4.1.6.2.1.1.2.2.2.4z" fill="#ffffff"/>
        <path d="M87.9 45c0 .7-.3 1.3-.9 1.9-.5.4-1 .7-1.5.7-.4 0-.7-.1-.9-.4-.2-.3-.4-.6-.4-1 0-.3.1-.7.3-1s.5-.7.8-.9c.5-.4 1-.6 1.5-.6.4 0 .6.1.9.4.1.2.2.5.2.9zm-.7-.6c0-.4-.2-.7-.6-.7-.5 0-.9.3-1.3 1-.3.7-.5 1.3-.5 1.9 0 .4.2.7.6.7.5 0 .9-.3 1.2-1 .4-.6.6-1.3.6-1.9z" fill="#ffffff"/>
        <path d="M91.6 44c0 .1 0 .2-.1.3-.1.1-.2.1-.3.1-.1 0-.1 0-.1-.1v-.2c0-.1-.1-.2-.2-.2-.2 0-.4.2-.7.5-.3.3-.6.8-.9 1.4l-.6 1.4c-.1.1-.1.2-.2.2h-.6v-.1l1.5-3.4s0-.1-.1-.1h-.2c-.1 0-.1 0-.1-.1 0 0 .2-.1.5-.1s.5 0 .6-.1h.1s.1 0 .1.1c0 0 0 .1-.1.3l-.3.8c.5-.8 1-1.1 1.4-1.1.2 0 .3.1.3.4z" fill="#ffffff"/>
        <path d="M96.8 44.7c0 .7-.3 1.3-.9 1.9-.6.6-1.3.9-1.9.9-.3 0-.6-.1-.8-.3-.2-.2-.3-.4-.3-.6 0-.1.1-.4.3-.8l1.9-4.2c0-.1 0-.1.1-.2v-.1c0-.1-.2-.1-.5-.1 0 0-.1 0-.1-.1 0 0 .1-.1.2-.1h1.1s.1 0 .1.1v.1c-.1.1-.1.2-.2.4l-.8 2.1c-.1.1-.1.3-.2.5l.1-.1.2-.2c.2-.2.5-.3.8-.3.3 0 .6.1.8.3 0 .2.1.5.1.8zm-.8-.3c0-.4-.2-.6-.5-.6-.6 0-1.1.6-1.6 1.7l-.1.5c-.2.5-.3.8-.3 1 0 .2.2.4.5.4.6 0 1.1-.4 1.6-1.3.3-.8.4-1.3.4-1.7z" fill="#ffffff"/>
        <path d="M100 41.2v.1s0 .1-.1.2l-2 4.8c-.1.4-.2.6-.2.7 0 .2.1.2.3.2.2 0 .4-.1.6-.4.1-.1.1-.2.2-.2 0 0 .1 0 .1.1s-.1.2-.3.4c-.2.2-.5.3-.9.3-.5 0-.7-.2-.7-.5 0-.1.1-.4.2-.7l2-4.8v-.1c0-.1-.1-.1-.2-.1-.3 0-.4 0-.4-.1h1.1c.1.1.2 0 .3.1 0-.1 0 0 0 0z" fill="#ffffff"/>
        <path d="M102.9 45c0 .7-.3 1.3-.9 1.9-.5.4-1 .7-1.5.7-.4 0-.7-.1-.9-.4-.2-.3-.4-.6-.4-1 0-.3.1-.7.3-1s.5-.7.8-.9c.5-.4 1-.6 1.5-.6.4 0 .6.1.9.4 0 .2.2.5.2.9zm-.7-.6c0-.4-.2-.7-.6-.7-.5 0-.9.3-1.3 1-.3.7-.5 1.3-.5 1.9 0 .4.2.7.6.7.5 0 .9-.3 1.2-1 .4-.6.6-1.3.6-1.9z" fill="#ffffff"/>
        <path d="M106.6 44.3c0 .3-.1.4-.4.4-.1 0-.2 0-.2-.1-.1-.1-.1-.1-.1-.2s.1-.2.2-.2h.2s.1 0 .1-.1-.1-.2-.2-.3c-.1-.1-.2-.1-.4-.1-.4 0-.9.3-1.3 1s-.6 1.3-.6 1.9c0 .5.2.7.7.7.3 0 .7-.2 1-.6l.1-.1v.1c0 .1-.1.2-.2.3-.3.3-.7.5-1.1.5-.4 0-.7-.1-.9-.3-.2-.2-.3-.5-.3-.9 0-.6.3-1.2 1-1.9.5-.5 1.1-.8 1.7-.8.2 0 .4.1.5.2.1.1.2.3.2.5z" fill="#ffffff"/>
        <path d="M110.7 44c0 .1 0 .2-.1.3-.1.1-.2.1-.3.1-.2 0-.3-.1-.3-.3v-.2c0-.1-.1-.2-.2-.2s-.5.3-1 .9c-.2.2-.3.4-.4.4-.1 0-.1.1-.2.1h.2c.4.1.7.3.7.6 0 .2 0 .5-.1.9v.4c0 .1.1.2.2.2.2 0 .3-.1.5-.3.2-.2.3-.4.4-.7 0-.1.1-.2.1-.2s.1 0 .1.1-.1.3-.3.6c-.2.4-.6.7-1 .7s-.6-.2-.6-.6c0-.2 0-.5.1-.9v-.4c0-.1-.1-.2-.2-.3h-.6l-.9 2.1-.1.1h-.7s-.1 0-.1-.1v-.1s0-.1.1-.2l2.2-5.2c0-.1 0-.1.1-.2l.1-.2v-.1c0-.1-.1-.1-.2-.1h-.4c-.1 0-.1 0-.1-.1 0 0 0-.1.1-.1h.4c.5 0 .8 0 1-.1h.1s-.1.2-.2.5l-1.3 3c0 .1-.1.3-.2.5h.3c.1 0 .2 0 .3-.1l.5-.5c.3-.4.6-.6.8-.8.2-.1.4-.2.5-.2.5.2.7.4.7.7z" fill="#ffffff"/>
        <path d="M114 44.3c0 .3-.1.4-.4.4-.1 0-.2 0-.2-.1-.1-.1-.1-.1-.1-.2s.1-.2.2-.2h.2s.1 0 .1-.1-.1-.2-.2-.3c-.1-.1-.2-.1-.4-.1-.4 0-.9.3-1.3 1s-.6 1.3-.6 1.9c0 .5.2.7.7.7.3 0 .7-.2 1-.6l.1-.1v.1c0 .1-.1.2-.2.3-.3.3-.7.5-1.1.5-.4 0-.7-.1-.9-.3-.2-.2-.3-.5-.3-.9 0-.6.3-1.2 1-1.9.5-.5 1.1-.8 1.7-.8.2 0 .4.1.5.2.2.1.2.3.2.5z" fill="#ffffff"/>
        <path d="M117.9 46.7l-.2.2c-.4.4-.8.5-1.1.5-.2 0-.3 0-.4-.1-.1-.1-.2-.2-.2-.4 0-.1.1-.3.2-.7l.8-1.7c.1-.3.2-.5.2-.5 0-.2-.1-.3-.3-.3-.2 0-.5.2-.9.5-.3.3-.5.5-.6.7-.1.2-.3.5-.5 1l-.6 1.3c0 .1-.1.2-.1.2h-.7s0-.1.1-.2l2.4-5.5c.1-.2.1-.3.1-.3v-.1h-.3c-.1 0-.2 0-.2-.1h1.4c.1 0 .1 0 .1.1v.1c0 .1-.1.2-.1.2l-1.4 3.2.9-.9c.2-.2.5-.2.8-.2.2 0 .4.1.5.2.1.1.2.2.2.4s-.1.4-.2.7l-.8 1.8-.2.4c0 .1 0 .1.1.1.2 0 .5-.1.8-.4 0-.2.1-.2.2-.2z" fill="#ffffff"/>
        <path d="M122.5 43.7s0 .1-.1.2l-1.2 2.6c-.1.3-.2.4-.2.6 0 .2.1.2.2.2.2 0 .5-.2.7-.5 0-.1.1-.1.1-.1 0 .1-.1.2-.2.3-.3.3-.6.4-.9.4-.2 0-.3 0-.4-.1-.1-.1-.2-.2-.2-.3 0-.1 0-.2.1-.3-.4.5-.8.8-1.3.8-.3 0-.6-.1-.7-.3-.2-.2-.3-.4-.3-.8 0-.3.1-.7.3-1.1.2-.4.5-.8.9-1.1.5-.4 1-.7 1.4-.7.4 0 .7.2.7.6l.2-.5c0-.1.1-.1.1-.1h.5c.2.1.2.1.3.2 0-.1 0-.1 0 0zm-1.1.7c0-.2-.1-.3-.2-.4-.1-.1-.2-.2-.4-.2-.3 0-.6.2-.8.5-.3.4-.6.8-.7 1.2-.2.4-.3.8-.3 1.1 0 .4.2.6.5.6.2 0 .4-.1.6-.3.2-.2.4-.5.6-.8l.7-1.5c-.1 0 0-.2 0-.2z" fill="#ffffff"/>
        <path d="M124.6 43.7v.1c0 .1-.1.2-.2.4l-1 2.3c-.1.3-.2.5-.2.6 0 .2.1.2.2.2s.2 0 .4-.1c.1-.1.3-.2.3-.3l.1-.1s.1 0 .1.1-.1.2-.2.3c-.2.2-.5.3-.8.3-.2 0-.4-.1-.5-.2-.1-.1-.2-.2-.2-.4 0-.1.1-.4.2-.7l.9-2c0-.1.1-.2.1-.2v-.1c0-.1-.1-.1-.4-.1 0 0-.1 0-.1-.1s0-.1.1-.1h.5c.2 0 .4 0 .5-.1l.2.2c0-.1 0-.1 0 0zm.6-1.7c0 .2-.1.4-.3.4-.1 0-.2 0-.3-.1-.1-.1-.1-.2-.1-.3 0-.2.1-.4.4-.4.2 0 .3.2.3.4z" fill="#ffffff"/>
        <path d="M128.6 44.3c0 .1-.1.4-.2.7l-.7 1.6c-.1.2-.1.3-.1.4 0 .1.1.2.2.2.2 0 .4-.1.7-.4h.2c0 .1-.1.2-.3.3-.3.2-.6.3-.9.3-.2 0-.3 0-.5-.1-.1-.1-.2-.2-.2-.3 0-.1.1-.3.2-.5l.7-1.6c.2-.4.3-.6.3-.8 0-.2-.1-.3-.3-.3-.3 0-.6.2-1 .6-.3.3-.5.7-.8 1.2l-.7 1.7c0 .1-.1.1-.1.1h-.7v-.1l.1-.1 1.3-3.2v-.1s-.1-.1-.2-.1c-.2 0-.3 0-.3-.1 0 0 0-.1.1-.1h.4c.3 0 .5 0 .6-.1h.1s.1 0 .1.1l-.3.8c0-.1.1-.1.2-.2.4-.5.9-.7 1.3-.7.2 0 .4.1.6.2.1.2.2.4.2.6z" fill="#ffffff"/>
        <path d="M136.3 44.3c0 .2-.1.4-.2.7l-.7 1.5c-.1.2-.2.4-.2.5 0 .1.1.2.2.2.2 0 .4-.1.6-.3.1-.1.1-.1.2-.1h.1c0 .1-.1.2-.3.3-.3.2-.6.3-.8.3-.2 0-.3 0-.4-.1-.1-.1-.2-.2-.2-.3 0-.1.1-.4.2-.7l.6-1.5c.2-.4.2-.6.2-.7 0-.2-.1-.3-.3-.3-.3 0-.6.2-.9.6-.2.3-.5.7-.8 1.5l-.5 1.2c-.1.2-.1.3-.2.3h-.6v-.1s.1-.1.1-.2l.9-2.2c.2-.5.3-.8.3-.9 0-.2-.1-.2-.3-.2-.2 0-.5.2-.8.6-.1.1-.3.3-.5.6-.1.1-.2.3-.3.7l-.7 1.6c-.1.2-.1.2-.2.2h-.7c0-.1.1-.1.1-.2l1.4-3.2V44c0-.1-.1-.1-.2-.1-.2 0-.2 0-.2-.1 0 0 0-.1.1-.1h.4c.3 0 .4 0 .5-.1h.1s.1 0 .1.1c0 0 0 .1-.1.2 0 .1-.1.2-.2.4v.1c.1-.1.2-.2.3-.4.3-.3.6-.4 1-.4.2 0 .4.1.5.2.1.1.2.3.2.6.4-.6.8-.8 1.2-.8.2 0 .4.1.5.2.5.1.5.3.5.5z" fill="#ffffff"/>
        <path d="M141 43.7s0 .1-.1.2l-1.2 2.6c-.1.3-.2.4-.2.6 0 .2.1.2.2.2.2 0 .5-.2.7-.5 0-.1.1-.1.1-.1 0 .1-.1.2-.2.3-.3.3-.6.4-.9.4-.2 0-.3 0-.4-.1-.1-.1-.2-.2-.2-.3 0-.1 0-.2.1-.3-.4.5-.8.8-1.3.8-.3 0-.6-.1-.7-.3-.2-.2-.3-.4-.3-.8 0-.3.1-.7.3-1.1s.5-.8.9-1.1c.5-.4 1-.7 1.4-.7.4 0 .7.2.7.6l.2-.5c0-.1.1-.1.1-.1h.5c.2.1.2.1.3.2 0-.1 0-.1 0 0zm-1.1.7c0-.2-.1-.3-.2-.4-.1-.1-.2-.2-.4-.2-.3 0-.6.2-.8.5-.3.4-.6.8-.7 1.2-.2.4-.3.8-.3 1.1 0 .4.2.6.5.6.2 0 .4-.1.6-.3.2-.2.4-.5.6-.8l.7-1.5c-.1 0 0-.2 0-.2z" fill="#ffffff"/>
        <path d="M144.4 44c0 .1 0 .2-.1.3-.1.1-.2.1-.3.1-.1 0-.1 0-.1-.1v-.2c0-.1-.1-.2-.2-.2-.2 0-.4.2-.7.5-.3.3-.6.8-.9 1.4l-.6 1.4c-.1.1-.1.2-.2.2h-.7v-.1l1.5-3.4s0-.1-.1-.1h-.2c-.1 0-.1 0-.1-.1 0 0 .2-.1.5-.1s.5 0 .6-.1h.1s.1 0 .1.1c0 0 0 .1-.1.3l-.3.8c.5-.8 1-1.1 1.4-1.1.3 0 .4.1.4.4z" fill="#ffffff"/>
        <path d="M148.4 44c0 .1 0 .2-.1.3-.1.1-.2.1-.3.1-.2 0-.3-.1-.3-.3v-.2c0-.1-.1-.2-.2-.2s-.5.3-1 .9c-.2.2-.3.4-.4.4-.1 0-.1.1-.2.1h.2c.4.1.7.3.7.6 0 .2 0 .5-.1.9v.4c0 .1.1.2.2.2.2 0 .3-.1.5-.3.2-.2.3-.4.4-.7 0-.1.1-.2.1-.2s.1 0 .1.1-.1.3-.3.6c-.2.4-.6.7-1 .7s-.6-.2-.6-.6c0-.2 0-.5.1-.9v-.4c0-.1-.1-.2-.2-.3h-.6l-.9 2.1-.1.1h-.7s-.1 0-.1-.1v-.1s0-.1.1-.2l2.2-5.2c0-.1 0-.1.1-.2l.1-.2v-.1c0-.1-.1-.1-.2-.1h-.4c-.1 0-.1 0-.1-.1 0 0 0-.1.1-.1h.4c.5 0 .8 0 1-.1h.1s-.1.2-.2.5l-1.3 3c0 .1-.1.3-.2.5h.3c.1 0 .2 0 .3-.1l.5-.5c.3-.4.6-.6.8-.8.2-.1.4-.2.5-.2.5.2.7.4.7.7z" fill="#ffffff"/>
        <path d="M151.8 44.2c0 .3-.2.6-.5.8-.3.2-.8.3-1.3.3h-.6c-.2.5-.3.9-.3 1.3 0 .5.2.8.7.8.4 0 .7-.2 1-.6.1-.1.1-.1.2-.1 0 .1-.1.3-.4.5-.3.2-.6.3-1 .3s-.7-.1-.9-.3c-.2-.2-.4-.5-.4-.8 0-.7.4-1.3 1.1-1.9.6-.5 1.2-.8 1.7-.8.5-.1.7.1.7.5zm-.6-.2c0-.2-.1-.3-.3-.3-.2 0-.4.1-.6.2-.3.3-.6.6-.9 1.2h.2c.3 0 .6-.1 1-.3.4-.2.6-.4.6-.8z" fill="#ffffff"/>
        <path d="M154.5 43.7c0 .1-.1.1-.4.1h-.5l-1.2 2.7c-.1.3-.2.5-.2.5 0 .1.1.2.3.2.3 0 .5-.1.7-.4 0-.1.1-.1.1-.1s.1 0 .1.1-.1.2-.3.4c-.2.2-.5.3-.8.3-.2 0-.4-.1-.5-.2-.1-.1-.2-.2-.2-.4 0-.1.1-.3.2-.6l1.2-2.5h-.4c-.1 0-.2 0-.2-.1s0-.1.1-.1h.4l.2-.4c.1-.1.1-.2.1-.2h.2c.1 0 .2 0 .3-.1h.1l-.1.2-.2.4h.6c.3.1.3.1.4.2 0-.1 0 0 0 0z" fill="#ffffff"/>
        <path d="M156 43.7v.1c0 .1-.1.2-.2.4l-1 2.3c-.1.3-.2.5-.2.6 0 .2.1.2.2.2s.2 0 .4-.1c.1-.1.3-.2.3-.3l.1-.1s.1 0 .1.1-.1.2-.2.3c-.2.2-.5.3-.8.3-.2 0-.4-.1-.5-.2-.1-.1-.2-.2-.2-.4 0-.1.1-.4.2-.7l.9-2c0-.1.1-.2.1-.2v-.1c0-.1-.1-.1-.4-.1 0 0-.1 0-.1-.1s0-.1.1-.1h.5c.2 0 .4 0 .5-.1.1.1.2.1.2.2 0-.1 0-.1 0 0zm.7-1.7c0 .2-.1.4-.3.4-.1 0-.2 0-.3-.1-.1-.1-.1-.2-.1-.3 0-.2.1-.4.4-.4.1 0 .3.2.3.4z" fill="#ffffff"/>
        <path d="M160 44.3c0 .1-.1.4-.2.7l-.7 1.6c-.1.2-.1.3-.1.4 0 .1.1.2.2.2.2 0 .4-.1.7-.4h.2c0 .1-.1.2-.3.3-.3.2-.6.3-.9.3-.2 0-.3 0-.5-.1-.1-.1-.2-.2-.2-.3 0-.1.1-.3.2-.5l.7-1.6c.2-.4.3-.6.3-.8 0-.2-.1-.3-.3-.3-.3 0-.6.2-1 .6-.3.3-.5.7-.8 1.2l-.7 1.7c0 .1-.1.1-.1.1h-.7v-.1l.1-.1 1.3-3.2v-.1s-.1-.1-.2-.1c-.2 0-.3 0-.3-.1 0 0 0-.1.1-.1h.4c.3 0 .5 0 .6-.1h.1s.1 0 .1.1l-.3.8c0-.1.1-.1.2-.2.4-.5.9-.7 1.3-.7.2 0 .4.1.6.2.1.2.2.4.2.6z" fill="#ffffff"/>
        <path d="M164.5 43.9c0 .2-.1.3-.3.3-.2 0-.2-.1-.2-.2v-.2h-.1c-.1 0-.1.1-.3.2-.1.1-.2.2-.2.3v.1c.1.2.1.3.1.5 0 .4-.1.8-.4 1.1-.3.3-.7.4-1.1.4-.3 0-.6-.1-.9-.3-.5.2-.7.3-.7.5 0 .1.1.2.3.2.3.1.5.1.6.1h.7c.3 0 .6 0 .7.1.4.1.7.4.7 1 0 .5-.2.9-.5 1.2-.4.4-.9.5-1.5.5-.5 0-.9-.1-1.2-.3-.4-.3-.6-.6-.6-.9 0-.2.1-.4.3-.6.1-.1.3-.2.7-.3-.3-.1-.5-.3-.5-.6 0-.4.3-.8 1-1-.2-.2-.3-.5-.3-.8 0-.5.2-.8.5-1.2.3-.3.7-.5 1.2-.5.4 0 .7.2.9.5.2-.3.4-.5.7-.5.3.1.4.2.4.4zm-1.3 4.4c0-.1 0-.3-.1-.4-.1-.1-.2-.2-.4-.2s-.5-.1-.9-.1h-1c-.4.2-.5.5-.5.9 0 .3.1.6.3.8.2.2.5.3.9.3.5 0 .8-.1 1.2-.4.4-.3.5-.6.5-.9zm-.1-3.9c0-.4-.2-.6-.5-.6s-.5.2-.8.7c-.2.4-.3.8-.3 1.2 0 .4.2.6.6.6.3 0 .5-.2.7-.7.2-.5.3-.9.3-1.2z" fill="#ffffff"/>
        <path d="M167.2 45.4c0 .2 0 .3-.1.4s-.2.1-.4.1c-.3 0-.5-.1-.5-.4 0-.2.1-.3.2-.4.1-.1.2-.2.4-.2.3 0 .4.2.4.5z" fill="#ffffff"/>
        <path fill="none" d="M330.1-3.8V59H147.2V-3.8h182.9z"/>
        <text transform="translate(215.644 2.895)">
            <tspan y="0" x="0" font-size="9" font-family="Montserrat-Light" fill="#9d9d9c">the </tspan><tspan y="0" x="20.7" font-size="9" font-family="Montserrat-Light" fill="#ffffff">relevance </tspan><tspan y="0" x="79.1" font-size="9" font-family="Montserrat-Light" fill="#9d9d9c">house.</tspan>
        </text>
        <path fill="none" d="M329.8 14.8v16.9H220V14.8h109.8z"/>
        <text transform="translate(251.94 19.074)" font-family="BodoniSvtyTwoITCTT-BookIta" font-size="6" fill="#ffffff">
            · agency for blockchain marketing ·
        </text>
        <path fill="#c6c6c6" d="M43.8 19.2c0 8.45-6.85 15.3-15.3 15.3-8.45 0-15.3-6.85-15.3-15.3 0-8.45 6.85-15.3 15.3-15.3 8.45 0 15.3 6.85 15.3 15.3z"/>
        <path fill="#9d9d9c" d="M51.9 33.4c0 8.45-6.85 15.3-15.3 15.3-8.45 0-15.3-6.85-15.3-15.3 0-8.45 6.85-15.3 15.3-15.3 8.45 0 15.3 6.85 15.3 15.3z"/>
        <path opacity=".7" fill="#1a1a1a" d="M36.1 33.4c0 8.45-6.85 15.3-15.3 15.3-8.45 0-15.3-6.85-15.3-15.3 0-8.45 6.85-15.3 15.3-15.3 8.45 0 15.3 6.85 15.3 15.3z"/>
        <path fill="#706f6f" d="M36.1 33.4c0 8.45-6.85 15.3-15.3 15.3-8.45 0-15.3-6.85-15.3-15.3 0-8.45 6.85-15.3 15.3-15.3 8.45 0 15.3 6.85 15.3 15.3z"/>
        <path opacity=".3" d="M-175-353.5c0 11.377-9.223 20.6-20.6 20.6s-20.6-9.223-20.6-20.6 9.223-20.6 20.6-20.6 20.6 9.223 20.6 20.6z"/>
        <path opacity=".5" d="M-164.1-334.9c0 11.377-9.223 20.6-20.6 20.6s-20.6-9.223-20.6-20.6 9.223-20.6 20.6-20.6 20.6 9.223 20.6 20.6z"/>
        <path opacity=".7" d="M-185.4-334.5c0 11.377-9.223 20.6-20.6 20.6s-20.6-9.223-20.6-20.6 9.223-20.6 20.6-20.6 20.6 9.223 20.6 20.6z"/>
        <path fill="none" stroke="#00b497" stroke-width=".5" d="M-175-353.5c0 11.377-9.223 20.6-20.6 20.6s-20.6-9.223-20.6-20.6 9.223-20.6 20.6-20.6 20.6 9.223 20.6 20.6z"/>
        <path fill="none" stroke="#00b497" stroke-width=".5" d="M-164.1-334.9c0 11.377-9.223 20.6-20.6 20.6s-20.6-9.223-20.6-20.6 9.223-20.6 20.6-20.6 20.6 9.223 20.6 20.6z"/>
        <path fill="none" stroke="#00b497" stroke-width=".5" d="M-185.4-334.5c0 11.377-9.223 20.6-20.6 20.6s-20.6-9.223-20.6-20.6 9.223-20.6 20.6-20.6 20.6 9.223 20.6 20.6z"/>
        <path d="M29.1 20.3c-.2-.1 6-4.3 14.6-.4 0 4-2.9 9.7-7.5 12.1-.9-7-4.3-9.5-7.1-11.7z" fill="#333333"/>
        <path d="M28.1 20.3c.2-.1-6.2-4.1-14.7-.3 0 4 3.3 9.9 7.9 12.3.8-6.9 4-9.8 6.8-12z" fill="#333333"/>
        <path d="M21.3 32.6c-.2.1-.5-6.8 7.3-12 3.4 2.1 7.6 6.8 7.2 11.9-4.5 1.9-8.1 3.4-14.5.1z"/>
        <path d="M35.8 32.6c.2-.1.8 8.5-7.1 13.7-3.8-1.5-7.9-8.5-7.4-13.6 6.5 3.3 9.7 1.7 14.5-.1z" fill="#1a1a1a"/>
        <path fill="none" stroke="#00b497" stroke-width=".5" d="M43.8 19.2c0 8.45-6.85 15.3-15.3 15.3-8.45 0-15.3-6.85-15.3-15.3 0-8.45 6.85-15.3 15.3-15.3 8.45 0 15.3 6.85 15.3 15.3z"/>
        <path fill="none" stroke="#00b497" stroke-width=".5" d="M51.9 33.4c0 8.45-6.85 15.3-15.3 15.3-8.45 0-15.3-6.85-15.3-15.3 0-8.45 6.85-15.3 15.3-15.3 8.45 0 15.3 6.85 15.3 15.3z"/>
        <path fill="none" stroke="#00b497" stroke-width=".5" d="M36.1 33.4c0 8.45-6.85 15.3-15.3 15.3-8.45 0-15.3-6.85-15.3-15.3 0-8.45 6.85-15.3 15.3-15.3 8.45 0 15.3 6.85 15.3 15.3z"/>
    </g>
</svg>
