<?xml version="1.0" encoding="UTF-8"?>
<svg viewBox="0 0 172.4 59.7" xmlns="http://www.w3.org/2000/svg" data-type="ugc">
    <g>
        <path fill="none" d="M166.4 27v62.8H-16.5V27h182.9z"/>
        <text transform="translate(51.956 33.656)">
            <tspan y="0" x="0" font-size="9" font-family="Montserrat-Light" fill="#9d9d9c">the </tspan><tspan y="0" x="20.7" font-size="9" font-family="Montserrat-Light" fill="#ffffff">relevance </tspan><tspan y="0" x="79.1" font-size="9" font-family="Montserrat-Light" fill="#9d9d9c">house.</tspan>
        </text>
        <path fill="none" stroke="#00b497" d="M104.7 40.8h61.4"/>
        <path fill="none" d="M166.1 45.6v16.9H56.3V45.6h109.8z"/>
        <text transform="translate(88.252 49.836)" font-size="6" font-family="BodoniSvtyTwoITCTT-BookIta" fill="#ffffff">
            · agency for blockchain marketing ·
        </text>
        <path fill="#c6c6c6" d="M42.4 20.9c0 8.45-6.85 15.3-15.3 15.3-8.45 0-15.3-6.85-15.3-15.3 0-8.45 6.85-15.3 15.3-15.3 8.45 0 15.3 6.85 15.3 15.3z"/>
        <path fill="#9d9d9c" d="M50.4 35.1c0 8.45-6.85 15.3-15.3 15.3-8.45 0-15.3-6.85-15.3-15.3 0-8.45 6.85-15.3 15.3-15.3 8.45 0 15.3 6.85 15.3 15.3z"/>
        <path opacity=".7" fill="#1a1a1a" d="M34.6 35.1c0 8.45-6.85 15.3-15.3 15.3C10.85 50.4 4 43.55 4 35.1c0-8.45 6.85-15.3 15.3-15.3 8.45 0 15.3 6.85 15.3 15.3z"/>
        <path fill="#706f6f" d="M34.6 35.1c0 8.45-6.85 15.3-15.3 15.3C10.85 50.4 4 43.55 4 35.1c0-8.45 6.85-15.3 15.3-15.3 8.45 0 15.3 6.85 15.3 15.3z"/>
        <path opacity=".3" d="M-176.4-351.8c0 11.377-9.223 20.6-20.6 20.6s-20.6-9.223-20.6-20.6 9.223-20.6 20.6-20.6 20.6 9.223 20.6 20.6z"/>
        <path opacity=".5" d="M-165.5-333.2c0 11.377-9.223 20.6-20.6 20.6s-20.6-9.223-20.6-20.6 9.223-20.6 20.6-20.6 20.6 9.223 20.6 20.6z"/>
        <path opacity=".7" d="M-186.9-332.8c0 11.377-9.223 20.6-20.6 20.6s-20.6-9.223-20.6-20.6 9.223-20.6 20.6-20.6 20.6 9.223 20.6 20.6z"/>
        <path fill="none" stroke="#00b497" stroke-width=".5" d="M-176.4-351.8c0 11.377-9.223 20.6-20.6 20.6s-20.6-9.223-20.6-20.6 9.223-20.6 20.6-20.6 20.6 9.223 20.6 20.6z"/>
        <path fill="none" stroke="#00b497" stroke-width=".5" d="M-165.5-333.2c0 11.377-9.223 20.6-20.6 20.6s-20.6-9.223-20.6-20.6 9.223-20.6 20.6-20.6 20.6 9.223 20.6 20.6z"/>
        <path fill="none" stroke="#00b497" stroke-width=".5" d="M-186.9-332.8c0 11.377-9.223 20.6-20.6 20.6s-20.6-9.223-20.6-20.6 9.223-20.6 20.6-20.6 20.6 9.223 20.6 20.6z"/>
        <path d="M27.6 22c-.2-.1 6-4.3 14.6-.4 0 4-2.9 9.7-7.5 12.1-.8-7-4.3-9.5-7.1-11.7z" fill="#333333"/>
        <path d="M26.6 22c.2-.1-6.2-4.1-14.7-.3 0 4 3.3 9.9 7.9 12.3.9-7 4-9.8 6.8-12z" fill="#333333"/>
        <path d="M19.9 34.3c-.2.1-.5-6.8 7.3-12 3.4 2.1 7.6 6.8 7.2 11.9-4.6 1.9-8.1 3.4-14.5.1z"/>
        <path d="M34.4 34.3c.2-.1.8 8.5-7.1 13.7-3.8-1.5-7.9-8.5-7.4-13.6 6.5 3.3 9.7 1.7 14.5-.1z" fill="#1a1a1a"/>
        <path fill="none" stroke="#00b497" stroke-width=".5" d="M42.4 20.9c0 8.45-6.85 15.3-15.3 15.3-8.45 0-15.3-6.85-15.3-15.3 0-8.45 6.85-15.3 15.3-15.3 8.45 0 15.3 6.85 15.3 15.3z"/>
        <path fill="none" stroke="#00b497" stroke-width=".5" d="M50.4 35.1c0 8.45-6.85 15.3-15.3 15.3-8.45 0-15.3-6.85-15.3-15.3 0-8.45 6.85-15.3 15.3-15.3 8.45 0 15.3 6.85 15.3 15.3z"/>
        <path fill="none" stroke="#00b497" stroke-width=".5" d="M34.6 35.1c0 8.45-6.85 15.3-15.3 15.3C10.85 50.4 4 43.55 4 35.1c0-8.45 6.85-15.3 15.3-15.3 8.45 0 15.3 6.85 15.3 15.3z"/>
    </g>
</svg>
