<?xml version="1.0" encoding="utf-8"?>
<!-- Generator: Adobe Illustrator 22.1.0, SVG Export Plug-In . SVG Version: 6.00 Build 0)  -->
<svg version="1.1" id="Ebene_1" xmlns="http://www.w3.org/2000/svg" xmlns:xlink="http://www.w3.org/1999/xlink" x="0px" y="0px"
	 viewBox="0 0 172.7 53.8" style="enable-background:new 0 0 172.7 53.8;" xml:space="preserve">
<style type="text/css">
	.st0{fill:none;stroke:#00B497;}
	.st1{fill:none;}
	.st2{fill:#C6C6C6;}
	.st3{fill:#9D9D9C;}
	.st4{opacity:0.7;fill:#1A1A1A;enable-background:new    ;}
	.st5{fill:#706F6F;}
	.st6{fill:#333333;}
	.st7{fill:#1A1A1A;}
	.st8{fill:none;stroke:#00B497;stroke-width:0.5;}
	.st9{fill:#9C9B9B;}
	.st10{fill:#FFFFFF;}
</style>
<g id="claim_x2F_url">
</g>
<line class="st0" x1="54" y1="38.4" x2="167.5" y2="38.4"/>
<rect x="188.5" y="35.7" class="st1" width="109.8" height="16.9"/>
<circle class="st2" cx="28.5" cy="19.2" r="15.3"/>
<circle class="st3" cx="36.6" cy="33.4" r="15.3"/>
<circle class="st4" cx="20.8" cy="33.4" r="15.3"/>
<circle class="st5" cx="20.8" cy="33.4" r="15.3"/>
<path class="st6" d="M29.1,20.3c-0.2-0.1,6-4.3,14.6-0.4c0,4-2.9,9.7-7.5,12.1C35.3,25,31.9,22.5,29.1,20.3z"/>
<path class="st6" d="M28.1,20.3c0.2-0.1-6.2-4.1-14.7-0.3c0,4,3.3,9.9,7.9,12.3C22.1,25.4,25.3,22.5,28.1,20.3z"/>
<path d="M21.3,32.6c-0.2,0.1-0.5-6.8,7.3-12c3.4,2.1,7.6,6.8,7.2,11.9C31.3,34.4,27.7,35.9,21.3,32.6z"/>
<path class="st7" d="M35.8,32.6c0.2-0.1,0.8,8.5-7.1,13.7c-3.8-1.5-7.9-8.5-7.4-13.6C27.8,36,31,34.4,35.8,32.6z"/>
<circle class="st8" cx="28.5" cy="19.2" r="15.3"/>
<circle class="st8" cx="36.6" cy="33.4" r="15.3"/>
<circle class="st8" cx="20.8" cy="33.4" r="15.3"/>
<path class="st9" d="M56,25.9h-2c-0.1,0-0.2-0.1-0.2-0.2c0-0.1,0.1-0.2,0.2-0.2h4.5c0.1,0,0.2,0.1,0.2,0.2c0,0.1-0.1,0.2-0.2,0.2h-2
	v6c0,0.1-0.1,0.2-0.2,0.2c-0.1,0-0.2-0.1-0.2-0.2V25.9z"/>
<path class="st9" d="M64.3,29h-3.4v2.9c0,0.1-0.1,0.2-0.2,0.2c-0.1,0-0.2-0.1-0.2-0.2v-6.2c0-0.1,0.1-0.2,0.2-0.2
	c0.1,0,0.2,0.1,0.2,0.2v2.9h3.4v-2.9c0-0.1,0.1-0.2,0.2-0.2c0.1,0,0.2,0.1,0.2,0.2v6.2c0,0.1-0.1,0.2-0.2,0.2
	c-0.1,0-0.2-0.1-0.2-0.2V29z"/>
<path class="st9" d="M67.2,25.6c0-0.1,0.1-0.2,0.2-0.2h0h3.4c0.1,0,0.2,0.1,0.2,0.2c0,0.1-0.1,0.2-0.2,0.2h-3.2v2.6h2.8
	c0.1,0,0.2,0.1,0.2,0.2c0,0.1-0.1,0.2-0.2,0.2h-2.8v2.6h3.2c0.1,0,0.2,0.1,0.2,0.2c0,0.1-0.1,0.2-0.2,0.2h-3.4h0h0
	c-0.1,0-0.2-0.1-0.2-0.2V25.6z"/>
<path class="st10" d="M79,30.6c0-1-1.1-1.4-1.4-1.4H76v2.6c0,0.1-0.1,0.2-0.2,0.2c-0.1,0-0.2-0.1-0.2-0.2v-6.2
	c0-0.1,0.1-0.2,0.2-0.2h0h0h1.9c1,0,1.9,0.8,1.9,1.9c0,0.8-0.4,1.4-1.1,1.7c0,0,0.1,0,0.1,0c0.4,0.2,0.9,0.7,0.9,1.5
	c0,0.4,0,1.2,0,1.3c0,0.1-0.1,0.2-0.2,0.2C79,32.1,79,32,79,31.8C79,31.8,79,31.1,79,30.6z M77.6,25.9H76v2.9h1.6h0.1
	c0.8,0,1.4-0.7,1.4-1.4C79.1,26.5,78.4,25.9,77.6,25.9z"/>
<path class="st10" d="M81.6,25.6c0-0.1,0.1-0.2,0.2-0.2h0h3.4c0.1,0,0.2,0.1,0.2,0.2c0,0.1-0.1,0.2-0.2,0.2h-3.2v2.6h2.8
	c0.1,0,0.2,0.1,0.2,0.2c0,0.1-0.1,0.2-0.2,0.2h-2.8v2.6h3.2c0.1,0,0.2,0.1,0.2,0.2c0,0.1-0.1,0.2-0.2,0.2h-3.4h0h0
	c-0.1,0-0.2-0.1-0.2-0.2V25.6z"/>
<path class="st10" d="M87.5,32.1L87.5,32.1c-0.1,0-0.2-0.1-0.2-0.2v-6.2c0-0.1,0.1-0.2,0.2-0.2c0.1,0,0.2,0.1,0.2,0.2v6h3.2
	c0.1,0,0.2,0.1,0.2,0.2c0,0.1-0.1,0.2-0.2,0.2H87.5z"/>
<path class="st10" d="M92.6,25.6c0-0.1,0.1-0.2,0.2-0.2h0h3.4c0.1,0,0.2,0.1,0.2,0.2c0,0.1-0.1,0.2-0.2,0.2H93v2.6h2.8
	c0.1,0,0.2,0.1,0.2,0.2c0,0.1-0.1,0.2-0.2,0.2H93v2.6h3.2c0.1,0,0.2,0.1,0.2,0.2c0,0.1-0.1,0.2-0.2,0.2h-3.4h0h0
	c-0.1,0-0.2-0.1-0.2-0.2V25.6z"/>
<path class="st10" d="M100.4,31.9C100.4,31.9,100.4,31.9,100.4,31.9L100.4,31.9l-2.6-6.2c0-0.1,0-0.3,0.1-0.3c0.1-0.1,0.3,0,0.3,0.1
	l2.4,5.7l2.4-5.7c0-0.1,0.2-0.2,0.3-0.1c0.1,0,0.2,0.2,0.1,0.3l-2.6,6.1c0,0.1-0.1,0.2-0.1,0.2h0c0,0-0.1,0-0.1,0c0,0-0.1,0-0.1,0
	c0,0,0,0,0,0C100.4,32,100.4,32,100.4,31.9z"/>
<path class="st10" d="M107.7,30.3h-3l-0.6,1.6c0,0.1-0.1,0.2-0.2,0.2c0,0-0.1,0-0.1,0c-0.1,0-0.2-0.2-0.1-0.3l2.3-6.2
	c0-0.1,0.1-0.1,0.2-0.1c0.1,0,0.2,0.1,0.2,0.1l2.3,6.2c0,0.1,0,0.3-0.1,0.3c0,0-0.1,0-0.1,0c-0.1,0-0.2-0.1-0.2-0.2L107.7,30.3z
	 M104.8,29.9h2.7l-1.3-3.6L104.8,29.9z"/>
<path class="st10" d="M110.6,26.4v5.4c0,0.1-0.1,0.2-0.2,0.2c-0.1,0-0.2-0.1-0.2-0.2v-6.1c0-0.1,0-0.2,0.1-0.3
	c0.1-0.1,0.3,0,0.3,0.1l4,5.6v-5.4c0-0.1,0.1-0.2,0.2-0.2c0.1,0,0.2,0.1,0.2,0.2v6.1c0,0.1-0.1,0.2-0.2,0.2c-0.1,0-0.1,0-0.2-0.1
	c0,0,0,0,0,0L110.6,26.4z"/>
<path class="st10" d="M120.6,25.3c0.8,0,1.6,0.3,2.1,0.7c0.1,0.1,0.1,0.2,0,0.3c-0.1,0.1-0.2,0.1-0.3,0c-0.5-0.4-1.2-0.6-1.9-0.6
	c-1.7,0-3,1.3-3,2.9c0,1.6,1.3,2.9,3,2.9c0.7,0,1.3-0.2,1.8-0.6c0.1-0.1,0.3-0.1,0.3,0.1c0.1,0.1,0.1,0.3,0,0.3
	c-0.6,0.4-1.3,0.7-2.1,0.7c-1.9,0-3.5-1.5-3.5-3.4C117.2,26.8,118.7,25.3,120.6,25.3z"/>
<path class="st10" d="M124.8,25.6c0-0.1,0.1-0.2,0.2-0.2h0h3.4c0.1,0,0.2,0.1,0.2,0.2c0,0.1-0.1,0.2-0.2,0.2h-3.2v2.6h2.8
	c0.1,0,0.2,0.1,0.2,0.2c0,0.1-0.1,0.2-0.2,0.2h-2.8v2.6h3.2c0.1,0,0.2,0.1,0.2,0.2c0,0.1-0.1,0.2-0.2,0.2H125h0h0
	c-0.1,0-0.2-0.1-0.2-0.2V25.6z"/>
<path class="st9" d="M137.1,29h-3.4v2.9c0,0.1-0.1,0.2-0.2,0.2c-0.1,0-0.2-0.1-0.2-0.2v-6.2c0-0.1,0.1-0.2,0.2-0.2
	c0.1,0,0.2,0.1,0.2,0.2v2.9h3.4v-2.9c0-0.1,0.1-0.2,0.2-0.2c0.1,0,0.2,0.1,0.2,0.2v6.2c0,0.1-0.1,0.2-0.2,0.2
	c-0.1,0-0.2-0.1-0.2-0.2V29z"/>
<path class="st9" d="M142.6,25.3c1.8,0,3.2,1.5,3.2,3.4c0,1.9-1.4,3.4-3.2,3.4c-1.8,0-3.2-1.5-3.2-3.4
	C139.4,26.8,140.8,25.3,142.6,25.3z M142.6,31.6c1.5,0,2.7-1.3,2.7-2.9c0-1.6-1.2-2.9-2.7-2.9c-1.5,0-2.7,1.3-2.7,2.9
	C139.9,30.3,141.1,31.6,142.6,31.6z"/>
<path class="st9" d="M147.4,25.6c0-0.1,0.1-0.2,0.2-0.2c0.1,0,0.2,0.1,0.2,0.2v3.7c0,1.2,1,2.2,2.2,2.2c1.2,0,2.2-1,2.2-2.2v-3.7
	c0-0.1,0.1-0.2,0.2-0.2c0.1,0,0.2,0.1,0.2,0.2v3.7c0,1.5-1.2,2.7-2.7,2.7c-1.5,0-2.7-1.2-2.7-2.7V25.6z"/>
<path class="st9" d="M154.8,30.8c0.1-0.1,0.2-0.1,0.3,0c0.5,0.4,1.3,0.9,2.2,0.9c0.6,0,1.1-0.2,1.5-0.4c0.4-0.3,0.6-0.6,0.6-1
	c0-0.4-0.2-0.7-0.5-0.9c-0.4-0.2-0.9-0.4-1.5-0.5h0c-0.6-0.1-1.2-0.3-1.6-0.6c-0.4-0.3-0.7-0.7-0.7-1.2c0-0.5,0.3-0.9,0.7-1.2
	s1-0.5,1.6-0.5c0.9,0,1.5,0.4,2.1,0.8c0.1,0.1,0.1,0.2,0.1,0.3c-0.1,0.1-0.2,0.1-0.3,0.1c-0.5-0.3-1.1-0.7-1.8-0.7
	c-0.5,0-1,0.2-1.4,0.4c-0.3,0.2-0.5,0.6-0.5,0.9c0,0.3,0.2,0.6,0.5,0.8c0.3,0.2,0.8,0.4,1.4,0.5h0c0.7,0.1,1.3,0.3,1.7,0.6
	c0.4,0.3,0.7,0.7,0.7,1.3c0,0.5-0.3,1-0.8,1.3c-0.4,0.3-1,0.5-1.7,0.5c-1,0-1.9-0.5-2.4-1C154.7,31,154.7,30.9,154.8,30.8z"/>
<path class="st9" d="M161.4,25.6c0-0.1,0.1-0.2,0.2-0.2h0h3.4c0.1,0,0.2,0.1,0.2,0.2c0,0.1-0.1,0.2-0.2,0.2h-3.2v2.6h2.8
	c0.1,0,0.2,0.1,0.2,0.2c0,0.1-0.1,0.2-0.2,0.2h-2.8v2.6h3.2c0.1,0,0.2,0.1,0.2,0.2c0,0.1-0.1,0.2-0.2,0.2h-3.4h0h0
	c-0.1,0-0.2-0.1-0.2-0.2V25.6z"/>
<path class="st9" d="M167.3,31.1c0.3,0,0.5,0.2,0.5,0.5c0,0.3-0.2,0.5-0.5,0.5c-0.3,0-0.5-0.2-0.5-0.5
	C166.8,31.3,167,31.1,167.3,31.1z"/>
<g>
	<path class="st10" d="M71.6,46.2c0,0.1,0,0.2-0.1,0.2c-0.1,0.1-0.1,0.1-0.2,0.1c-0.2,0-0.3-0.1-0.3-0.3c0-0.1,0-0.2,0.1-0.2
		c0.1-0.1,0.1-0.1,0.2-0.1C71.6,45.9,71.6,46,71.6,46.2z"/>
	<path class="st10" d="M75.3,45.8c0,0.4-0.2,0.8-0.5,1.1c-0.4,0.4-0.8,0.5-1.2,0.5c-0.2,0-0.3,0-0.5-0.2c-0.1-0.1-0.2-0.2-0.2-0.4
		c0-0.1,0.1-0.2,0.2-0.5l1.1-2.5c0,0,0-0.1,0-0.1c0,0,0,0,0,0c0,0-0.1-0.1-0.3,0c0,0,0,0,0,0c0,0,0,0,0.1,0c0.3,0,0.5,0,0.5,0l0.1,0
		h0c0,0,0,0,0,0c0,0,0,0,0,0c0,0.1-0.1,0.1-0.1,0.2l-0.5,1.2c0,0.1-0.1,0.2-0.1,0.3c0,0,0,0,0.1,0l0.1-0.1c0.1-0.1,0.3-0.2,0.5-0.2
		c0.2,0,0.3,0.1,0.5,0.2C75.2,45.5,75.3,45.6,75.3,45.8z M74.9,45.6c0-0.2-0.1-0.4-0.3-0.4c-0.4,0-0.7,0.3-1,1l-0.1,0.3
		c-0.1,0.3-0.2,0.5-0.2,0.6c0,0.1,0.1,0.2,0.3,0.2c0.3,0,0.7-0.3,0.9-0.8C74.7,46.2,74.9,45.8,74.9,45.6z"/>
	<path class="st10" d="M77.2,43.7C77.2,43.7,77.2,43.8,77.2,43.7c0,0.1-0.1,0.1-0.1,0.2L76,46.8c-0.1,0.2-0.1,0.4-0.1,0.4
		c0,0.1,0.1,0.1,0.2,0.1c0.1,0,0.3-0.1,0.4-0.2c0.1-0.1,0.1-0.1,0.1-0.1c0,0,0,0,0,0c0,0-0.1,0.1-0.2,0.2c-0.1,0.1-0.3,0.2-0.5,0.2
		c-0.3,0-0.4-0.1-0.4-0.3c0-0.1,0-0.2,0.1-0.4l1.2-2.9c0,0,0,0,0,0c0,0,0,0-0.1,0c-0.2,0-0.2,0-0.2,0c0,0,0,0,0,0s0.1,0,0.1,0
		s0.1,0,0.1,0c0.2,0,0.3,0,0.3,0C77.1,43.7,77.1,43.7,77.2,43.7C77.2,43.7,77.2,43.7,77.2,43.7z"/>
	<path class="st10" d="M78.9,46c0,0.4-0.2,0.8-0.6,1.1c-0.3,0.3-0.6,0.4-0.9,0.4c-0.2,0-0.4-0.1-0.5-0.2c-0.1-0.2-0.2-0.3-0.2-0.6
		c0-0.2,0.1-0.4,0.2-0.6c0.1-0.2,0.3-0.4,0.5-0.5c0.3-0.2,0.6-0.4,0.9-0.4c0.2,0,0.4,0.1,0.5,0.2C78.9,45.5,78.9,45.7,78.9,46z
		 M78.5,45.6c0-0.3-0.1-0.4-0.4-0.4c-0.3,0-0.5,0.2-0.8,0.6c-0.2,0.4-0.3,0.8-0.3,1.1c0,0.3,0.1,0.4,0.4,0.4c0.3,0,0.5-0.2,0.7-0.6
		C78.4,46.4,78.5,46,78.5,45.6z"/>
	<path class="st10" d="M81.1,45.5c0,0.2-0.1,0.3-0.2,0.3c0,0-0.1,0-0.1-0.1c0,0-0.1-0.1-0.1-0.1c0-0.1,0-0.1,0.1-0.1l0,0
		c0,0,0,0,0.1,0c0,0,0,0,0-0.1c0-0.1,0-0.1-0.1-0.2c-0.1,0-0.1-0.1-0.2-0.1c-0.3,0-0.5,0.2-0.8,0.6c-0.2,0.4-0.4,0.8-0.4,1.1
		c0,0.3,0.1,0.4,0.4,0.4c0.2,0,0.4-0.1,0.6-0.4c0,0,0.1-0.1,0.1-0.1c0,0,0,0,0,0c0,0,0,0.1-0.1,0.2c-0.2,0.2-0.4,0.3-0.7,0.3
		c-0.2,0-0.4-0.1-0.6-0.2c-0.1-0.1-0.2-0.3-0.2-0.5c0-0.4,0.2-0.7,0.6-1.1c0.3-0.3,0.7-0.5,1-0.5c0.1,0,0.2,0,0.3,0.1
		C81.1,45.3,81.1,45.4,81.1,45.5z"/>
	<path class="st10" d="M83.6,45.4c0,0.1,0,0.1-0.1,0.2c0,0-0.1,0.1-0.2,0.1c-0.1,0-0.2-0.1-0.2-0.2v-0.1c0-0.1,0-0.1-0.1-0.1
		c-0.1,0-0.3,0.2-0.6,0.5c-0.1,0.1-0.2,0.2-0.2,0.2c0,0-0.1,0.1-0.1,0.1l0.1,0c0.3,0,0.4,0.2,0.4,0.4c0,0.1,0,0.3-0.1,0.6
		c0,0.1,0,0.2,0,0.2c0,0.1,0,0.1,0.1,0.1c0.1,0,0.2-0.1,0.3-0.2s0.2-0.3,0.2-0.4c0-0.1,0-0.1,0.1-0.1c0,0,0,0,0,0
		c0,0.1-0.1,0.2-0.2,0.4c-0.1,0.3-0.3,0.4-0.6,0.4c-0.2,0-0.4-0.1-0.4-0.4c0-0.1,0-0.3,0.1-0.6c0-0.1,0-0.2,0-0.2
		c0-0.1,0-0.1-0.1-0.2c-0.1,0-0.1,0-0.2,0c0,0-0.1,0-0.2,0l-0.5,1.2l0,0l-0.1,0l-0.1,0l-0.1,0c0,0,0,0,0,0c0,0,0,0,0,0
		c0,0,0,0,0-0.1c0,0,0-0.1,0.1-0.1l1.3-3.1c0,0,0-0.1,0.1-0.1l0-0.1c0,0,0,0,0,0c0,0,0-0.1-0.1-0.1c0,0-0.1,0-0.1,0
		c-0.1,0-0.1,0-0.1,0c0,0-0.1,0-0.1,0c0,0,0,0,0,0c0,0,0.1,0,0.2,0c0.3,0,0.5,0,0.6,0c0,0,0,0,0.1,0c0,0,0,0,0,0c0,0,0,0.1-0.1,0.3
		L82,45.7c0,0.1-0.1,0.1-0.1,0.3H82c0.1,0,0.1,0,0.2,0c0,0,0.1-0.1,0.3-0.3c0.2-0.2,0.3-0.4,0.5-0.5c0.1-0.1,0.2-0.1,0.3-0.1
		C83.5,45.1,83.6,45.2,83.6,45.4z"/>
	<path class="st10" d="M85.6,45.5c0,0.2-0.1,0.3-0.2,0.3c0,0-0.1,0-0.1-0.1c0,0-0.1-0.1-0.1-0.1c0-0.1,0-0.1,0.1-0.1l0,0
		c0,0,0,0,0.1,0c0,0,0,0,0-0.1c0-0.1,0-0.1-0.1-0.2c-0.1,0-0.1-0.1-0.2-0.1c-0.3,0-0.5,0.2-0.8,0.6c-0.2,0.4-0.4,0.8-0.4,1.1
		c0,0.3,0.1,0.4,0.4,0.4c0.2,0,0.4-0.1,0.6-0.4c0,0,0.1-0.1,0.1-0.1c0,0,0,0,0,0c0,0,0,0.1-0.1,0.2c-0.2,0.2-0.4,0.3-0.7,0.3
		c-0.2,0-0.4-0.1-0.6-0.2c-0.1-0.1-0.2-0.3-0.2-0.5c0-0.4,0.2-0.7,0.6-1.1c0.3-0.3,0.7-0.5,1-0.5c0.1,0,0.2,0,0.3,0.1
		C85.6,45.3,85.6,45.4,85.6,45.5z"/>
	<path class="st10" d="M87.9,47c0,0,0,0.1-0.1,0.1c-0.2,0.2-0.5,0.3-0.7,0.3c-0.1,0-0.2,0-0.2-0.1c-0.1-0.1-0.1-0.1-0.1-0.2
		c0-0.1,0-0.2,0.1-0.4l0.5-1c0.1-0.2,0.1-0.3,0.1-0.3c0-0.1-0.1-0.2-0.2-0.2c-0.1,0-0.3,0.1-0.5,0.3c-0.2,0.2-0.3,0.3-0.4,0.4
		c-0.1,0.1-0.2,0.3-0.3,0.6l-0.3,0.8c0,0.1,0,0.1-0.1,0.1c0,0,0,0-0.1,0c0,0-0.1,0-0.1,0c-0.1,0-0.2,0-0.2,0c0,0,0,0,0,0
		c0,0,0,0,0,0c0,0,0,0,0-0.1l1.4-3.3c0.1-0.1,0.1-0.2,0.1-0.2c0,0,0,0,0,0c0,0-0.1,0-0.2,0c-0.1,0-0.1,0-0.1,0c0,0,0,0,0,0
		c0,0,0,0,0.1,0H87c0.1,0,0.2,0,0.2,0c0,0,0.1,0,0.1,0c0,0,0,0,0,0s0,0,0,0.1c0,0.1,0,0.1-0.1,0.1l-0.9,1.9c0.2-0.2,0.4-0.4,0.6-0.5
		c0.1-0.1,0.3-0.1,0.5-0.1c0.1,0,0.2,0,0.3,0.1c0.1,0.1,0.1,0.1,0.1,0.2c0,0.1,0,0.3-0.1,0.4L87.3,47c-0.1,0.1-0.1,0.2-0.1,0.2
		c0,0.1,0,0.1,0.1,0.1c0.1,0,0.3-0.1,0.5-0.3C87.8,47,87.8,47,87.9,47C87.9,47,87.9,47,87.9,47z"/>
	<path class="st10" d="M90.6,45.2c0,0,0,0,0,0.1l-0.7,1.6c-0.1,0.2-0.1,0.3-0.1,0.3c0,0.1,0,0.1,0.1,0.1c0.1,0,0.3-0.1,0.4-0.3
		c0,0,0-0.1,0.1-0.1c0,0,0,0,0,0c0,0,0,0.1-0.1,0.2c-0.2,0.2-0.3,0.2-0.6,0.2c-0.1,0-0.2,0-0.3-0.1c-0.1-0.1-0.1-0.1-0.1-0.2
		c0-0.1,0-0.1,0-0.2c-0.2,0.3-0.5,0.5-0.8,0.5c-0.2,0-0.3-0.1-0.4-0.2C88.1,47.2,88,47,88,46.8c0-0.2,0.1-0.4,0.2-0.7
		c0.1-0.2,0.3-0.5,0.5-0.7c0.3-0.3,0.6-0.4,0.8-0.4c0.3,0,0.4,0.1,0.4,0.4l0.1-0.3c0-0.1,0.1-0.1,0.1-0.1c0,0,0,0,0.1,0
		c0,0,0.1,0,0.1,0C90.5,45.2,90.5,45.2,90.6,45.2C90.6,45.1,90.6,45.1,90.6,45.2C90.6,45.1,90.6,45.1,90.6,45.2z M90,45.6
		c0-0.1,0-0.2-0.1-0.3c-0.1-0.1-0.1-0.1-0.2-0.1c-0.2,0-0.3,0.1-0.5,0.3c-0.2,0.2-0.3,0.5-0.4,0.7c-0.1,0.3-0.2,0.5-0.2,0.7
		c0,0.2,0.1,0.4,0.3,0.4c0.1,0,0.2-0.1,0.4-0.2c0.1-0.1,0.2-0.3,0.3-0.5l0.4-0.9C90,45.7,90,45.6,90,45.6z"/>
	<path class="st10" d="M91.9,45.2C91.9,45.2,91.9,45.2,91.9,45.2c-0.1,0.1-0.1,0.2-0.1,0.3l-0.6,1.4c-0.1,0.2-0.1,0.3-0.1,0.3
		c0,0.1,0,0.1,0.1,0.1c0.1,0,0.1,0,0.2-0.1c0.1,0,0.2-0.1,0.2-0.2c0,0,0.1-0.1,0.1-0.1c0,0,0,0,0,0c0,0,0,0.1-0.1,0.2
		c-0.1,0.1-0.3,0.2-0.5,0.2c-0.1,0-0.2,0-0.3-0.1c-0.1-0.1-0.1-0.1-0.1-0.2c0-0.1,0-0.2,0.1-0.4l0.5-1.2c0-0.1,0-0.1,0.1-0.1
		c0,0,0,0,0,0c0,0-0.1-0.1-0.2-0.1c0,0,0,0,0,0c0,0,0,0,0,0c0,0,0,0,0.1,0c0,0,0.1,0,0.2,0c0.1,0,0.3,0,0.3,0
		C91.8,45.1,91.9,45.1,91.9,45.2C91.9,45.1,91.9,45.1,91.9,45.2z M92.3,44.2c0,0.1-0.1,0.2-0.2,0.2c-0.1,0-0.1,0-0.2-0.1
		c0,0-0.1-0.1-0.1-0.2c0-0.1,0.1-0.2,0.2-0.2C92.2,44,92.3,44,92.3,44.2z"/>
	<path class="st10" d="M94.3,45.5c0,0.1,0,0.2-0.1,0.4l-0.4,1c0,0.1-0.1,0.2-0.1,0.2c0,0.1,0,0.1,0.1,0.1c0.1,0,0.2-0.1,0.4-0.2
		c0,0,0,0,0,0c0,0,0,0,0,0c0,0-0.1,0.1-0.2,0.2c-0.2,0.1-0.3,0.2-0.5,0.2c-0.1,0-0.2,0-0.3-0.1c-0.1,0-0.1-0.1-0.1-0.2
		c0-0.1,0-0.2,0.1-0.3l0.4-0.9c0.1-0.2,0.2-0.4,0.2-0.5c0-0.1-0.1-0.2-0.2-0.2c-0.2,0-0.4,0.1-0.6,0.3c-0.2,0.2-0.3,0.4-0.5,0.7
		l-0.4,1c0,0.1,0,0.1-0.1,0.1c0,0,0,0-0.1,0c0,0,0,0-0.1,0c0,0-0.1,0-0.1,0c0,0,0,0,0,0c0,0,0,0,0,0c0,0,0,0,0,0l0-0.1l0.8-1.9
		c0,0,0,0,0,0c0,0,0,0-0.1,0c-0.1,0-0.2,0-0.2-0.1c0,0,0,0,0.1,0c0,0,0.1,0,0.1,0c0.1,0,0.1,0,0.1,0c0.2,0,0.3,0,0.4,0c0,0,0,0,0,0
		c0,0,0,0,0,0c0,0,0,0,0,0l-0.2,0.5c0,0,0.1-0.1,0.1-0.1c0.3-0.3,0.5-0.4,0.8-0.4c0.1,0,0.3,0,0.3,0.1
		C94.2,45.3,94.3,45.4,94.3,45.5z"/>
	<path class="st10" d="M99.1,45.9c0,0.1-0.1,0.2-0.2,0.2c-0.1,0-0.2-0.1-0.2-0.2c0-0.1,0-0.2-0.1-0.2c-0.1,0-0.2,0.1-0.4,0.3
		c-0.1,0.2-0.3,0.4-0.3,0.5c0.1,0.3,0.2,0.4,0.3,0.5c0.1,0.1,0.2,0.2,0.4,0.2c0.2,0,0.3-0.1,0.4-0.2c0,0,0.1-0.1,0.1-0.1
		c0,0,0,0,0,0c0,0-0.1,0.1-0.2,0.2c-0.2,0.2-0.4,0.2-0.6,0.2c-0.2,0-0.3,0-0.4-0.1c-0.1-0.1-0.2-0.2-0.3-0.4
		c-0.2,0.3-0.6,0.5-0.9,0.5c-0.3,0-0.6-0.1-0.7-0.2c-0.2-0.2-0.3-0.4-0.3-0.6c0-0.4,0.2-0.7,0.6-0.9c0.1-0.1,0.4-0.2,0.7-0.3
		c-0.1-0.3-0.1-0.6-0.1-0.7c0-0.3,0.1-0.5,0.3-0.7c0.2-0.2,0.4-0.3,0.7-0.3c0.2,0,0.4,0.1,0.5,0.2c0.1,0.1,0.2,0.3,0.2,0.4
		c0,0.2-0.1,0.4-0.3,0.5c-0.1,0.1-0.4,0.2-0.7,0.4c0,0,0,0-0.1,0c0,0.2,0.1,0.4,0.2,0.6c0,0.1,0.1,0.3,0.2,0.6
		c0.2-0.3,0.4-0.6,0.5-0.7c0.1-0.1,0.3-0.2,0.4-0.2c0.1,0,0.2,0,0.2,0.1C99,45.7,99.1,45.8,99.1,45.9z M97.5,46.9
		c-0.2-0.4-0.4-0.9-0.5-1.5l-0.1,0c-0.2,0.1-0.4,0.2-0.5,0.3c-0.2,0.2-0.3,0.4-0.3,0.7c0,0.2,0.1,0.4,0.2,0.6
		c0.1,0.2,0.3,0.2,0.5,0.2C97.1,47.3,97.3,47.2,97.5,46.9z M98.2,44.3c0-0.3-0.1-0.5-0.4-0.5c-0.2,0-0.3,0.1-0.4,0.2
		c-0.1,0.1-0.1,0.3-0.1,0.5c0,0.2,0,0.4,0.1,0.7c0,0,0,0,0.1,0c0.3-0.1,0.4-0.2,0.5-0.4C98.1,44.6,98.2,44.5,98.2,44.3z"/>
	<path class="st10" d="M102.8,43.8C102.8,43.8,102.8,43.8,102.8,43.8c-0.1,0-0.1,0-0.1,0h-0.1c-0.2,0-0.2,0-0.3,0.1
		c-0.1,0.1-0.1,0.3-0.2,0.5l-1.1,2.7c0,0,0,0,0,0.1c0,0.1,0.1,0.1,0.2,0.1c0,0,0.1,0,0.2,0c0,0,0.1,0,0.1,0c0,0,0,0-0.1,0
		c-0.3,0-0.6,0-1.1,0c-0.2,0-0.3,0-0.3,0c0,0,0,0,0,0c0,0,0,0,0.1,0c0.1,0,0.2,0,0.3,0c0.1,0,0.1-0.1,0.1-0.1c0-0.1,0.1-0.2,0.1-0.3
		l1-2.6c0.1-0.3,0.2-0.4,0.2-0.4c0-0.1-0.1-0.1-0.2-0.1h-0.2c0,0-0.1,0-0.1,0c0,0,0,0,0.1,0h0c0,0,0.1,0,0.3,0h0.8c0,0,0,0,0.1,0
		L102.8,43.8C102.8,43.8,102.8,43.8,102.8,43.8z"/>
	<path class="st10" d="M105.6,44c0,0,0,0.1-0.1,0.2c-0.2,0.3-0.3,0.5-0.3,0.7c0,0.1,0,0.1-0.1,0.1c0,0,0,0,0-0.1c0,0,0-0.1,0-0.1
		c0-0.1,0-0.2,0-0.3c0-0.2-0.1-0.4-0.2-0.5c-0.1-0.1-0.3-0.2-0.5-0.2c-0.5,0-0.8,0.2-1.2,0.7c-0.3,0.5-0.5,1.1-0.5,1.7
		c0,0.6,0.2,1,0.7,1c0.2,0,0.3,0,0.5-0.1c0.3-0.2,0.5-0.3,0.6-0.5c0-0.1,0.1-0.1,0.1-0.1c0,0,0,0,0,0c0,0.1-0.1,0.2-0.3,0.4
		c-0.3,0.4-0.7,0.5-1.2,0.5c-0.3,0-0.6-0.1-0.7-0.3c-0.2-0.2-0.3-0.5-0.3-0.8c0-0.7,0.2-1.3,0.7-1.8c0.5-0.6,1-0.8,1.6-0.8
		c0.2,0,0.3,0,0.4,0.1c0.1,0,0.2,0.1,0.3,0.2c0,0,0.1,0,0.1,0C105.4,44.1,105.5,44,105.6,44C105.5,44,105.5,43.9,105.6,44
		C105.6,43.9,105.6,44,105.6,44z"/>
	<path class="st10" d="M108.9,44.9c0,0.4-0.1,0.7-0.3,1.1c-0.2,0.4-0.4,0.7-0.7,0.9c-0.5,0.4-0.9,0.6-1.4,0.6
		c-0.4,0-0.6-0.1-0.8-0.3c-0.2-0.2-0.3-0.5-0.3-0.8c0-0.4,0.1-0.7,0.3-1.1c0.2-0.4,0.4-0.7,0.7-1c0.5-0.4,0.9-0.6,1.4-0.6
		c0.4,0,0.6,0.1,0.8,0.4C108.8,44.3,108.9,44.6,108.9,44.9z M108.4,44.6c0-0.2,0-0.4-0.1-0.5c-0.1-0.2-0.3-0.3-0.5-0.3
		c-0.4,0-0.9,0.3-1.2,1c-0.2,0.3-0.3,0.6-0.5,1c-0.1,0.4-0.2,0.7-0.2,1c0,0.5,0.2,0.7,0.7,0.7c0.3,0,0.5-0.1,0.8-0.3
		c0.3-0.3,0.6-0.7,0.8-1.2C108.3,45.3,108.4,44.9,108.4,44.6z"/>
	<path class="st10" d="M113.2,45.5c0,0.1,0,0.2-0.1,0.4l-0.4,0.9c-0.1,0.1-0.1,0.2-0.1,0.3c0,0.1,0,0.1,0.1,0.1
		c0.1,0,0.2-0.1,0.4-0.2c0,0,0.1-0.1,0.1-0.1c0,0,0,0,0,0c0,0-0.1,0.1-0.2,0.2c-0.2,0.1-0.3,0.2-0.5,0.2c-0.1,0-0.2,0-0.2-0.1
		s-0.1-0.1-0.1-0.2c0-0.1,0-0.2,0.1-0.4l0.4-0.9c0.1-0.2,0.1-0.3,0.1-0.4c0-0.1-0.1-0.2-0.2-0.2c-0.2,0-0.3,0.1-0.5,0.4
		c-0.1,0.2-0.3,0.4-0.5,0.9l-0.3,0.7c0,0.1-0.1,0.2-0.1,0.2c0,0,0,0,0,0c-0.1,0-0.1,0-0.1,0c0,0-0.1,0-0.1,0c0,0-0.1,0-0.1,0
		c0,0,0,0,0,0c0,0,0,0,0-0.1c0,0,0-0.1,0.1-0.1l0.5-1.3c0.1-0.3,0.2-0.5,0.2-0.5c0-0.1-0.1-0.1-0.2-0.1c-0.1,0-0.3,0.1-0.5,0.3
		c-0.1,0.1-0.2,0.2-0.3,0.4c0,0.1-0.1,0.2-0.2,0.4l-0.4,0.9c0,0.1-0.1,0.1-0.1,0.1c0,0,0,0,0,0c-0.1,0-0.1,0-0.1,0
		c-0.1,0-0.2,0-0.2,0c0,0,0,0,0,0c0,0,0,0,0,0c0,0,0-0.1,0.1-0.1l0.8-1.9c0,0,0,0,0,0c0,0,0,0-0.1,0c-0.1,0-0.1,0-0.1-0.1
		c0,0,0,0,0.1,0c0,0,0.1,0,0.1,0c0.1,0,0.1,0,0.1,0c0.2,0,0.3,0,0.3,0c0,0,0,0,0,0c0,0,0,0,0,0c0,0,0,0,0,0.1c0,0-0.1,0.1-0.1,0.3
		l0,0.1c0,0,0.1-0.1,0.2-0.2c0.2-0.2,0.4-0.3,0.6-0.3c0.1,0,0.2,0,0.3,0.1c0.1,0.1,0.1,0.2,0.1,0.4c0.2-0.3,0.5-0.5,0.7-0.5
		c0.1,0,0.2,0,0.3,0.1C113.2,45.3,113.2,45.4,113.2,45.5z"/>
	<path class="st10" d="M116,45.2c0,0,0,0,0,0.1l-0.7,1.6c-0.1,0.2-0.1,0.3-0.1,0.3c0,0.1,0,0.1,0.1,0.1c0.1,0,0.3-0.1,0.4-0.3
		c0,0,0-0.1,0.1-0.1c0,0,0,0,0,0c0,0,0,0.1-0.1,0.2c-0.2,0.2-0.3,0.2-0.6,0.2c-0.1,0-0.2,0-0.3-0.1c-0.1-0.1-0.1-0.1-0.1-0.2
		c0-0.1,0-0.1,0-0.2c-0.2,0.3-0.5,0.5-0.8,0.5c-0.2,0-0.3-0.1-0.4-0.2c-0.1-0.1-0.2-0.3-0.2-0.4c0-0.2,0.1-0.4,0.2-0.7
		c0.1-0.2,0.3-0.5,0.5-0.7c0.3-0.3,0.6-0.4,0.8-0.4c0.3,0,0.4,0.1,0.4,0.4l0.1-0.3c0-0.1,0.1-0.1,0.1-0.1c0,0,0,0,0.1,0
		c0,0,0.1,0,0.1,0C115.8,45.2,115.9,45.2,116,45.2C115.9,45.1,115.9,45.1,116,45.2C116,45.1,116,45.1,116,45.2z M115.3,45.6
		c0-0.1,0-0.2-0.1-0.3s-0.1-0.1-0.2-0.1c-0.2,0-0.3,0.1-0.5,0.3c-0.2,0.2-0.3,0.5-0.4,0.7c-0.1,0.3-0.2,0.5-0.2,0.7
		c0,0.2,0.1,0.4,0.3,0.4c0.1,0,0.2-0.1,0.4-0.2c0.1-0.1,0.2-0.3,0.3-0.5l0.4-0.9C115.3,45.7,115.3,45.6,115.3,45.6z"/>
	<path class="st10" d="M118,45.4c0,0.1,0,0.1-0.1,0.2c0,0.1-0.1,0.1-0.2,0.1c-0.1,0-0.1,0-0.1-0.1l0-0.1c0,0,0,0,0-0.1
		c0-0.1,0-0.1-0.1-0.1c-0.1,0-0.2,0.1-0.4,0.3c-0.2,0.2-0.4,0.5-0.5,0.8l-0.4,0.8c0,0.1-0.1,0.1-0.1,0.1c-0.1,0-0.1,0-0.2,0
		c-0.1,0-0.1,0-0.1,0h0c0,0,0,0,0,0c0,0,0,0,0,0l0-0.1l0.9-2c0,0,0,0-0.1,0c0,0,0,0,0,0c0,0,0,0-0.1,0h-0.1c-0.1,0-0.1,0-0.1,0
		c0,0,0.1,0,0.3,0c0.2,0,0.3,0,0.4,0c0,0,0,0,0,0c0,0,0,0,0,0c0,0,0,0.1-0.1,0.2l-0.2,0.5c0.3-0.4,0.6-0.7,0.9-0.7
		C118,45.2,118,45.2,118,45.4z"/>
	<path class="st10" d="M120.4,45.4c0,0.1,0,0.1-0.1,0.2c0,0-0.1,0.1-0.2,0.1c-0.1,0-0.2-0.1-0.2-0.2v-0.1c0-0.1,0-0.1-0.1-0.1
		c-0.1,0-0.3,0.2-0.6,0.5c-0.1,0.1-0.2,0.2-0.2,0.2c0,0-0.1,0.1-0.1,0.1l0.1,0c0.3,0,0.4,0.2,0.4,0.4c0,0.1,0,0.3-0.1,0.6
		c0,0.1,0,0.2,0,0.2c0,0.1,0,0.1,0.1,0.1c0.1,0,0.2-0.1,0.3-0.2s0.2-0.3,0.2-0.4c0-0.1,0-0.1,0.1-0.1c0,0,0,0,0,0
		c0,0.1-0.1,0.2-0.2,0.4c-0.1,0.3-0.3,0.4-0.6,0.4c-0.2,0-0.4-0.1-0.4-0.4c0-0.1,0-0.3,0.1-0.6c0-0.1,0-0.2,0-0.2
		c0-0.1,0-0.1-0.1-0.2c-0.1,0-0.1,0-0.2,0c0,0-0.1,0-0.2,0l-0.5,1.2l0,0l-0.1,0l-0.1,0l-0.1,0c0,0,0,0,0,0c0,0,0,0,0,0
		c0,0,0,0,0-0.1c0,0,0-0.1,0.1-0.1l1.3-3.1c0,0,0-0.1,0.1-0.1l0-0.1c0,0,0,0,0,0c0,0,0-0.1-0.1-0.1c0,0-0.1,0-0.1,0
		c-0.1,0-0.1,0-0.1,0c0,0-0.1,0-0.1,0c0,0,0,0,0,0c0,0,0.1,0,0.2,0c0.3,0,0.5,0,0.6,0c0,0,0,0,0.1,0c0,0,0,0,0,0c0,0,0,0.1-0.1,0.3
		l-0.8,1.8c0,0.1-0.1,0.1-0.1,0.3h0.2c0.1,0,0.1,0,0.2,0c0,0,0.1-0.1,0.3-0.3c0.2-0.2,0.3-0.4,0.5-0.5c0.1-0.1,0.2-0.1,0.3-0.1
		C120.3,45.1,120.4,45.2,120.4,45.4z"/>
	<path class="st10" d="M122.5,45.5c0,0.2-0.1,0.3-0.3,0.5c-0.2,0.1-0.5,0.2-0.8,0.2c-0.1,0-0.2,0-0.4,0c-0.1,0.3-0.2,0.5-0.2,0.7
		c0,0.3,0.1,0.5,0.4,0.5c0.2,0,0.4-0.1,0.6-0.3c0,0,0.1-0.1,0.1-0.1c0,0,0,0,0,0c0,0.1-0.1,0.2-0.2,0.3c-0.2,0.1-0.4,0.2-0.6,0.2
		c-0.2,0-0.4-0.1-0.6-0.2c-0.1-0.1-0.2-0.3-0.2-0.5c0-0.4,0.2-0.8,0.6-1.1c0.4-0.3,0.7-0.5,1-0.5C122.3,45.1,122.5,45.3,122.5,45.5z
		 M122.1,45.4c0-0.1-0.1-0.2-0.2-0.2c-0.1,0-0.2,0-0.3,0.1c-0.2,0.2-0.4,0.4-0.5,0.7c0,0,0.1,0,0.1,0c0.2,0,0.4-0.1,0.6-0.2
		C122,45.8,122.1,45.6,122.1,45.4z"/>
	<path class="st10" d="M124.1,45.2c0,0-0.1,0.1-0.2,0.1h-0.2h-0.1l-0.7,1.6c-0.1,0.2-0.1,0.3-0.1,0.3c0,0.1,0.1,0.1,0.2,0.1
		c0.2,0,0.3-0.1,0.4-0.2c0,0,0-0.1,0.1-0.1c0,0,0,0,0,0c0,0-0.1,0.1-0.2,0.2c-0.1,0.1-0.3,0.2-0.5,0.2c-0.1,0-0.2,0-0.3-0.1
		c-0.1-0.1-0.1-0.1-0.1-0.2c0-0.1,0-0.2,0.1-0.4l0.7-1.5h-0.2c-0.1,0-0.1,0-0.1,0c0,0,0-0.1,0.1-0.1h0c0,0,0,0,0.1,0
		c0,0,0.1,0,0.1,0l0.1-0.2c0-0.1,0.1-0.1,0.1-0.1c0,0,0,0,0.1,0c0,0,0.1,0,0.1,0c0,0,0.1,0,0.2,0c0,0,0,0,0,0c0,0,0,0,0,0l-0.1,0.1
		l-0.1,0.2h0.1h0.2c0,0,0,0,0.1,0C124,45.2,124,45.2,124.1,45.2C124,45.2,124.1,45.2,124.1,45.2z"/>
	<path class="st10" d="M125,45.2C125,45.2,125,45.2,125,45.2c-0.1,0.1-0.1,0.2-0.1,0.3l-0.6,1.4c-0.1,0.2-0.1,0.3-0.1,0.3
		c0,0.1,0,0.1,0.1,0.1c0.1,0,0.1,0,0.2-0.1c0.1,0,0.2-0.1,0.2-0.2c0,0,0.1-0.1,0.1-0.1c0,0,0,0,0,0c0,0,0,0.1-0.1,0.2
		c-0.1,0.1-0.3,0.2-0.5,0.2c-0.1,0-0.2,0-0.3-0.1c-0.1-0.1-0.1-0.1-0.1-0.2c0-0.1,0-0.2,0.1-0.4l0.5-1.2c0-0.1,0-0.1,0.1-0.1
		c0,0,0,0,0,0c0,0-0.1-0.1-0.2-0.1c0,0,0,0,0,0c0,0,0,0,0,0c0,0,0,0,0.1,0c0,0,0.1,0,0.2,0c0.1,0,0.3,0,0.3,0
		C124.9,45.1,124.9,45.1,125,45.2C125,45.1,125,45.1,125,45.2z M125.3,44.2c0,0.1-0.1,0.2-0.2,0.2c-0.1,0-0.1,0-0.2-0.1
		c0,0-0.1-0.1-0.1-0.2c0-0.1,0.1-0.2,0.2-0.2C125.3,44,125.3,44,125.3,44.2z"/>
	<path class="st10" d="M127.3,45.5c0,0.1,0,0.2-0.1,0.4l-0.4,1c0,0.1-0.1,0.2-0.1,0.2c0,0.1,0,0.1,0.1,0.1c0.1,0,0.2-0.1,0.4-0.2
		c0,0,0,0,0,0c0,0,0,0,0,0c0,0-0.1,0.1-0.2,0.2c-0.2,0.1-0.3,0.2-0.5,0.2c-0.1,0-0.2,0-0.3-0.1c-0.1,0-0.1-0.1-0.1-0.2
		c0-0.1,0-0.2,0.1-0.3l0.4-0.9c0.1-0.2,0.2-0.4,0.2-0.5c0-0.1-0.1-0.2-0.2-0.2c-0.2,0-0.4,0.1-0.6,0.3c-0.2,0.2-0.3,0.4-0.5,0.7
		l-0.4,1c0,0.1,0,0.1-0.1,0.1c0,0,0,0-0.1,0c0,0,0,0-0.1,0c0,0-0.1,0-0.1,0c0,0,0,0,0,0c0,0,0,0,0,0c0,0,0,0,0,0l0-0.1l0.8-1.9
		c0,0,0,0,0,0c0,0,0,0-0.1,0c-0.1,0-0.2,0-0.2-0.1c0,0,0,0,0.1,0c0,0,0.1,0,0.1,0c0.1,0,0.1,0,0.1,0c0.2,0,0.3,0,0.4,0c0,0,0,0,0,0
		c0,0,0,0,0,0c0,0,0,0,0,0l-0.2,0.5c0,0,0.1-0.1,0.1-0.1c0.3-0.3,0.5-0.4,0.8-0.4c0.1,0,0.3,0,0.3,0.1
		C127.3,45.3,127.3,45.4,127.3,45.5z"/>
	<path class="st10" d="M130,45.3c0,0.1-0.1,0.2-0.2,0.2c-0.1,0-0.1,0-0.1-0.1c0,0,0,0,0,0c0,0,0,0,0,0c0,0,0,0,0,0
		c0,0-0.1,0-0.1,0.1c-0.1,0.1-0.1,0.1-0.1,0.2c0,0,0,0,0,0.1c0,0.1,0.1,0.2,0.1,0.3c0,0.2-0.1,0.5-0.2,0.6c-0.2,0.2-0.4,0.3-0.7,0.3
		c-0.2,0-0.4-0.1-0.5-0.2c-0.3,0.1-0.4,0.2-0.4,0.3c0,0.1,0.1,0.1,0.2,0.1c0.2,0,0.3,0,0.3,0h0.4c0.2,0,0.3,0,0.4,0
		c0.3,0.1,0.4,0.3,0.4,0.6c0,0.3-0.1,0.5-0.3,0.7c-0.2,0.2-0.5,0.3-0.9,0.3c-0.3,0-0.5-0.1-0.7-0.2c-0.3-0.2-0.4-0.3-0.4-0.5
		c0-0.1,0.1-0.3,0.2-0.4c0.1,0,0.2-0.1,0.4-0.2c-0.2-0.1-0.3-0.2-0.3-0.4c0-0.3,0.2-0.5,0.6-0.6c-0.1-0.1-0.2-0.3-0.2-0.4
		c0-0.3,0.1-0.5,0.3-0.7c0.2-0.2,0.4-0.3,0.7-0.3c0.2,0,0.4,0.1,0.5,0.3c0.1-0.2,0.3-0.3,0.4-0.3C129.9,45.1,130,45.2,130,45.3z
		 M129.3,47.9c0-0.1,0-0.2-0.1-0.2c-0.1-0.1-0.1-0.1-0.2-0.1c-0.1,0-0.3,0-0.6,0h-0.6c-0.2,0.1-0.3,0.3-0.3,0.5
		c0,0.2,0.1,0.4,0.2,0.5c0.1,0.1,0.3,0.2,0.5,0.2c0.3,0,0.5-0.1,0.7-0.2C129.2,48.3,129.3,48.1,129.3,47.9z M129.2,45.6
		c0-0.2-0.1-0.4-0.3-0.4c-0.2,0-0.3,0.1-0.5,0.4c-0.1,0.3-0.2,0.5-0.2,0.7c0,0.2,0.1,0.3,0.3,0.3c0.2,0,0.3-0.1,0.4-0.4
		C129.1,46.1,129.2,45.8,129.2,45.6z"/>
	<path class="st10" d="M132.8,45.5c0,0.2-0.1,0.3-0.2,0.3c0,0-0.1,0-0.1-0.1c0,0-0.1-0.1-0.1-0.1c0-0.1,0-0.1,0.1-0.1l0,0
		c0,0,0,0,0.1,0c0,0,0,0,0-0.1c0-0.1,0-0.1-0.1-0.2c-0.1,0-0.1-0.1-0.2-0.1c-0.3,0-0.5,0.2-0.8,0.6c-0.2,0.4-0.4,0.8-0.4,1.1
		c0,0.3,0.1,0.4,0.4,0.4c0.2,0,0.4-0.1,0.6-0.4c0,0,0.1-0.1,0.1-0.1c0,0,0,0,0,0c0,0,0,0.1-0.1,0.2c-0.2,0.2-0.4,0.3-0.7,0.3
		c-0.2,0-0.4-0.1-0.6-0.2c-0.1-0.1-0.2-0.3-0.2-0.5c0-0.4,0.2-0.7,0.6-1.1c0.3-0.3,0.7-0.5,1-0.5c0.1,0,0.2,0,0.3,0.1
		C132.8,45.3,132.8,45.4,132.8,45.5z"/>
	<path class="st10" d="M134.9,46c0,0.4-0.2,0.8-0.6,1.1c-0.3,0.3-0.6,0.4-0.9,0.4c-0.2,0-0.4-0.1-0.5-0.2c-0.1-0.2-0.2-0.3-0.2-0.6
		c0-0.2,0.1-0.4,0.2-0.6c0.1-0.2,0.3-0.4,0.5-0.5c0.3-0.2,0.6-0.4,0.9-0.4c0.2,0,0.4,0.1,0.5,0.2C134.9,45.5,134.9,45.7,134.9,46z
		 M134.5,45.6c0-0.3-0.1-0.4-0.4-0.4c-0.3,0-0.5,0.2-0.8,0.6c-0.2,0.4-0.3,0.8-0.3,1.1c0,0.3,0.1,0.4,0.4,0.4c0.3,0,0.5-0.2,0.7-0.6
		C134.4,46.4,134.5,46,134.5,45.6z"/>
	<path class="st10" d="M137.5,45.5c0,0.1,0,0.2-0.1,0.4l-0.4,1c0,0.1-0.1,0.2-0.1,0.2c0,0.1,0,0.1,0.1,0.1c0.1,0,0.2-0.1,0.4-0.2
		c0,0,0,0,0,0c0,0,0,0,0,0c0,0-0.1,0.1-0.2,0.2c-0.2,0.1-0.3,0.2-0.5,0.2c-0.1,0-0.2,0-0.3-0.1c-0.1,0-0.1-0.1-0.1-0.2
		c0-0.1,0-0.2,0.1-0.3l0.4-0.9c0.1-0.2,0.2-0.4,0.2-0.5c0-0.1-0.1-0.2-0.2-0.2c-0.2,0-0.4,0.1-0.6,0.3c-0.2,0.2-0.3,0.4-0.5,0.7
		l-0.4,1c0,0.1,0,0.1-0.1,0.1c0,0,0,0-0.1,0c0,0,0,0-0.1,0c0,0-0.1,0-0.1,0c0,0,0,0,0,0c0,0,0,0,0,0c0,0,0,0,0,0l0-0.1l0.8-1.9
		c0,0,0,0,0,0c0,0,0,0-0.1,0c-0.1,0-0.2,0-0.2-0.1c0,0,0,0,0.1,0c0,0,0.1,0,0.1,0c0.1,0,0.1,0,0.1,0c0.2,0,0.3,0,0.4,0c0,0,0,0,0,0
		c0,0,0,0,0,0c0,0,0,0,0,0l-0.2,0.5c0,0,0.1-0.1,0.1-0.1c0.3-0.3,0.5-0.4,0.8-0.4c0.1,0,0.3,0,0.3,0.1
		C137.4,45.3,137.5,45.4,137.5,45.5z"/>
	<path class="st10" d="M139.6,45.5c0,0.1,0,0.1-0.1,0.2c0,0-0.1,0.1-0.1,0.1c-0.1,0-0.2-0.1-0.2-0.2c0-0.1,0-0.1,0.1-0.1
		c0,0,0,0,0.1,0c0,0,0,0,0.1,0c0,0,0,0,0,0c0-0.1,0-0.1-0.1-0.2c-0.1-0.1-0.2-0.1-0.2-0.1c-0.1,0-0.2,0-0.3,0.1
		c-0.1,0.1-0.1,0.2-0.1,0.3c0,0.1,0.1,0.3,0.2,0.7c0,0.1,0.1,0.2,0.1,0.3c0,0.2-0.1,0.4-0.2,0.6c-0.2,0.2-0.4,0.2-0.6,0.2
		c-0.2,0-0.4-0.1-0.5-0.2c-0.1-0.1-0.2-0.3-0.2-0.4c0-0.1,0-0.2,0.1-0.2c0.1-0.1,0.1-0.1,0.2-0.1c0.1,0,0.1,0,0.2,0.1
		c0,0,0.1,0.1,0.1,0.2c0,0.1-0.1,0.2-0.2,0.2c-0.1,0-0.2,0-0.2-0.1c0,0,0,0,0-0.1c0,0,0,0,0,0c0,0,0-0.1,0-0.1c0,0-0.1,0-0.1,0.1
		c0,0,0,0.1,0,0.2c0,0.1,0.1,0.3,0.2,0.4c0.1,0.1,0.2,0.2,0.4,0.2c0.1,0,0.3,0,0.4-0.1c0.1-0.1,0.1-0.2,0.1-0.3c0-0.1,0-0.2-0.1-0.5
		c-0.1-0.2-0.1-0.4-0.1-0.5c0-0.2,0.1-0.4,0.2-0.6c0.1-0.2,0.3-0.2,0.5-0.2c0.1,0,0.2,0,0.3,0.1C139.6,45.3,139.6,45.4,139.6,45.5z"
		/>
	<path class="st10" d="M142.1,45.2L142.1,45.2l0,0.1l-0.6,1.4c-0.1,0.3-0.2,0.5-0.2,0.5c0,0.1,0,0.1,0.1,0.1c0.1,0,0.3-0.1,0.4-0.3
		c0,0,0.1-0.1,0.1-0.1c0,0,0,0,0,0c0,0.1-0.1,0.2-0.3,0.3c-0.1,0.1-0.2,0.1-0.4,0.1c-0.1,0-0.2,0-0.3-0.1c-0.1-0.1-0.1-0.1-0.1-0.2
		c0,0,0-0.1,0-0.2l0.1-0.2c-0.2,0.3-0.4,0.5-0.5,0.5c-0.1,0.1-0.3,0.1-0.4,0.1c-0.1,0-0.2,0-0.3-0.1c-0.1-0.1-0.1-0.1-0.1-0.2
		c0-0.1,0-0.2,0.1-0.4l0.5-1.2c0,0,0-0.1,0.1-0.2c0,0,0,0,0,0c0,0,0,0-0.1,0c-0.1,0-0.2,0-0.2-0.1c0,0,0,0,0,0c0,0,0.1,0,0.1,0
		c0.1,0,0.1,0,0.1,0c0.2,0,0.3,0,0.4,0c0,0,0,0,0,0c0,0,0,0,0,0c0,0,0,0.1-0.1,0.3c-0.1,0.2-0.1,0.3-0.2,0.5c0,0-0.1,0.2-0.2,0.4
		l-0.2,0.5c-0.1,0.2-0.1,0.3-0.1,0.4c0,0.1,0.1,0.2,0.2,0.2c0.1,0,0.3-0.1,0.5-0.3c0.2-0.3,0.4-0.6,0.6-1l0.3-0.8c0,0,0-0.1,0.1-0.1
		c0,0,0,0,0.1,0h0C141.9,45.2,142,45.2,142.1,45.2C142,45.2,142,45.2,142.1,45.2C142.1,45.2,142.1,45.2,142.1,45.2z"/>
	<path class="st10" d="M143.9,43.7C143.9,43.7,143.9,43.8,143.9,43.7c0,0.1-0.1,0.1-0.1,0.2l-1.2,2.9c-0.1,0.2-0.1,0.4-0.1,0.4
		c0,0.1,0.1,0.1,0.2,0.1c0.1,0,0.3-0.1,0.4-0.2c0.1-0.1,0.1-0.1,0.1-0.1c0,0,0,0,0,0c0,0-0.1,0.1-0.2,0.2c-0.1,0.1-0.3,0.2-0.5,0.2
		c-0.3,0-0.4-0.1-0.4-0.3c0-0.1,0-0.2,0.1-0.4l1.2-2.9c0,0,0,0,0,0c0,0,0,0-0.1,0c-0.2,0-0.2,0-0.2,0c0,0,0,0,0,0s0.1,0,0.1,0
		c0.1,0,0.1,0,0.1,0c0.2,0,0.3,0,0.3,0C143.8,43.7,143.8,43.7,143.9,43.7C143.9,43.7,143.9,43.7,143.9,43.7z"/>
	<path class="st10" d="M145.1,45.2c0,0-0.1,0.1-0.2,0.1h-0.2h-0.1l-0.7,1.6c-0.1,0.2-0.1,0.3-0.1,0.3c0,0.1,0.1,0.1,0.2,0.1
		c0.2,0,0.3-0.1,0.4-0.2c0,0,0-0.1,0.1-0.1c0,0,0,0,0,0c0,0-0.1,0.1-0.2,0.2c-0.1,0.1-0.3,0.2-0.5,0.2c-0.1,0-0.2,0-0.3-0.1
		c-0.1-0.1-0.1-0.1-0.1-0.2c0-0.1,0-0.2,0.1-0.4l0.7-1.5h-0.2c-0.1,0-0.1,0-0.1,0c0,0,0-0.1,0.1-0.1h0c0,0,0,0,0.1,0
		c0,0,0.1,0,0.1,0l0.1-0.2c0-0.1,0.1-0.1,0.1-0.1c0,0,0,0,0.1,0c0,0,0.1,0,0.1,0c0,0,0.1,0,0.2,0c0,0,0,0,0,0c0,0,0,0,0,0l-0.1,0.1
		l-0.1,0.2h0.1h0.2c0,0,0,0,0.1,0C145,45.2,145,45.2,145.1,45.2C145.1,45.2,145.1,45.2,145.1,45.2z"/>
	<path class="st10" d="M146,45.2C146,45.2,146,45.2,146,45.2c-0.1,0.1-0.1,0.2-0.1,0.3l-0.6,1.4c-0.1,0.2-0.1,0.3-0.1,0.3
		c0,0.1,0,0.1,0.1,0.1c0.1,0,0.1,0,0.2-0.1c0.1,0,0.2-0.1,0.2-0.2c0,0,0.1-0.1,0.1-0.1c0,0,0,0,0,0c0,0,0,0.1-0.1,0.2
		c-0.1,0.1-0.3,0.2-0.5,0.2c-0.1,0-0.2,0-0.3-0.1c-0.1-0.1-0.1-0.1-0.1-0.2c0-0.1,0-0.2,0.1-0.4l0.5-1.2c0-0.1,0-0.1,0.1-0.1
		c0,0,0,0,0,0c0,0-0.1-0.1-0.2-0.1c0,0,0,0,0,0c0,0,0,0,0,0c0,0,0,0,0.1,0c0,0,0.1,0,0.2,0c0.1,0,0.3,0,0.3,0
		C145.9,45.1,145.9,45.1,146,45.2C146,45.1,146,45.1,146,45.2z M146.4,44.2c0,0.1-0.1,0.2-0.2,0.2c-0.1,0-0.1,0-0.2-0.1
		c0,0-0.1-0.1-0.1-0.2c0-0.1,0.1-0.2,0.2-0.2C146.3,44,146.4,44,146.4,44.2z"/>
	<path class="st10" d="M148.4,45.5c0,0.1,0,0.2-0.1,0.4l-0.4,1c0,0.1-0.1,0.2-0.1,0.2c0,0.1,0,0.1,0.1,0.1c0.1,0,0.2-0.1,0.4-0.2
		c0,0,0,0,0,0c0,0,0,0,0,0c0,0-0.1,0.1-0.2,0.2c-0.2,0.1-0.3,0.2-0.5,0.2c-0.1,0-0.2,0-0.3-0.1c-0.1,0-0.1-0.1-0.1-0.2
		c0-0.1,0-0.2,0.1-0.3l0.4-0.9c0.1-0.2,0.2-0.4,0.2-0.5c0-0.1-0.1-0.2-0.2-0.2c-0.2,0-0.4,0.1-0.6,0.3c-0.2,0.2-0.3,0.4-0.5,0.7
		l-0.4,1c0,0.1,0,0.1-0.1,0.1c0,0,0,0-0.1,0c0,0,0,0-0.1,0c0,0-0.1,0-0.1,0c0,0,0,0,0,0c0,0,0,0,0,0c0,0,0,0,0,0l0-0.1l0.8-1.9
		c0,0,0,0,0,0c0,0,0,0-0.1,0c-0.1,0-0.2,0-0.2-0.1c0,0,0,0,0.1,0c0,0,0.1,0,0.1,0c0.1,0,0.1,0,0.1,0c0.2,0,0.3,0,0.4,0c0,0,0,0,0,0
		c0,0,0,0,0,0c0,0,0,0,0,0l-0.2,0.5c0,0,0.1-0.1,0.1-0.1c0.3-0.3,0.5-0.4,0.8-0.4c0.1,0,0.3,0,0.3,0.1
		C148.3,45.3,148.4,45.4,148.4,45.5z"/>
	<path class="st10" d="M151,45.3c0,0.1-0.1,0.2-0.2,0.2c-0.1,0-0.1,0-0.1-0.1c0,0,0,0,0,0c0,0,0,0,0,0c0,0,0,0,0,0
		c0,0-0.1,0-0.1,0.1c-0.1,0.1-0.1,0.1-0.1,0.2c0,0,0,0,0,0.1c0,0.1,0.1,0.2,0.1,0.3c0,0.2-0.1,0.5-0.2,0.6c-0.2,0.2-0.4,0.3-0.7,0.3
		c-0.2,0-0.4-0.1-0.5-0.2c-0.3,0.1-0.4,0.2-0.4,0.3c0,0.1,0.1,0.1,0.2,0.1c0.2,0,0.3,0,0.3,0h0.4c0.2,0,0.3,0,0.4,0
		c0.3,0.1,0.4,0.3,0.4,0.6c0,0.3-0.1,0.5-0.3,0.7c-0.2,0.2-0.5,0.3-0.9,0.3c-0.3,0-0.5-0.1-0.7-0.2c-0.3-0.2-0.4-0.3-0.4-0.5
		c0-0.1,0.1-0.3,0.2-0.4c0.1,0,0.2-0.1,0.4-0.2c-0.2-0.1-0.3-0.2-0.3-0.4c0-0.3,0.2-0.5,0.6-0.6c-0.1-0.1-0.2-0.3-0.2-0.4
		c0-0.3,0.1-0.5,0.3-0.7c0.2-0.2,0.4-0.3,0.7-0.3c0.2,0,0.4,0.1,0.5,0.3c0.1-0.2,0.3-0.3,0.4-0.3C151,45.1,151,45.2,151,45.3z
		 M150.3,47.9c0-0.1,0-0.2-0.1-0.2c-0.1-0.1-0.1-0.1-0.2-0.1c-0.1,0-0.3,0-0.6,0h-0.6c-0.2,0.1-0.3,0.3-0.3,0.5
		c0,0.2,0.1,0.4,0.2,0.5c0.1,0.1,0.3,0.2,0.5,0.2c0.3,0,0.5-0.1,0.7-0.2C150.2,48.3,150.3,48.1,150.3,47.9z M150.2,45.6
		c0-0.2-0.1-0.4-0.3-0.4c-0.2,0-0.3,0.1-0.5,0.4c-0.1,0.3-0.2,0.5-0.2,0.7c0,0.2,0.1,0.3,0.3,0.3c0.2,0,0.3-0.1,0.4-0.4
		C150.1,46.1,150.2,45.8,150.2,45.6z"/>
	<path class="st10" d="M154.4,45.2c0,0,0,0,0,0.1l-0.7,1.6c-0.1,0.2-0.1,0.3-0.1,0.3c0,0.1,0,0.1,0.1,0.1c0.1,0,0.3-0.1,0.4-0.3
		c0,0,0-0.1,0.1-0.1c0,0,0,0,0,0c0,0,0,0.1-0.1,0.2c-0.2,0.2-0.3,0.2-0.6,0.2c-0.1,0-0.2,0-0.3-0.1c-0.1-0.1-0.1-0.1-0.1-0.2
		c0-0.1,0-0.1,0-0.2c-0.2,0.3-0.5,0.5-0.8,0.5c-0.2,0-0.3-0.1-0.4-0.2c-0.1-0.1-0.2-0.3-0.2-0.4c0-0.2,0.1-0.4,0.2-0.7
		c0.1-0.2,0.3-0.5,0.5-0.7c0.3-0.3,0.6-0.4,0.8-0.4c0.3,0,0.4,0.1,0.4,0.4l0.1-0.3c0-0.1,0.1-0.1,0.1-0.1c0,0,0,0,0.1,0
		c0,0,0.1,0,0.1,0C154.2,45.2,154.3,45.2,154.4,45.2C154.3,45.1,154.4,45.1,154.4,45.2C154.4,45.1,154.4,45.1,154.4,45.2z
		 M153.7,45.6c0-0.1,0-0.2-0.1-0.3c-0.1-0.1-0.1-0.1-0.2-0.1c-0.2,0-0.3,0.1-0.5,0.3c-0.2,0.2-0.3,0.5-0.4,0.7
		c-0.1,0.3-0.2,0.5-0.2,0.7c0,0.2,0.1,0.4,0.3,0.4c0.1,0,0.2-0.1,0.4-0.2c0.1-0.1,0.2-0.3,0.3-0.5l0.4-0.9
		C153.7,45.7,153.7,45.6,153.7,45.6z"/>
	<path class="st10" d="M156.9,45.3c0,0.1-0.1,0.2-0.2,0.2c-0.1,0-0.1,0-0.1-0.1c0,0,0,0,0,0c0,0,0,0,0,0c0,0,0,0,0,0
		c0,0-0.1,0-0.1,0.1c-0.1,0.1-0.1,0.1-0.1,0.2c0,0,0,0,0,0.1c0,0.1,0.1,0.2,0.1,0.3c0,0.2-0.1,0.5-0.2,0.6c-0.2,0.2-0.4,0.3-0.7,0.3
		c-0.2,0-0.4-0.1-0.5-0.2c-0.3,0.1-0.4,0.2-0.4,0.3c0,0.1,0.1,0.1,0.2,0.1c0.2,0,0.3,0,0.3,0h0.4c0.2,0,0.3,0,0.4,0
		c0.3,0.1,0.4,0.3,0.4,0.6c0,0.3-0.1,0.5-0.3,0.7c-0.2,0.2-0.5,0.3-0.9,0.3c-0.3,0-0.5-0.1-0.7-0.2c-0.3-0.2-0.4-0.3-0.4-0.5
		c0-0.1,0.1-0.3,0.2-0.4c0.1,0,0.2-0.1,0.4-0.2c-0.2-0.1-0.3-0.2-0.3-0.4c0-0.3,0.2-0.5,0.6-0.6c-0.1-0.1-0.2-0.3-0.2-0.4
		c0-0.3,0.1-0.5,0.3-0.7c0.2-0.2,0.4-0.3,0.7-0.3c0.2,0,0.4,0.1,0.5,0.3c0.1-0.2,0.3-0.3,0.4-0.3C156.8,45.1,156.9,45.2,156.9,45.3z
		 M156.1,47.9c0-0.1,0-0.2-0.1-0.2c-0.1-0.1-0.1-0.1-0.2-0.1c-0.1,0-0.3,0-0.6,0h-0.6c-0.2,0.1-0.3,0.3-0.3,0.5
		c0,0.2,0.1,0.4,0.2,0.5c0.1,0.1,0.3,0.2,0.5,0.2c0.3,0,0.5-0.1,0.7-0.2C156,48.3,156.1,48.1,156.1,47.9z M156,45.6
		c0-0.2-0.1-0.4-0.3-0.4c-0.2,0-0.3,0.1-0.5,0.4c-0.1,0.3-0.2,0.5-0.2,0.7c0,0.2,0.1,0.3,0.3,0.3c0.2,0,0.3-0.1,0.4-0.4
		C156,46.1,156,45.8,156,45.6z"/>
	<path class="st10" d="M158.8,45.5c0,0.2-0.1,0.3-0.3,0.5c-0.2,0.1-0.5,0.2-0.8,0.2c-0.1,0-0.2,0-0.4,0c-0.1,0.3-0.2,0.5-0.2,0.7
		c0,0.3,0.1,0.5,0.4,0.5c0.2,0,0.4-0.1,0.6-0.3c0,0,0.1-0.1,0.1-0.1c0,0,0,0,0,0c0,0.1-0.1,0.2-0.2,0.3c-0.2,0.1-0.4,0.2-0.6,0.2
		c-0.2,0-0.4-0.1-0.6-0.2c-0.1-0.1-0.2-0.3-0.2-0.5c0-0.4,0.2-0.8,0.6-1.1c0.4-0.3,0.7-0.5,1-0.5C158.6,45.1,158.8,45.3,158.8,45.5z
		 M158.4,45.4c0-0.1-0.1-0.2-0.2-0.2c-0.1,0-0.2,0-0.3,0.1c-0.2,0.2-0.4,0.4-0.5,0.7c0,0,0.1,0,0.1,0c0.2,0,0.4-0.1,0.6-0.2
		C158.3,45.8,158.4,45.6,158.4,45.4z"/>
	<path class="st10" d="M161,45.5c0,0.1,0,0.2-0.1,0.4l-0.4,1c0,0.1-0.1,0.2-0.1,0.2c0,0.1,0,0.1,0.1,0.1c0.1,0,0.2-0.1,0.4-0.2
		c0,0,0,0,0,0c0,0,0,0,0,0c0,0-0.1,0.1-0.2,0.2c-0.2,0.1-0.3,0.2-0.5,0.2c-0.1,0-0.2,0-0.3-0.1c-0.1,0-0.1-0.1-0.1-0.2
		c0-0.1,0-0.2,0.1-0.3l0.4-0.9c0.1-0.2,0.2-0.4,0.2-0.5c0-0.1-0.1-0.2-0.2-0.2c-0.2,0-0.4,0.1-0.6,0.3c-0.2,0.2-0.3,0.4-0.5,0.7
		l-0.4,1c0,0.1,0,0.1-0.1,0.1c0,0,0,0-0.1,0c0,0,0,0-0.1,0c0,0-0.1,0-0.1,0c0,0,0,0,0,0c0,0,0,0,0,0c0,0,0,0,0,0l0-0.1l0.8-1.9
		c0,0,0,0,0,0c0,0,0,0-0.1,0c-0.1,0-0.2,0-0.2-0.1c0,0,0,0,0.1,0c0,0,0.1,0,0.1,0c0.1,0,0.1,0,0.1,0c0.2,0,0.3,0,0.4,0c0,0,0,0,0,0
		c0,0,0,0,0,0c0,0,0,0,0,0l-0.2,0.5c0,0,0.1-0.1,0.1-0.1c0.3-0.3,0.5-0.4,0.8-0.4c0.1,0,0.3,0,0.3,0.1C161,45.3,161,45.4,161,45.5z"
		/>
	<path class="st10" d="M163.3,45.5c0,0.2-0.1,0.3-0.2,0.3c0,0-0.1,0-0.1-0.1c0,0-0.1-0.1-0.1-0.1c0-0.1,0-0.1,0.1-0.1l0,0
		c0,0,0,0,0.1,0c0,0,0,0,0-0.1c0-0.1,0-0.1-0.1-0.2c-0.1,0-0.1-0.1-0.2-0.1c-0.3,0-0.5,0.2-0.8,0.6c-0.2,0.4-0.4,0.8-0.4,1.1
		c0,0.3,0.1,0.4,0.4,0.4c0.2,0,0.4-0.1,0.6-0.4c0,0,0.1-0.1,0.1-0.1c0,0,0,0,0,0c0,0,0,0.1-0.1,0.2c-0.2,0.2-0.4,0.3-0.7,0.3
		c-0.2,0-0.4-0.1-0.6-0.2c-0.1-0.1-0.2-0.3-0.2-0.5c0-0.4,0.2-0.7,0.6-1.1c0.3-0.3,0.7-0.5,1-0.5c0.1,0,0.2,0,0.3,0.1
		C163.3,45.3,163.3,45.4,163.3,45.5z"/>
	<path class="st10" d="M165.9,45.3c0,0.1-0.1,0.2-0.2,0.2c-0.1,0-0.1,0-0.1-0.1c0,0,0,0,0,0c0,0-0.1,0.1-0.2,0.3l-0.5,0.9
		c0,0-0.3,0.4-0.7,1.1c-0.2,0.4-0.5,0.7-0.8,0.9c-0.2,0.1-0.3,0.2-0.5,0.2c-0.2,0-0.2-0.1-0.2-0.2c0-0.1,0-0.1,0.1-0.1
		c0,0,0.1-0.1,0.2-0.1c0,0,0.1,0,0.1,0c0,0,0,0.1,0,0.1c0,0.1,0,0.1,0.1,0.1c0.1,0,0.2-0.1,0.3-0.2c0.1-0.1,0.3-0.2,0.4-0.4
		c0.2-0.2,0.3-0.4,0.3-0.6c0,0,0-0.1,0-0.1v-0.1v-1.5c0-0.2-0.1-0.4-0.2-0.4c-0.1,0-0.3,0.1-0.4,0.4c0,0.1-0.1,0.1-0.1,0.1
		c0,0,0,0,0,0c0-0.1,0.1-0.2,0.2-0.3c0.2-0.2,0.3-0.4,0.6-0.4c0.2,0,0.3,0.1,0.3,0.2c0,0.1,0,0.2,0,0.4v0.1l0,0.9c0,0.1,0,0.3,0,0.4
		l0.1-0.1c0-0.1,0.1-0.2,0.2-0.3l0.2-0.3l0.5-0.7c0.2-0.3,0.3-0.5,0.3-0.5c0.1-0.1,0.1-0.1,0.2-0.1
		C165.9,45.1,165.9,45.2,165.9,45.3z"/>
	<path class="st10" d="M167.5,46.2c0,0.1,0,0.2-0.1,0.2c-0.1,0.1-0.1,0.1-0.2,0.1c-0.2,0-0.3-0.1-0.3-0.3c0-0.1,0-0.2,0.1-0.2
		c0.1-0.1,0.1-0.1,0.2-0.1C167.4,45.9,167.5,46,167.5,46.2z"/>
</g>
<rect x="89.2" y="112.6" class="st1" width="171" height="35"/>
<text transform="matrix(1 0 0 1 140.4302 117.1711)" style="font-family:'BodoniSvtyTwoITCTT-BookIta'; font-size:6.5px;">· blockchain &amp; ICO marketing consulting agency ·</text>
</svg>
