<?xml version="1.0" encoding="utf-8"?>
<!-- Generator: Adobe Illustrator 22.1.0, SVG Export Plug-In . SVG Version: 6.00 Build 0)  -->
<svg version="1.1" id="Layer_1" xmlns="http://www.w3.org/2000/svg" xmlns:xlink="http://www.w3.org/1999/xlink" x="0px" y="0px"
	 viewBox="0 0 85 85" style="enable-background:new 0 0 85 85;" xml:space="preserve">
<style type="text/css">
	.st0{fill:#FFFFFF;}
	.st1{fill:#00A79D;}
</style>
<g>
	<path class="st0" d="M82.5,39.7c0,22.1-17.9,40-40,40s-40-17.9-40-40s17.9-40,40-40C64.7-0.3,82.5,17.6,82.5,39.7"/>
	<path d="M46.6,8.9c1,0.2,2,0.3,3,0.6c8,2.4,12.9,7.7,14.7,15.8c0.2,0.9-0.2,1.5-0.9,1.7s-1.4-0.3-1.6-1.2c-0.7-3-1.7-5.8-3.7-8.1
		c-4.6-5.2-10.3-7.3-17.2-5.7c-8.5,2-14.4,7-18.1,14.7c-0.1,0.1-0.1,0.3-0.2,0.5c-0.3,0.7-1.1,1-1.8,0.7c-0.7-0.3-0.9-1.1-0.6-1.8
		c0.7-1.4,1.4-2.9,2.2-4.2c4.1-6.2,9.7-10.4,16.9-12.3C40.6,9.3,41.8,9.2,43,9C44.2,8.9,45.4,8.9,46.6,8.9z"/>
	<path class="st1" d="M46.2,71.9c-1.3-0.3-2.6-0.5-3.9-0.9c-5.2-1.7-9.6-4.7-13.4-8.5c-5.6-5.6-9.1-12.2-10.5-19.9
		c-0.1-0.7-0.2-1.4-0.3-2.1c-0.1-0.9,0.4-1.6,1.2-1.6c0.7-0.1,1.3,0.5,1.4,1.4c1.6,11.9,7.8,20.6,18.2,26.4c2.4,1.4,4.9,2.3,7.7,2.6
		c1.2,0.1,2.4,0.1,3.6-0.3c0.9-0.3,1.6,0,1.8,0.7c0.2,0.7-0.1,1.4-1.1,1.7c-0.6,0.2-1.3,0.3-1.9,0.5C48.2,71.9,47.2,71.9,46.2,71.9z
		"/>
	<path class="st1" d="M60.7,35.2c-0.1,4.1-0.8,8-1.5,12c-0.5,3.4-1.3,6.8-2.5,10c-0.7,2-1.6,3.8-3,5.4c-3.1,3.9-7.1,5-12.1,3.5
		c-2.8-0.9-5.4-2.3-7.7-4.1c-0.7-0.5-0.7-1.3-0.3-1.9c0.5-0.6,1.2-0.7,2-0.1c2.2,1.7,4.6,3.1,7.3,3.9c3.7,0.9,6.6,0,8.9-3.1
		c1.8-2.3,2.8-4.9,3.5-7.7c1.5-6.1,2.6-12.3,2.6-18.7c0-3.1-0.5-6-1.7-8.9c-3.1-7.3-10.6-10.4-18-7.6c-0.5,0.2-1.2,0.5-1.7,0.7
		c-0.7,0.3-1.5,0.1-1.8-0.6c-0.3-0.7-0.1-1.4,0.6-1.7c6.8-3.4,14-2.7,19.6,2.6c2.8,2.8,4.3,6.2,5,10.1
		C60.3,31.2,60.4,33.2,60.7,35.2z"/>
	<path class="st1" d="M28.7,39.7c0.4,6.9,3.4,13.2,9.8,17.5c1.6,1,3.3,1.8,5.2,1.8c2.2,0.1,3.9-0.9,5.2-2.6c0.3-0.4,0.6-0.9,0.9-1.3
		c0.5-0.6,1.2-0.7,1.8-0.4c0.6,0.4,0.8,1.2,0.4,1.8c-1.8,2.8-4.1,4.8-7.5,5.1c-1.8,0.2-3.6-0.3-5.2-1.1c-3.8-1.8-6.7-4.5-8.9-8
		c-2.8-4.3-4.3-9.1-4.1-14.2c0.3-7.4,3.4-13.2,9.9-16.9c2.9-1.7,6-2.2,9.4-1.6c0.8,0.2,1.3,0.8,1.2,1.5c-0.1,0.7-0.8,1.2-1.6,1.1
		c-4.4-0.9-8,0.8-11.1,3.7C30.3,29.7,28.7,34,28.7,39.7L28.7,39.7z"/>
	<path d="M30.1,39.6c0-2.6,0.5-5.2,1.8-7.6c0.3-0.5,0.7-0.9,1.4-0.7c0.6,0.1,1,0.5,1.1,1c0.1,0.3,0,0.7-0.1,0.9
		C31.2,39,33,46.6,37.3,51c1.1,1.1,2.3,2,3.7,2.5c1.8,0.7,3.4,0.3,4.7-1.1c1.2-1.2,1.9-2.7,2.5-4.3c0.1-0.3,0.2-0.6,0.3-0.9
		c0.3-0.6,0.9-0.9,1.6-0.7c0.6,0.2,1,0.8,0.8,1.5c-0.7,2.4-1.7,4.7-3.6,6.4c-2.4,2.2-5.1,2.4-8,1.2c-2.8-1.2-4.8-3.4-6.4-5.9
		C31.1,46.8,30.1,43.2,30.1,39.6L30.1,39.6z"/>
	<path d="M34.1,40.5c0.1-3.4,0.9-6.2,3.3-8.4c3-2.8,7.1-2.3,9.2,1.2c1.4,2.4,1.8,4.9,1.6,7.7c0,0.8-0.6,1.3-1.4,1.3
		s-1.3-0.6-1.2-1.4c0-1.6-0.1-3.3-0.7-4.8c-0.3-0.7-0.7-1.5-1.2-2.1c-0.9-1.2-2.4-1.4-3.7-0.5c-0.7,0.5-1.5,1.2-2,2
		c-2.2,3.5-1.6,8.9,1.3,11.9c0.7,0.8,1.6,1.4,2.8,1.4c0.7,0,1.3,0.6,1.3,1.3c0,0.7-0.5,1.3-1.4,1.3c-1.6,0.1-2.8-0.6-3.9-1.6
		c-2.1-1.9-3.3-4.3-3.7-7.1C34.1,41.8,34.1,41,34.1,40.5L34.1,40.5z"/>
	<path d="M22,38c0-5.4,1.6-10.2,4.8-14.6c0.4-0.5,0.9-0.7,1.5-0.6c0.6,0.1,0.9,0.5,0.9,1.2c0,0.4-0.2,0.8-0.5,1.2
		c-2,2.8-3.4,5.9-3.9,9.3c-0.7,4.8,0,9.5,1.9,14c0.9,2.4,2.3,4.5,3.8,6.6c0.3,0.3,0.4,0.8,0.4,1.2c0,0.5-0.4,0.9-0.9,1
		c-0.6,0.1-1.1-0.1-1.4-0.5c-0.9-1.5-2-2.9-2.8-4.4C23.3,47.9,22.1,43.1,22,38z"/>
	<path d="M56.3,37.9c-0.1,3.3-0.5,7-1.4,10.6c-0.2,0.9-0.9,1.4-1.7,1.2c-0.7-0.2-1.1-0.9-0.9-1.8c0.8-4.1,1.4-8.2,1.2-12.4
		c-0.2-3-0.8-5.9-2.4-8.5c-0.8-1.3-1.8-2.4-3.1-3.2c-0.6-0.4-0.8-1-0.5-1.6c0.2-0.5,0.8-0.9,1.4-0.8c0.3,0.1,0.5,0.2,0.7,0.3
		c2.8,1.8,4.5,4.4,5.5,7.5C56,31.9,56.3,34.7,56.3,37.9z"/>
	<path class="st1" d="M52.1,39v2c-0.1,0.8-0.6,1.4-1.4,1.4c-0.7,0-1.3-0.6-1.2-1.4c0.1-2.4,0.1-4.9-0.7-7.3
		c-0.3-1.1-0.8-2.2-1.4-3.1c-1.6-2.4-4.5-3.6-7.3-2.6c-1.1,0.4-2-0.3-1.8-1.4c0.1-0.6,0.5-0.9,1.2-1.1c3.5-0.9,6.5-0.2,9,2.3
		c2.1,2,3.1,4.7,3.5,7.5c0.2,1.3,0.3,2.6,0.4,3.9C52.2,39,52.2,39,52.1,39z"/>
</g>
</svg>
